<?xml version="1.0" encoding="utf-8"?>
<!-- Generator: Adobe Illustrator 19.0.0, SVG Export Plug-In . SVG Version: 6.00 Build 0)  -->
<svg version="1.1" id="Layer_1" xmlns="http://www.w3.org/2000/svg" xmlns:xlink="http://www.w3.org/1999/xlink" x="0px" y="0px"
	 viewBox="0 0 419.9 399.3" style="enable-background:new 0 0 419.9 399.3;" xml:space="preserve">
<style type="text/css">
	.Drop_x0020_Shadow{fill:none;}
	.Round_x0020_Corners_x0020_2_x0020_pt{fill:#FFFFFF;stroke:#000000;stroke-miterlimit:10;}
	.Live_x0020_Reflect_x0020_X{fill:none;}
	.Bevel_x0020_Soft{fill:url(#SVGID_1_);}
	.Dusk{fill:#FFFFFF;}
	.Foliage_GS{fill:#FFDD00;}
	.Pompadour_GS{fill-rule:evenodd;clip-rule:evenodd;fill:#51AEE2;}
	.st0{fill:#343A40;}
</style>
<linearGradient id="SVGID_1_" gradientUnits="userSpaceOnUse" x1="0" y1="0" x2="0.7071" y2="0.7071">
	<stop  offset="0" style="stop-color:#E6E6EB"/>
	<stop  offset="0.1738" style="stop-color:#E2E2E6"/>
	<stop  offset="0.352" style="stop-color:#D5D4D8"/>
	<stop  offset="0.5323" style="stop-color:#C0BFC2"/>
	<stop  offset="0.7139" style="stop-color:#A4A2A4"/>
	<stop  offset="0.8949" style="stop-color:#828282"/>
	<stop  offset="1" style="stop-color:#6B6E6E"/>
</linearGradient>
<path id="XMLID_5_" class="st0" d="M252.6,0v18.9h167c0.1,0,0.3,0,0.4,0V0H252.6z"/>
<path id="XMLID_3_" class="st0" d="M0,184.7c0,72.7,29.8,127.7,78.9,163.8c40.5,29.3,92.3,45.2,153.9,49.5v-21.9
	c-112.5-3.3-166.5-87-166.5-181.7c0-63.4,24.7-115.5,70.9-144.4C162.7,33,195,23.8,232.8,21.8V0C153.3,0.2,92.6,16.6,53.7,52.5
	C22.7,82.3,0,127.2,0,184.7z"/>
<rect id="XMLID_2_" x="306.6" y="37.8" class="st0" width="59.3" height="361.6"/>
</svg>
