<?xml version="1.0" encoding="utf-8"?>
<!-- Generator: Adobe Illustrator 19.0.0, SVG Export Plug-In . SVG Version: 6.00 Build 0)  -->
<svg version="1.1" id="Layer_1" xmlns="http://www.w3.org/2000/svg" xmlns:xlink="http://www.w3.org/1999/xlink" x="0px" y="0px"
	 viewBox="0 0 191 191" style="enable-background:new 0 0 191 191;" xml:space="preserve">
<style type="text/css">
	.st0{display:none;fill:none;stroke:#000000;stroke-width:2.9356;stroke-miterlimit:10;}
	.st1{fill:#FFFFFF;}
</style>
<g id="indexation">
	<circle id="XMLID_45_" class="st0" cx="95.5" cy="95.5" r="92.5"/>
	<g>
		<g>
			<rect id="XMLID_44_" x="96.8" y="61.7" class="st1" width="48.7" height="3.9"/>
			<rect id="XMLID_43_" x="96.8" y="83.7" class="st1" width="48.7" height="3.9"/>
			<rect id="XMLID_42_" x="96.8" y="95.6" class="st1" width="48.7" height="3.9"/>
			<rect id="XMLID_41_" x="96.8" y="107.5" class="st1" width="48.7" height="3.9"/>
			<rect id="XMLID_40_" x="96.8" y="119.5" class="st1" width="48.7" height="3.9"/>
			<rect id="XMLID_39_" x="96.8" y="131.4" class="st1" width="48.7" height="3.9"/>
		</g>
		<path id="XMLID_38_" class="st1" d="M183.4,46.1c0.4,1.6,0.6,3.2,0.6,4.9v77.2c-3.8-4.4-9.4-7.2-15.7-7.2c-6,0-11.3,2.5-15.1,6.5
			V38.6c2.9-4.5,8-7.5,13.8-7.5c0,0,0,0,0,0C175.6,31.1,182.6,37.7,183.4,46.1z"/>
		<path class="st1" d="M187.8,46.9c-0.3-11.2-9.5-20.2-20.8-20.2c-0.3,0-0.7,0-1,0h-0.1c-4.2,0.2-8.1,1.7-11.3,4.1
			c-0.5,0.4-1,0.8-1.4,1.2c-1.6,1.4-2.9,3-4,4.8v96.7v1.7h4v0c2.5-5.8,8.4-9.9,15.1-9.9c7.4,0,13.6,4.8,15.7,11.5v4.5
			c0,5.5-2.3,10.4-6.1,13.8c-3.3,3.1-7.8,5-12.7,5h-6.8H96.8v4.1h69.3c5.9,0,11.3-2.4,15.3-6.2c4.1-4,6.7-9.6,6.7-15.7v-7.1V50
			C188,49,188,47.9,187.8,46.9z M168.3,121c-6,0-11.3,2.5-15.1,6.5V38.6c2.9-4.5,8-7.5,13.8-7.5c0,0,0,0,0,0
			c8.6,0,15.6,6.6,16.4,14.9c0.4,1.6,0.6,3.2,0.6,4.9v77.2C180.2,123.8,174.6,121,168.3,121z"/>
		<path class="st1" d="M3,32.6v131.6h88.8V32.6H3z M88,160.3H6.7V36.7H88V160.3z"/>
		<path class="st1" d="M80.8,97.6h-8h-3.9h-8h-3.6h-8h-3.6h-8H34h-8h-3.7h-8h-3.7v58.8h3.7h8H26h8h3.6h8h3.6h8h3.6h8h3.9h8h3.7V97.6
			H80.8z M68.9,101.7v8h-8v-8H68.9z M68.9,121.6h-8v-8h8V121.6z M68.9,133.6h-8v-8h8V133.6z M26,125.5h8v8h-8V125.5z M26,113.6h8v8
			h-8V113.6z M57.3,121.6h-8v-8h8V121.6z M45.7,121.6h-8v-8h8V121.6z M37.6,125.5h8v8h-8V125.5z M49.3,125.5h8v8h-8V125.5z
			 M57.3,101.7v8h-8v-8H57.3z M45.7,101.7v8h-8v-8H45.7z M34,101.7v8h-8v-8H34z M14.3,101.7h8v8h-8V101.7z M14.3,113.6h8v8h-8V113.6
			z M14.3,125.5h8v8h-8V125.5z M14.3,152.5v-15h8v15H14.3z M26,152.5v-15h8v15H26z M37.6,152.5v-15h8v15H37.6z M49.3,152.5v-15h8v15
			H49.3z M60.9,152.5v-15h8v15H60.9z M80.8,152.5h-8v-15h8V152.5z M80.8,133.6h-8v-8h8V133.6z M80.8,121.6h-8v-8h8V121.6z
			 M80.8,109.7h-8v-8h8V109.7z"/>
		<path class="st1" d="M10.4,65.8v23.4h73.9V65.8H10.4z M80.6,85.1H14.1V70h66.5V85.1z"/>
		<path id="XMLID_1_" class="st1" d="M10.4,40.9v12.5h73.9V40.9H10.4z M80.6,49.2H14.1v-4.2h66.5V49.2z"/>
	</g>
</g>
</svg>
