<?xml version="1.0" encoding="utf-8"?>
<!-- Generator: Adobe Illustrator 19.0.0, SVG Export Plug-In . SVG Version: 6.00 Build 0)  -->
<svg version="1.1" id="Layer_1" xmlns="http://www.w3.org/2000/svg" xmlns:xlink="http://www.w3.org/1999/xlink" x="0px" y="0px"
	 viewBox="0 0 15 15" style="enable-background:new 0 0 15 15;" xml:space="preserve">
<style type="text/css">
	.st0{fill:#D5D5D5;}
</style>
<path id="XMLID_1_" class="st0" d="M14.5,3h-14C0.2,3,0,2.8,0,2.5v0C0,2.2,0.2,2,0.5,2h14C14.8,2,15,2.2,15,2.5v0
	C15,2.8,14.8,3,14.5,3z"/>
<path id="XMLID_2_" class="st0" d="M14.5,8h-14C0.2,8,0,7.8,0,7.5v0C0,7.2,0.2,7,0.5,7h14C14.8,7,15,7.2,15,7.5v0
	C15,7.8,14.8,8,14.5,8z"/>
<path id="XMLID_3_" class="st0" d="M14.5,13h-14C0.2,13,0,12.8,0,12.5v0C0,12.2,0.2,12,0.5,12h14c0.3,0,0.5,0.2,0.5,0.5v0
	C15,12.8,14.8,13,14.5,13z"/>
</svg>
