<?xml version="1.0" encoding="utf-8"?>
<!-- Generator: Adobe Illustrator 19.0.0, SVG Export Plug-In . SVG Version: 6.00 Build 0)  -->
<svg version="1.1" id="Layer_1" xmlns="http://www.w3.org/2000/svg" xmlns:xlink="http://www.w3.org/1999/xlink" x="0px" y="0px"
	 viewBox="0 0 153.6 443.4" style="enable-background:new 0 0 153.6 443.4;" xml:space="preserve">
<style type="text/css">
	.Drop_x0020_Shadow{fill:none;}
	.Outer_x0020_Glow_x0020_5_x0020_pt{fill:none;}
	.Blue_x0020_Neon{fill:none;stroke:#8AACDA;stroke-width:7;stroke-linecap:round;stroke-linejoin:round;}
	.Chrome_x0020_Highlight{fill:url(#SVGID_1_);stroke:#FFFFFF;stroke-width:0.3629;stroke-miterlimit:1;}
	.Jive_GS{fill:#FFDD00;}
	.Alyssa_GS{fill:#A6D0E4;}
	.st0{fill:#B36843;}
	.st1{fill:#9E3E2B;}
	.st2{fill:#939784;}
	.st3{fill:#182423;stroke:#182423;stroke-miterlimit:10;}
	.st4{fill:#283C45;}
	.st5{fill:#283C45;stroke:#283C45;stroke-miterlimit:10;}
	.st6{fill:#181E13;}
	.st7{fill:#3C3129;}
	.st8{fill:none;stroke:#181E13;stroke-miterlimit:10;}
	.st9{fill:#ABB09B;}
	.st10{fill:#3D3E28;}
	.st11{fill:#B5C2B4;}
	.st12{fill:#3A4039;}
	.st13{opacity:0.5;}
	.st14{fill:#968F6F;}
	.st15{fill:#504C46;}
	.st16{fill:#FFFFFF;}
	.st17{fill:#181E13;stroke:#181E13;stroke-miterlimit:10;}
	.st18{fill:none;stroke:#000000;stroke-miterlimit:10;}
</style>
<linearGradient id="SVGID_1_" gradientUnits="userSpaceOnUse" x1="0" y1="0" x2="4.489659e-011" y2="-1">
	<stop  offset="0" style="stop-color:#656565"/>
	<stop  offset="0.618" style="stop-color:#1B1B1B"/>
	<stop  offset="0.6292" style="stop-color:#545454"/>
	<stop  offset="0.9831" style="stop-color:#3E3E3E"/>
</linearGradient>
<g id="owner">
	<path id="XMLID_35_" class="st0" d="M109,243.1c24.4,8.5,43.4,17,40.9,32.5C145.9,283.1,129.6,295.5,109,243.1z"/>
	<g id="body">
		<path id="XMLID_3_" class="st1" d="M91.1,424.7c-21.3,17.4,19.6,24,11.4,0.6L91.1,424.7z"/>
		<path id="XMLID_4_" class="st1" d="M56,425.9c-4.6,8.2-17.2,9.6-17.2,9.6c-1.9,0.8,0.4,2.6,0.4,2.6c3.7,1.1,19.2-0.2,22.8-2.3
			c1.7-0.3,5.1-0.8,5.1-0.8s1.6-1.3,0.1-4.4c-0.5-3.1-0.1-2.8-0.1-2.8v-1.5L56,425.9z"/>
		<path id="XMLID_40_" class="st2" d="M47.6,322.8l11.3,4.4l0.5-8.9h9.1V331l6.6,2.6l25.4-8.6c0,0,2.2,93.3,2.2,100.6H90.9
			c0,0-9.2-79.6-7.6-89.8l-17.5,1.6l1.6,89.8H55.7C55.7,427.1,46.3,351.3,47.6,322.8z"/>
		<path id="XMLID_5_" class="st3" d="M16.5,261.1l29.1-1.4L42,336.1c2.3,5.5,7.4,9.3,13.7,11.6v-17.5l6.6-0.1
			c-0.4-4.9,1.6-9.3,2.1-6.3c0,0-1.1,9.4,6.1,7.3l-0.1,17.1l9.4,0.1v1.3l4.9,0v0c9.4-1.6,17.8-5.3,22-10.4c0-18.1,0.8-53.8,1.3-73.2
			l21.4,6.3c17.1,3.1,13.1-12.2,13.1-12.2l-6.4-60.6c-1.9-5.7-32.5-17.9-32.5-17.9c-5.5-19.1-35.4-28-47.7-3.6
			c-15.8,7.4-22.7,13.1-22.7,13.1c-9.8,12.7-29.1,59-29.1,59C0.2,263.7,16.5,261.1,16.5,261.1z M113.1,248.2c0,0,0.5-8.4,4.9-14.6
			h0.6c3.1,7.3,2.3,16.7,2.3,16.7L113.1,248.2z M31,243.1c0-3,4.7-15,9.4-18.8l1.7,8.3c0,0-4.9,1.9-5,9.9
			C37.1,242.5,39.4,243.1,31,243.1z"/>
		<path id="XMLID_31_" class="st4" d="M58.8,235.4c16.6,2.5,18,3.7,18,3.7c0.8-15.5,22.3-52.4,14.9-64.2
			C84.4,163.1,44.9,157,58.8,235.4z"/>
		<path id="XMLID_30_" class="st5" d="M62.3,330.1c-0.4-4.9,1.6-9.3,2.1-6.3c0,0-1.1,9.4,6.1,7.3l0,6.4l4.1-78.4L59,260.3l-3,69.9
			L62.3,330.1z"/>
	</g>
	<path id="XMLID_29_" class="st0" d="M40.8,235.4c-7.2-1.1-7.9-5.1-8.1-9.1c-0.2-3.9-4.5-7.5-13.4-6.9c-6.1-0.1-6,1-5.5,3
		c-9.3-1.4-8.1,2.6-7.8,6c-2.9,0.8-1.8,4.5-0.8,5.6c-3.2,2.7-1,6.6-1,6.6c1.9,1.2,20.7,16.1,28.2,0l6.8,1.3L40.8,235.4z"/>
	<g id="head">
		<path id="XMLID_28_" class="st6" d="M118.7,91l-10.8,12.3l-6.2-1.3L42.2,34.3c-2.5-6.6,0.9-12,1.8-13.8s1.3-5.9,5-5.9
			c-0.4-6.7,6.7-5.1,6.7-5.1s1-3.7,7.3-3.2c0.7-3,8.5-1.7,8.5-1.7s5.6-2.7,12.4,0.9C87.8,4,91,7.6,91,7.6c3.9-1.9,8.6,1.5,8.6,1.5
			s4.6-1,6.5,4c6.2,0.2,6.7,3.9,6.7,3.9s4.1-1.2,5,4c5.3,0.2,7,5.7,7,5.7s4-1,4.1,4c5.5,2.1,3.2,5.9,3.2,5.9
			c1.9,0.9,3.1,4.6,0.5,7.6c-0.1,5.7-0.6,6.8-1,6.8c-0.4,0.1,0,6.1-1.5,7.2C129.4,67.5,118.7,91,118.7,91z"/>
		<path id="XMLID_27_" class="st7" d="M41.9,33.3c0.1,0.3,0.2,0.7,0.3,1l59.5,67.7l6.2,1.3L118.7,91c0,0,9.7-21.2,11.2-31.3l0,0
			c-8.2-4.9-24.2-17.1-24.2-17.1l-22.9-6.1l-17.8,4.9L41.9,33.3z"/>
		<path id="face" class="st0" d="M120.5,87.1c18.7,1.1,3.8,29.6-7.6,26.3c-3.5-3.1-5.3,0.6-5.4,2.4s-8.1,20.8-13.7,25.7
			c-5.6,4.9-4.5,18.9-4.1,25.5c0.5,6.7,0.4,11.3,0.4,11.3c-8.8,9.9-22.2,12.5-23.4,5.4v-22.8l-36.6-7c0,0,1.9-15.5,0-22.6
			c-1.9-7.1-1.4-50.8,3.1-58.7c-1.9-19.3,5.7-47.1,25.9-47.1c9.4-0.4,29.6-1.1,44.5,7.9c8.1,4.9,1.2,19-2,25.1s-1.3,6.9-0.5,9.8
			c4.2,16.4,3,27.9,3,29.8c0,1.9,0.4,1.3,0.4,1.3h5.3C109.7,87,120.5,87.1,120.5,87.1z"/>
		<g id="forehead">
			<path id="XMLID_26_" class="st8" d="M43.3,53.6c0,0,4.1-0.5,5.7,2.9c5.8,2.4,9.1-2.7,19.6,0"/>
			<path id="XMLID_25_" class="st8" d="M44,58.2c0,0,3.3-0.2,4.5,1.5c4.5,1.2,7.2-1.4,15.5,0"/>
		</g>
		<g id="eyebrow">
			<path id="XMLID_24_" class="st6" d="M54.9,70.6c-2-4.7,20.1-6.1,27.6,2.1C82.9,57,53.3,55.5,54.9,70.6z"/>
			<path id="XMLID_23_" class="st6" d="M32.3,66.4c1.6-4.3,10.1-4.1,12.7,2.5C47.3,55.1,32.3,55.2,32.3,66.4z"/>
		</g>
		<g id="eyes">
			<g id="left_x5F_eye">
				<path id="XMLID_22_" class="st9" d="M57.2,87.8c-0.7,9,18.6,14.4,22.6,2.6C79.7,80,59,79.3,57.2,87.8z"/>
				<circle id="XMLID_21_" class="st10" cx="70.3" cy="89.7" r="5.7"/>
				<circle id="XMLID_20_" class="st11" cx="73.5" cy="87.8" r="1.9"/>
				<circle id="XMLID_19_" class="st12" cx="70.3" cy="90.1" r="2.3"/>
			</g>
			<g id="right_x5F_eye">
				<path id="XMLID_18_" class="st9" d="M30.7,85.5c-0.4,6.3,10.8,10,13.1,1.8C43.8,80.1,31.8,79.6,30.7,85.5z"/>
				<circle id="XMLID_17_" class="st10" cx="37.8" cy="86.8" r="5.7"/>
				<circle id="XMLID_16_" class="st11" cx="41.1" cy="84.9" r="1.9"/>
				<circle id="XMLID_15_" class="st12" cx="37.8" cy="87.2" r="2.3"/>
			</g>
		</g>
		<path id="nose" class="st8" d="M46.5,81.4c2.5,18.1-7.7,19.9-7.7,19.9c-6.5,1,1.3,11,10.2,10.3"/>
		<g id="glasses" class="st13">
			<path id="XMLID_14_" class="st14" d="M77.2,76.9c28.6,6.1,4.7,53.8-19.7,19.6C49.5,82,55.3,72.8,77.2,76.9z"/>
			<path id="XMLID_13_" class="st14" d="M26,74c-22.8,5.7-3.7,50.5,15.7,18.4C48.1,78.7,43.5,70.1,26,74z"/>
			<path id="XMLID_8_" class="st15" d="M15.2,87.6c-0.1,7.6,4.1,14.8,9.7,16.4c0.7,0.2,1.5,0.3,2.5,0.3c3.6,0,8.9-2.1,14.7-11.7
				c2-4.3,2.9-8,2.8-11.1l0,0c0.6-2.1,2.8-3.6,4.9-3.4c2,0.2,3.3,2,3.6,4.9l0.7-0.1c-0.9,3.6,0.2,8.3,3.2,13.8
				c7.1,10,13.7,12.5,18.4,12.5c1.8,0,3.2-0.3,4.4-0.8c6.6-2.3,11.3-10.2,10.8-17.9c-0.1-1.3-0.3-2.6-0.7-3.8
				c6.7,0.1,25.5,3.8,25.7,3.8l0.4-1.9c-0.8-0.2-20.6-4-26.9-3.8c-2.1-4.3-6.2-7.2-11.9-8.5l0,0c-1.7-0.3-3.3-0.6-4.9-0.7
				c-2.1-0.4-10.5-1.7-37.9-3.1l0,0c-2.5-0.1-5.3,0.2-8.5,0.9l0,0C19.3,75.3,15.3,80.5,15.2,87.6z M56.1,80.6
				c3-4.1,10.3-5.2,21.1-3.2c7.6,1.6,12.2,6.5,12.6,13.3c0.5,7.3-4,14.7-10.2,16.9c-4,1.4-12.2,1.9-21.6-11.3
				C54.2,89.5,53.5,84,56.1,80.6z M44.6,80c-0.3-1.5-0.8-2.8-1.7-3.9c-0.8-1-1.9-1.8-3.2-2.4c12.2,0.7,20.1,1.3,25.1,1.8
				c-4.5,0.4-7.7,1.9-9.5,4.4c-0.6,0.8-1,1.6-1.3,2.6c-0.5-4.4-3.1-5.2-4.3-5.3C47.8,77.1,45.7,78.3,44.6,80z M16,87.6
				c0.1-3.2,1.2-11,10.1-13.2c2.8-0.6,5.3-0.9,7.5-0.9c4.1,0,7,1.1,8.7,3.2c2.6,3.2,2.2,8.7-1,15.6c-5.2,8.5-10.9,12.4-16.2,10.9
				C19.9,101.7,15.9,94.8,16,87.6z"/>
		</g>
		<g id="mouth">
			<path id="XMLID_36_" class="st8" d="M42.7,134.6c0,4.1,9.7,4.6,11.4,1.8"/>
			<g id="mouth_x5F_lines">
				<path id="XMLID_38_" class="st8" d="M56.3,111.7c8,2.1,12.9,15.6,12.9,15.6"/>
				<path id="XMLID_39_" class="st8" d="M35.6,110.8c-6.9,3.9-4.3,22.8-4.3,22.8"/>
			</g>
			<path id="XMLID_37_" class="st6" d="M39.1,125c-0.4,9.1,15.4,12.3,23.2,2.3C52.7,125,39.1,125,39.1,125z"/>
			<path id="XMLID_41_" class="st16" d="M45.4,127.3c-0.2,4.2,7.1,5.7,10.7,1C51.7,127.3,45.4,127.3,45.4,127.3z"/>
			<path id="XMLID_42_" class="st17" d="M30.1,153.8c1.9,14.9,32.6,16.7,36.4,5c3.8-11.7,3.8-12.3,3.8-12.3v-18.3
				c0-11.8-38.2-14.9-39.6-1.8C30.2,142.8,30.1,153.8,30.1,153.8z M34.8,125.2c1.5-4.8,27.1-5,30.3,1.1c1.4,22.6-6.2,27.3-17.3,23.7
				v-6.1h-6.3C39.6,160.3,31.4,135.7,34.8,125.2z"/>
		</g>
		<path id="XMLID_7_" class="st18" d="M126,95.4c-4.3-4.5-10,1.1-10,1.1c3.6,2.8,0,8.7,0,8.7"/>
	</g>
</g>
</svg>
