<?xml version="1.0" encoding="utf-8"?>
<!-- Generator: Adobe Illustrator 19.0.0, SVG Export Plug-In . SVG Version: 6.00 Build 0)  -->
<svg version="1.1" id="Layer_1" xmlns="http://www.w3.org/2000/svg" xmlns:xlink="http://www.w3.org/1999/xlink" x="0px" y="0px"
	 viewBox="0 0 1290 1290" style="enable-background:new 0 0 1290 1290;" xml:space="preserve">
<style type="text/css">
	.Drop_x0020_Shadow{fill:none;}
	.Round_x0020_Corners_x0020_2_x0020_pt{fill:#FFFFFF;stroke:#000000;stroke-miterlimit:10;}
	.Live_x0020_Reflect_x0020_X{fill:none;}
	.Bevel_x0020_Soft{fill:url(#SVGID_1_);}
	.Dusk{fill:#FFFFFF;}
	.Foliage_GS{fill:#FFDD00;}
	.Pompadour_GS{fill-rule:evenodd;clip-rule:evenodd;fill:#51AEE2;}
	.st0{fill:#FFFFFF;}
	.st1{display:none;opacity:0.5;}
	.st2{display:inline;}
	.st3{fill:#99C441;}
	.st4{display:inline;fill:#99C441;}
</style>
<linearGradient id="SVGID_1_" gradientUnits="userSpaceOnUse" x1="0" y1="0" x2="0.7071" y2="0.7071">
	<stop  offset="0" style="stop-color:#E6E6EB"/>
	<stop  offset="0.1738" style="stop-color:#E2E2E6"/>
	<stop  offset="0.352" style="stop-color:#D5D4D8"/>
	<stop  offset="0.5323" style="stop-color:#C0BFC2"/>
	<stop  offset="0.7139" style="stop-color:#A4A2A4"/>
	<stop  offset="0.8949" style="stop-color:#828282"/>
	<stop  offset="1" style="stop-color:#6B6E6E"/>
</linearGradient>
<g id="shopping_x5F_caret_x5F_white">
	<g id="XMLID_137_">
		<path id="XMLID_146_" class="st0" d="M1101.9,1177.8c0,14.6-11.9,26.5-26.5,26.5s-26.5-11.9-26.5-26.5s11.9-26.5,26.5-26.5
			S1101.9,1163.1,1101.9,1177.8z"/>
		<path id="XMLID_143_" class="st0" d="M1075.4,1070.5c-59.2,0-107.3,48-107.3,107.3c0,59.2,48,107.3,107.3,107.3
			c59.2,0,107.3-48,107.3-107.3C1182.7,1118.5,1134.6,1070.5,1075.4,1070.5z M1075.4,1231.3c-29.6,0-53.5-24-53.5-53.5
			c0-29.6,24-53.5,53.5-53.5c29.5,0,53.5,23.9,53.5,53.5C1128.9,1207.3,1105,1231.3,1075.4,1231.3z"/>
		<path id="XMLID_141_" class="st0" d="M457.2,1177.8c0,14.6-11.9,26.5-26.5,26.5s-26.5-11.9-26.5-26.5s11.9-26.5,26.5-26.5
			S457.2,1163.1,457.2,1177.8z"/>
		<path id="XMLID_138_" class="st0" d="M430.7,1070.5c-59.2,0-107.3,48-107.3,107.3c0,59.2,48,107.3,107.3,107.3
			s107.3-48,107.3-107.3C537.9,1118.5,489.9,1070.5,430.7,1070.5z M430.7,1231.3c-29.5,0-53.5-24-53.5-53.5
			c0-29.6,24-53.5,53.5-53.5s53.5,23.9,53.5,53.5C484.2,1207.3,460.2,1231.3,430.7,1231.3z"/>
	</g>
	<path id="XMLID_2_" class="st0" d="M702.9,148l31.3-52.7l3.1-5.2l1.5-2.6c0,0,0,0,0,0l0.7-1.1l-24.1-15.1l-14.3,24l-21.4,36.1
		l-9.9,16.6H280.4l-13.2-52.7l-9.2-37L254,42l-9.2-37H17.1v28.8l15.3,61.5H119l142.5,617l12.2,52.6c-48.8,17-83.8,63.3-83.8,117.9
		c0,65.1,49.8,118.5,113.4,124.3v0h0.2c3.7,0.3,7.4,0.5,11.2,0.5c3.8,0,7.5-0.2,11.2-0.5h918.7v-88.2H313.9
		c-19.6-0.3-35.5-16.4-35.5-36.1c0-17.7,12.8-32.5,29.6-35.5c0,0,0,0,0.1,0l3.8-0.5l116.8-14.3l726.8-89.2v0.2l18.5,0V741l8.1-1
		l53.8-6.6l3.5-54.1l4.2-65.1l26.6-412.9h2.7V148H702.9z M1069.1,700.2v-85l86.5,0l0,74.4L1069.1,700.2z M1041,703.7h-79.9l0-88.5
		h89.5l0,87.3L1041,703.7z M219.3,293.2h75.9v87.5h-55.7L219.3,293.2z M295.3,399.2l0,89.5h-30.8l-20.7-89.5H295.3z M618.4,293.2
		v87.5l-53.5,0l51.9-87.5H618.4z M420.9,567.7l0-60.4h35.9L420.9,567.7z M402.4,399.2l0,89.5l-88.6,0l0-89.5L402.4,399.2z
		 M313.8,380.7v-87.5l88.6,0v87.5L313.8,380.7z M402.4,507.2l0,89.5l-88.6,0l0-89.5L402.4,507.2z M420.9,488.7l0-89.5h89.5v17.6
		l-42.6,71.8H420.9z M420.9,380.7v-87.5h89.5v87.5H420.9z M528.9,380.7v-87.5l54.8,0l-51.9,87.5H528.9z M594.8,274.7h-65.8l0-73.4
		h89.5l0,33.5L594.8,274.7z M510.4,274.7h-89.5l0-73.4h89.5L510.4,274.7z M402.4,274.7l-88.6,0l0-73.4h88.6L402.4,274.7z
		 M295.3,507.2l0,89.5h-5.9l-20.7-89.5H295.3z M293.7,615.2h1.6v6.9L293.7,615.2z M313.8,702.4v-87.1l78.9,0l-52.5,88.5h-26.1
		L313.8,702.4z M402.4,654.6v49.1h-29.1L402.4,654.6z M420.9,623.4l4.8-8.2h84.6v88.5l-89.5,0V623.4z M436.8,596.7l53.1-89.5h20.6
		l0,89.5H436.8z M510.4,488.7h-9.6l9.6-16.1V488.7z M553.9,399.2h64.5l0,89.5l-89.5,0l0-47.4L553.9,399.2z M618.4,507.2l0,89.5
		l-89.5,0l0-89.5H618.4z M618.4,703.7h-89.5v-88.5l89.5,0L618.4,703.7z M528.9,722.2h89.5v33.4l-89.5,11V722.2z M727.4,399.2v89.5
		h-90.5l0-89.5L727.4,399.2z M636.9,380.7v-87.5h90.5v87.5H636.9z M1155.5,380.7l-86.5,0v-87.5l86.5,0V380.7z M1155.5,399.2v89.5
		l-86.5,0v-89.5H1155.5z M1155.5,507.2v89.5l-86.5,0l0-89.5H1155.5z M1155.5,274.7h-86.5l0-73.4h86.5V274.7z M1050.5,380.7h-89.5
		v-87.5h89.5V380.7z M1050.5,399.2v89.5h-89.5v-89.5H1050.5z M1050.5,507.2v89.5h-89.5l0-89.5H1050.5z M1050.5,274.7h-89.5l0-73.4
		h89.5V274.7z M942.5,380.7h-89.5v-87.5h89.5V380.7z M942.5,488.7h-89.5v-89.5h89.5L942.5,488.7z M942.5,507.2v89.5l-89.5,0l0-89.5
		H942.5z M942.5,615.2l0,88.5h-89.5l0-88.5L942.5,615.2z M942.5,274.7h-89.5l0-73.4h89.5L942.5,274.7z M834.5,380.7h-88.6v-87.5
		h88.6V380.7z M834.5,399.2v89.5h-88.6v-89.5H834.5z M834.5,507.2l0,89.5h-88.6l0-89.5H834.5z M834.5,615.2l0,88.5l-88.6,0l0-88.5
		H834.5z M834.5,274.7h-88.6l0-73.4h88.6L834.5,274.7z M727.4,615.2l0,88.5h-90.5l0-88.5H727.4z M636.9,507.2h90.5l0,89.5h-90.5
		L636.9,507.2z M636.9,722.2h90.5v20l-90.5,11.1V722.2z M745.9,722.2h88.6v6.8l-88.6,10.9V722.2z M853.1,722.2h37l-37,4.5V722.2z
		 M1174.1,615.2h16.1l-4.5,70.7l-11.5,1.4V615.2z M1174.1,596.7l0-89.5h23l-4.4,69.1l-1.3,20.3H1174.1z M1174.1,488.7v-89.5h30
		l-5.8,89.5H1174.1z M1174.1,380.7v-87.5h36.8l-5.6,87.5H1174.1z M1212.1,274.7h-38l0-73.4h42.7L1212.1,274.7z M671.3,201.3h56.1
		l0,73.4l-90.5,0v-15.4L671.3,201.3z M636.9,203.6v-2.3h1.4L636.9,203.6z M165.1,58.3h38l9.2,37l13.2,52.7l13.3,53.3h56.5l0,73.4
		h-80.2L173.6,95.3L165.1,58.3z M318.4,722.2h10.9l-7.8,13.2L318.4,722.2z M334.1,790.5l-0.7-3.2c0,0,0,0,0-0.1l-0.9-3.7l-1.8-8
		l8.8-14.9l22.8-38.4h40.1l0,59.9l-12.3,1.5L334.1,790.5z M420.9,779.8l0-57.6h89.5v46.6L420.9,779.8z"/>
</g>
<g id="shopping_x5F_caret" class="st1">
	<g class="st2">
		<path id="XMLID_69_" class="st3" d="M1101.9,1177.8c0,14.6-11.9,26.5-26.5,26.5s-26.5-11.9-26.5-26.5s11.9-26.5,26.5-26.5
			S1101.9,1163.1,1101.9,1177.8z"/>
		<path class="st3" d="M1075.4,1070.5c-59.2,0-107.3,48-107.3,107.3c0,59.2,48,107.3,107.3,107.3c59.2,0,107.3-48,107.3-107.3
			C1182.7,1118.5,1134.6,1070.5,1075.4,1070.5z M1075.4,1231.3c-29.6,0-53.5-24-53.5-53.5c0-29.6,24-53.5,53.5-53.5
			c29.5,0,53.5,23.9,53.5,53.5C1128.9,1207.3,1105,1231.3,1075.4,1231.3z"/>
		<path id="XMLID_66_" class="st3" d="M457.2,1177.8c0,14.6-11.9,26.5-26.5,26.5s-26.5-11.9-26.5-26.5s11.9-26.5,26.5-26.5
			S457.2,1163.1,457.2,1177.8z"/>
		<path class="st3" d="M430.7,1070.5c-59.2,0-107.3,48-107.3,107.3c0,59.2,48,107.3,107.3,107.3s107.3-48,107.3-107.3
			C537.9,1118.5,489.9,1070.5,430.7,1070.5z M430.7,1231.3c-29.5,0-53.5-24-53.5-53.5c0-29.6,24-53.5,53.5-53.5s53.5,23.9,53.5,53.5
			C484.2,1207.3,460.2,1231.3,430.7,1231.3z"/>
	</g>
	<path class="st4" d="M702.9,148l31.3-52.7l3.1-5.2l1.5-2.6c0,0,0,0,0,0l0.7-1.1l-24.1-15.1l-14.3,24l-21.4,36.1l-9.9,16.6H280.4
		l-13.2-52.7l-9.2-37L254,42l-9.2-37H17.1v28.8l15.3,61.5H119l142.5,617l12.2,52.6c-48.8,17-83.8,63.3-83.8,117.9
		c0,65.1,49.8,118.5,113.4,124.3v0h0.2c3.7,0.3,7.4,0.5,11.2,0.5c3.8,0,7.5-0.2,11.2-0.5h918.7v-88.2H313.9
		c-19.6-0.3-35.5-16.4-35.5-36.1c0-17.7,12.8-32.5,29.6-35.5c0,0,0,0,0.1,0l3.8-0.5l116.8-14.3l726.8-89.2v0.2l18.5,0V741l8.1-1
		l53.8-6.6l3.5-54.1l4.2-65.1l26.6-412.9h2.7V148H702.9z M1069.1,700.2v-85l86.5,0l0,74.4L1069.1,700.2z M1041,703.7h-79.9l0-88.5
		h89.5l0,87.3L1041,703.7z M219.3,293.2h75.9v87.5h-55.7L219.3,293.2z M295.3,399.2l0,89.5h-30.8l-20.7-89.5H295.3z M618.4,293.2
		v87.5l-53.5,0l51.9-87.5H618.4z M420.9,567.7l0-60.4h35.9L420.9,567.7z M402.4,399.2l0,89.5l-88.6,0l0-89.5L402.4,399.2z
		 M313.8,380.7v-87.5l88.6,0v87.5L313.8,380.7z M402.4,507.2l0,89.5l-88.6,0l0-89.5L402.4,507.2z M420.9,488.7l0-89.5h89.5v17.6
		l-42.6,71.8H420.9z M420.9,380.7v-87.5h89.5v87.5H420.9z M528.9,380.7v-87.5l54.8,0l-51.9,87.5H528.9z M594.8,274.7h-65.8l0-73.4
		h89.5l0,33.5L594.8,274.7z M510.4,274.7h-89.5l0-73.4h89.5L510.4,274.7z M402.4,274.7l-88.6,0l0-73.4h88.6L402.4,274.7z
		 M295.3,507.2l0,89.5h-5.9l-20.7-89.5H295.3z M293.7,615.2h1.6v6.9L293.7,615.2z M313.8,702.4v-87.1l78.9,0l-52.5,88.5h-26.1
		L313.8,702.4z M402.4,654.6v49.1h-29.1L402.4,654.6z M420.9,623.4l4.8-8.2h84.6v88.5l-89.5,0V623.4z M436.8,596.7l53.1-89.5h20.6
		l0,89.5H436.8z M510.4,488.7h-9.6l9.6-16.1V488.7z M553.9,399.2h64.5l0,89.5l-89.5,0l0-47.4L553.9,399.2z M618.4,507.2l0,89.5
		l-89.5,0l0-89.5H618.4z M618.4,703.7h-89.5v-88.5l89.5,0L618.4,703.7z M528.9,722.2h89.5v33.4l-89.5,11V722.2z M727.4,399.2v89.5
		h-90.5l0-89.5L727.4,399.2z M636.9,380.7v-87.5h90.5v87.5H636.9z M1155.5,380.7l-86.5,0v-87.5l86.5,0V380.7z M1155.5,399.2v89.5
		l-86.5,0v-89.5H1155.5z M1155.5,507.2v89.5l-86.5,0l0-89.5H1155.5z M1155.5,274.7h-86.5l0-73.4h86.5V274.7z M1050.5,380.7h-89.5
		v-87.5h89.5V380.7z M1050.5,399.2v89.5h-89.5v-89.5H1050.5z M1050.5,507.2v89.5h-89.5l0-89.5H1050.5z M1050.5,274.7h-89.5l0-73.4
		h89.5V274.7z M942.5,380.7h-89.5v-87.5h89.5V380.7z M942.5,488.7h-89.5v-89.5h89.5L942.5,488.7z M942.5,507.2v89.5l-89.5,0l0-89.5
		H942.5z M942.5,615.2l0,88.5h-89.5l0-88.5L942.5,615.2z M942.5,274.7h-89.5l0-73.4h89.5L942.5,274.7z M834.5,380.7h-88.6v-87.5
		h88.6V380.7z M834.5,399.2v89.5h-88.6v-89.5H834.5z M834.5,507.2l0,89.5h-88.6l0-89.5H834.5z M834.5,615.2l0,88.5l-88.6,0l0-88.5
		H834.5z M834.5,274.7h-88.6l0-73.4h88.6L834.5,274.7z M727.4,615.2l0,88.5h-90.5l0-88.5H727.4z M636.9,507.2h90.5l0,89.5h-90.5
		L636.9,507.2z M636.9,722.2h90.5v20l-90.5,11.1V722.2z M745.9,722.2h88.6v6.8l-88.6,10.9V722.2z M853.1,722.2h37l-37,4.5V722.2z
		 M1174.1,615.2h16.1l-4.5,70.7l-11.5,1.4V615.2z M1174.1,596.7l0-89.5h23l-4.4,69.1l-1.3,20.3H1174.1z M1174.1,488.7v-89.5h30
		l-5.8,89.5H1174.1z M1174.1,380.7v-87.5h36.8l-5.6,87.5H1174.1z M1212.1,274.7h-38l0-73.4h42.7L1212.1,274.7z M671.3,201.3h56.1
		l0,73.4l-90.5,0v-15.4L671.3,201.3z M636.9,203.6v-2.3h1.4L636.9,203.6z M165.1,58.3h38l9.2,37l13.2,52.7l13.3,53.3h56.5l0,73.4
		h-80.2L173.6,95.3L165.1,58.3z M318.4,722.2h10.9l-7.8,13.2L318.4,722.2z M334.1,790.5l-0.7-3.2c0,0,0,0,0-0.1l-0.9-3.7l-1.8-8
		l8.8-14.9l22.8-38.4h40.1l0,59.9l-12.3,1.5L334.1,790.5z M420.9,779.8l0-57.6h89.5v46.6L420.9,779.8z"/>
</g>
</svg>
