<?xml version="1.0" encoding="utf-8"?>
<!-- Generator: Adobe Illustrator 19.0.0, SVG Export Plug-In . SVG Version: 6.00 Build 0)  -->
<svg version="1.1" id="Layer_1" xmlns="http://www.w3.org/2000/svg" xmlns:xlink="http://www.w3.org/1999/xlink" x="0px" y="0px"
	 viewBox="-27 45 131 131" style="enable-background:new -27 45 131 131;" xml:space="preserve">
<style type="text/css">
	.st0{fill:#FFFFFF;}
</style>
<path id="XMLID_3_" class="st0" d="M92.6,60.3V45h-3.9h-4.9H0.2H-3h-5.6v16.1h-3.2c-6.3,0-11.5,5.2-11.5,11.5v4.6l0,0v18.1
	c0,6.3,5.2,11.5,11.5,11.5H1.4l0,0h34.4c1.3,0,2.3,1,2.3,2.3V123h-6.9v53h21.7v-52.8h-6.3v-13.2c0-6.3-5.2-11.5-11.5-11.5H9.9l0,0
	h-22.3c-1.3,0-2.3-1-2.3-2.3v-5.2l0,0V72.2c0-1.3,1-2.3,2.3-2.3h3.9v21.6H-3h3.2h83.6h4.9h3.9V69.2h7.6v-8.8h-7.6V60.3z M46.4,129.8
	v39.7h-8.8v-39.7H46.4z M0.2,82.6V53.8h83.6v28.8H0.2z"/>
</svg>
