<?xml version="1.0" encoding="utf-8"?>
<!-- Generator: Adobe Illustrator 19.0.0, SVG Export Plug-In . SVG Version: 6.00 Build 0)  -->
<svg version="1.1" id="Layer_1" xmlns="http://www.w3.org/2000/svg" xmlns:xlink="http://www.w3.org/1999/xlink" x="0px" y="0px"
	 viewBox="0 0 960 560" style="enable-background:new 0 0 960 560;" xml:space="preserve">
<style type="text/css">
	.st0{display:none;fill:url(#XMLID_19_);}
	.st1{fill:#B7B7B7;}
	.st2{fill:#A81D6B;}
	.st3{fill:#F7F8FC;}
	.st4{opacity:0.1;}
	.st5{display:none;}
	.st6{display:inline;fill:#4A7DFF;}
	.st7{display:inline;fill:#F7F8FC;}
</style>
<linearGradient id="XMLID_19_" gradientUnits="userSpaceOnUse" x1="0" y1="280" x2="960" y2="280">
	<stop  offset="0" style="stop-color:#F9CB10"/>
	<stop  offset="0.1667" style="stop-color:#EF7D1B"/>
	<stop  offset="0.3333" style="stop-color:#E8423F"/>
	<stop  offset="0.5" style="stop-color:#A81D6B"/>
	<stop  offset="0.6667" style="stop-color:#1895AA"/>
	<stop  offset="0.8333" style="stop-color:#99C440"/>
	<stop  offset="1" style="stop-color:#F9CB10"/>
</linearGradient>
<rect id="XMLID_2_" class="st0" width="960" height="560"/>
<rect id="XMLID_1_" class="st1" width="960" height="560"/>
<g id="XMLID_5_">
	<path id="XMLID_16_" class="st2" d="M960,5.8v270.3L708.8,560h-38.1c-48.1,0-87.6-39-87.6-87.1V87.1C583,39,622.5,0,670.6,0h283.5
		C957.4,0,960,2.6,960,5.8z"/>
	<path id="XMLID_7_" class="st3" d="M910.1,470.6H50c-3.3,0-6-2.7-6-6V95.9c0-3.3,2.7-6,6-6h860c3.3,0,6,2.7,6,6v368.7
		C916.1,467.9,913.4,470.6,910.1,470.6z"/>
</g>
<g id="XMLID_10_">
	<g id="XMLID_9_" class="st4">
		<path id="XMLID_102_" class="st2" d="M1.3,69.8l0.4,0.4c1.7,1.7,4.5,1.7,6.2,0l12.8-12.8c1.7-1.7,1.7-4.5,0-6.2l-0.4-0.4
			c-1.7-1.7-4.5-1.7-6.2,0L1.3,63.5C-0.4,65.3-0.4,68,1.3,69.8z"/>
		<path id="XMLID_99_" class="st2" d="M24,213.9l0.4,0.4c1.7,1.7,4.5,1.7,6.2,0l12.8-12.8c1.7-1.7,1.7-4.5,0-6.2l-0.4-0.4
			c-1.7-1.7-4.5-1.7-6.2,0L24,207.7C22.3,209.4,22.3,212.2,24,213.9z"/>
		<path id="XMLID_96_" class="st2" d="M204.2,202.3L204.2,202.3c1.1,1.1,2.9,1.1,3.9,0l6.4-6.4c1.1-1.1,1.1-2.9,0-3.9l0,0
			c-1.1-1.1-2.9-1.1-3.9,0l-6.4,6.4C203.1,199.5,203.1,201.3,204.2,202.3z"/>
		<path id="XMLID_93_" class="st2" d="M179.4,238.1l0.1,0.1c0.2,0.2,0.5,0.2,0.7,0l43.3-43.3c0.2-0.2,0.2-0.5,0-0.7l-0.1-0.1
			c-0.2-0.2-0.5-0.2-0.7,0l-43.3,43.3C179.2,237.6,179.2,238,179.4,238.1z"/>
		<path id="XMLID_90_" class="st2" d="M261.3,0l-22.5,22.5c-1.1,1.1-2.9,1.1-3.9,0c-1.1-1.1-1.1-2.9,0-3.9L253.4,0H261.3z"/>
		<path id="XMLID_87_" class="st2" d="M290.3,64L290.3,64c1.3,1.3,3.3,1.3,4.6,0l6.8-6.8c1.3-1.3,1.3-3.3,0-4.6v0
			c-1.3-1.3-3.3-1.3-4.6,0l-6.8,6.8C289,60.7,289,62.7,290.3,64z"/>
		<path id="XMLID_84_" class="st2" d="M275,120.4L275,120.4c1.2,1.2,3.2,1.2,4.3,0l23.8-23.8c1.2-1.2,1.2-3.2,0-4.3l0,0
			c-1.2-1.2-3.2-1.2-4.3,0L275,116C273.8,117.2,273.8,119.2,275,120.4z"/>
		<path id="XMLID_81_" class="st2" d="M309.4,177.2L309.4,177.2c1.2,1.2,3.2,1.2,4.3,0L330,161c1.2-1.2,1.2-3.2,0-4.3l0,0
			c-1.2-1.2-3.2-1.2-4.3,0l-16.2,16.2C308.2,174,308.2,176,309.4,177.2z"/>
		<path id="XMLID_78_" class="st2" d="M294.2,0l-56.1,56.1c-0.2,0.2-0.6,0.2-0.8,0l0,0c-0.2-0.2-0.2-0.6,0-0.8L292.6,0H294.2z"/>
		<path id="XMLID_75_" class="st2" d="M117.4,4.9L61.6,60.8c-2.2,2.2-5.7,2.2-7.8,0c-2.2-2.2-2.2-5.7,0-7.8L106.7,0H119
			C119.3,1.7,118.8,3.6,117.4,4.9z"/>
		<path id="XMLID_72_" class="st2" d="M25.9,108.6L25.9,108.6c0.4,0.4,1.2,0.4,1.6,0l30.2-30.2c0.4-0.4,0.4-1.2,0-1.6l0,0
			c-0.4-0.4-1.2-0.4-1.6,0L25.9,107C25.5,107.5,25.5,108.2,25.9,108.6z"/>
		<path id="XMLID_69_" class="st2" d="M50,170.5L50,170.5c0.2,0.2,0.6,0.2,0.8,0l63-63c0.2-0.2,0.2-0.6,0-0.8l0,0
			c-0.2-0.2-0.6-0.2-0.8,0l-63,63C49.8,170,49.8,170.3,50,170.5z"/>
		<path id="XMLID_66_" class="st2" d="M119.3,95.9l0.1,0.1c8.6,8.6,22.7,8.6,31.4,0l58-58c8.6-8.6,8.6-22.7,0-31.4l-0.1-0.1
			c-8.6-8.6-22.7-8.6-31.4,0l-58,58C110.6,73.2,110.6,87.3,119.3,95.9z"/>
		<path id="XMLID_63_" class="st2" d="M99.9,209.8L99.9,209.8c4.9,4.9,12.9,4.9,17.8,0l103.9-103.9c4.9-4.9,4.9-12.9,0-17.8l0,0
			c-4.9-4.9-12.9-4.9-17.8,0L99.9,192C95,196.9,95,204.9,99.9,209.8z"/>
		<path id="XMLID_60_" class="st2" d="M401.7,0c-0.7,2.3-2,4.4-3.8,6.2l-41.1,41.1c-6,6-15.8,6-21.8,0c-6-6-6-15.8,0-21.8L360.6,0
			H401.7z"/>
	</g>
	<g id="XMLID_8_" class="st4">
		<path id="XMLID_56_" class="st1" d="M603.7,69.8l0.4,0.4c1.7,1.7,4.5,1.7,6.2,0l12.8-12.8c1.7-1.7,1.7-4.5,0-6.2l-0.4-0.4
			c-1.7-1.7-4.5-1.7-6.2,0l-12.8,12.8C602,65.3,602,68,603.7,69.8z"/>
		<path id="XMLID_53_" class="st1" d="M626.4,213.9l0.4,0.4c1.7,1.7,4.5,1.7,6.2,0l12.8-12.8c1.7-1.7,1.7-4.5,0-6.2l-0.4-0.4
			c-1.7-1.7-4.5-1.7-6.2,0l-12.8,12.8C624.7,209.4,624.7,212.2,626.4,213.9z"/>
		<path id="XMLID_50_" class="st1" d="M806.6,202.3L806.6,202.3c1.1,1.1,2.9,1.1,3.9,0l6.4-6.4c1.1-1.1,1.1-2.9,0-3.9l0,0
			c-1.1-1.1-2.9-1.1-3.9,0l-6.4,6.4C805.6,199.5,805.6,201.3,806.6,202.3z"/>
		<path id="XMLID_47_" class="st1" d="M781.9,238.1l0.1,0.1c0.2,0.2,0.5,0.2,0.7,0l43.3-43.3c0.2-0.2,0.2-0.5,0-0.7l-0.1-0.1
			c-0.2-0.2-0.5-0.2-0.7,0l-43.3,43.3C781.7,237.6,781.7,238,781.9,238.1z"/>
		<path id="XMLID_44_" class="st1" d="M863.7,0l-22.5,22.5c-1.1,1.1-2.9,1.1-3.9,0c-1.1-1.1-1.1-2.9,0-3.9L855.9,0H863.7z"/>
		<path id="XMLID_41_" class="st1" d="M892.7,64L892.7,64c1.3,1.3,3.3,1.3,4.6,0l6.8-6.8c1.3-1.3,1.3-3.3,0-4.6v0
			c-1.3-1.3-3.3-1.3-4.6,0l-6.8,6.8C891.4,60.7,891.4,62.7,892.7,64z"/>
		<path id="XMLID_38_" class="st1" d="M877.4,120.4L877.4,120.4c1.2,1.2,3.2,1.2,4.3,0l23.8-23.8c1.2-1.2,1.2-3.2,0-4.3v0
			c-1.2-1.2-3.2-1.2-4.3,0L877.4,116C876.2,117.2,876.2,119.2,877.4,120.4z"/>
		<path id="XMLID_35_" class="st1" d="M911.9,177.2L911.9,177.2c1.2,1.2,3.2,1.2,4.3,0l16.2-16.2c1.2-1.2,1.2-3.2,0-4.3l0,0
			c-1.2-1.2-3.2-1.2-4.3,0l-16.2,16.2C910.7,174,910.7,176,911.9,177.2z"/>
		<path id="XMLID_32_" class="st1" d="M896.6,0l-56.1,56.1c-0.2,0.2-0.6,0.2-0.8,0l0,0c-0.2-0.2-0.2-0.6,0-0.8L895,0H896.6z"/>
		<path id="XMLID_29_" class="st1" d="M719.9,4.9L664,60.8c-2.2,2.2-5.7,2.2-7.8,0c-2.2-2.2-2.2-5.7,0-7.8L709.1,0h12.3
			C721.7,1.7,721.2,3.6,719.9,4.9z"/>
		<path id="XMLID_26_" class="st1" d="M628.4,108.6L628.4,108.6c0.4,0.4,1.2,0.4,1.6,0l30.2-30.2c0.4-0.4,0.4-1.2,0-1.6l0,0
			c-0.4-0.4-1.2-0.4-1.6,0L628.4,107C627.9,107.5,627.9,108.2,628.4,108.6z"/>
		<path id="XMLID_23_" class="st1" d="M652.5,170.5L652.5,170.5c0.2,0.2,0.6,0.2,0.8,0l63-63c0.2-0.2,0.2-0.6,0-0.8l0,0
			c-0.2-0.2-0.6-0.2-0.8,0l-63,63C652.2,170,652.2,170.3,652.5,170.5z"/>
		<path id="XMLID_20_" class="st1" d="M721.7,95.9l0.1,0.1c8.6,8.6,22.7,8.6,31.4,0l58-58c8.6-8.6,8.6-22.7,0-31.4l-0.1-0.1
			c-8.6-8.6-22.7-8.6-31.4,0l-58,58C713.1,73.2,713.1,87.3,721.7,95.9z"/>
		<path id="XMLID_15_" class="st1" d="M702.3,209.8L702.3,209.8c4.9,4.9,12.9,4.9,17.8,0L824,105.9c4.9-4.9,4.9-12.9,0-17.8l0,0
			c-4.9-4.9-12.9-4.9-17.8,0L702.3,192C697.4,196.9,697.4,204.9,702.3,209.8z"/>
		<path id="XMLID_12_" class="st1" d="M960,3v43.6l-0.7,0.7c-6,6-15.8,6-21.8,0c-6-6-6-15.8,0-21.8L960,3z"/>
	</g>
</g>
<g id="XMLID_11_">
	<g id="XMLID_171_" class="st4">
		<g id="XMLID_440_">
			<g id="XMLID_469_">
				<path id="XMLID_470_" class="st1" d="M958.7,490.2l-0.4-0.4c-1.7-1.7-4.5-1.7-6.2,0l-12.8,12.8c-1.7,1.7-1.7,4.5,0,6.2l0.4,0.4
					c1.7,1.7,4.5,1.7,6.2,0l12.8-12.8C960.4,494.7,960.4,492,958.7,490.2z"/>
			</g>
			<g id="XMLID_467_">
				<path id="XMLID_468_" class="st1" d="M936,346.1l-0.4-0.4c-1.7-1.7-4.5-1.7-6.2,0l-12.8,12.8c-1.7,1.7-1.7,4.5,0,6.2l0.4,0.4
					c1.7,1.7,4.5,1.7,6.2,0l12.8-12.8C937.7,350.6,937.7,347.8,936,346.1z"/>
			</g>
			<g id="XMLID_465_">
				<path id="XMLID_466_" class="st1" d="M755.8,357.7L755.8,357.7c-1.1-1.1-2.9-1.1-3.9,0l-6.4,6.4c-1.1,1.1-1.1,2.9,0,3.9l0,0
					c1.1,1.1,2.9,1.1,3.9,0l6.4-6.4C756.9,360.5,756.9,358.7,755.8,357.7z"/>
			</g>
			<g id="XMLID_463_">
				<path id="XMLID_464_" class="st1" d="M780.6,321.9l-0.1-0.1c-0.2-0.2-0.5-0.2-0.7,0l-43.3,43.3c-0.2,0.2-0.2,0.5,0,0.7l0.1,0.1
					c0.2,0.2,0.5,0.2,0.7,0l43.3-43.3C780.8,322.4,780.8,322,780.6,321.9z"/>
			</g>
			<g id="XMLID_461_">
				<path id="XMLID_462_" class="st1" d="M698.7,560l22.5-22.5c1.1-1.1,2.9-1.1,3.9,0s1.1,2.9,0,3.9L706.6,560H698.7z"/>
			</g>
			<g id="XMLID_459_">
				<path id="XMLID_460_" class="st1" d="M669.7,496L669.7,496c-1.3-1.3-3.3-1.3-4.6,0l-6.8,6.8c-1.3,1.3-1.3,3.3,0,4.6l0,0
					c1.3,1.3,3.3,1.3,4.6,0l6.8-6.8C671,499.3,671,497.3,669.7,496z"/>
			</g>
			<g id="XMLID_457_">
				<path id="XMLID_458_" class="st1" d="M685,439.6L685,439.6c-1.2-1.2-3.2-1.2-4.3,0l-23.8,23.8c-1.2,1.2-1.2,3.2,0,4.3l0,0
					c1.2,1.2,3.2,1.2,4.3,0L685,444C686.2,442.8,686.2,440.8,685,439.6z"/>
			</g>
			<g id="XMLID_455_">
				<path id="XMLID_456_" class="st1" d="M650.6,382.8L650.6,382.8c-1.2-1.2-3.2-1.2-4.3,0L630,399c-1.2,1.2-1.2,3.2,0,4.3l0,0
					c1.2,1.2,3.2,1.2,4.3,0l16.2-16.2C651.8,386,651.8,384,650.6,382.8z"/>
			</g>
			<g id="XMLID_453_">
				<path id="XMLID_454_" class="st1" d="M665.8,560l56.1-56.1c0.2-0.2,0.6-0.2,0.8,0l0,0c0.2,0.2,0.2,0.6,0,0.8L667.4,560H665.8z"
					/>
			</g>
			<g id="XMLID_451_">
				<path id="XMLID_452_" class="st1" d="M842.6,555.1l55.9-55.9c2.2-2.2,5.7-2.2,7.8,0c2.2,2.2,2.2,5.7,0,7.8L853.3,560H841
					C840.7,558.3,841.2,556.4,842.6,555.1z"/>
			</g>
			<g id="XMLID_449_">
				<path id="XMLID_450_" class="st1" d="M934.1,451.4L934.1,451.4c-0.4-0.4-1.2-0.4-1.6,0l-30.2,30.2c-0.4,0.4-0.4,1.2,0,1.6l0,0
					c0.4,0.4,1.2,0.4,1.6,0l30.2-30.2C934.5,452.5,934.5,451.8,934.1,451.4z"/>
			</g>
			<g id="XMLID_447_">
				<path id="XMLID_448_" class="st1" d="M910,389.5L910,389.5c-0.2-0.2-0.6-0.2-0.8,0l-63,63c-0.2,0.2-0.2,0.6,0,0.8l0,0
					c0.2,0.2,0.6,0.2,0.8,0l63-63C910.2,390,910.2,389.7,910,389.5z"/>
			</g>
			<g id="XMLID_445_">
				<path id="XMLID_446_" class="st1" d="M840.7,464.1l-0.1-0.1c-8.6-8.6-22.7-8.6-31.4,0l-58,58c-8.6,8.6-8.6,22.7,0,31.4l0.1,0.1
					c8.6,8.6,22.7,8.6,31.4,0l58-58C849.4,486.8,849.4,472.7,840.7,464.1z"/>
			</g>
			<g id="XMLID_443_">
				<path id="XMLID_444_" class="st1" d="M860.1,350.2L860.1,350.2c-4.9-4.9-12.9-4.9-17.8,0L738.4,454.1c-4.9,4.9-4.9,12.9,0,17.8
					l0,0c4.9,4.9,12.9,4.9,17.8,0L860.1,368C865,363.1,865,355.1,860.1,350.2z"/>
			</g>
			<g id="XMLID_441_">
				<path id="XMLID_442_" class="st1" d="M558.3,560c0.7-2.3,2-4.4,3.8-6.2l41.1-41.1c6-6,15.8-6,21.8,0c6,6,6,15.8,0,21.8
					L599.4,560H558.3z"/>
			</g>
		</g>
	</g>
	<g id="XMLID_13_" class="st4">
		<path id="XMLID_168_" class="st2" d="M356.3,490.2l-0.4-0.4c-1.7-1.7-4.5-1.7-6.2,0l-12.8,12.8c-1.7,1.7-1.7,4.5,0,6.2l0.4,0.4
			c1.7,1.7,4.5,1.7,6.2,0l12.8-12.8C358,494.7,358,492,356.3,490.2z"/>
		<path id="XMLID_165_" class="st2" d="M333.6,346.1l-0.4-0.4c-1.7-1.7-4.5-1.7-6.2,0l-12.8,12.8c-1.7,1.7-1.7,4.5,0,6.2l0.4,0.4
			c1.7,1.7,4.5,1.7,6.2,0l12.8-12.8C335.3,350.6,335.3,347.8,333.6,346.1z"/>
		<path id="XMLID_162_" class="st2" d="M153.4,357.7L153.4,357.7c-1.1-1.1-2.9-1.1-3.9,0l-6.4,6.4c-1.1,1.1-1.1,2.9,0,3.9l0,0
			c1.1,1.1,2.9,1.1,3.9,0l6.4-6.4C154.4,360.5,154.4,358.7,153.4,357.7z"/>
		<path id="XMLID_159_" class="st2" d="M178.1,321.9l-0.1-0.1c-0.2-0.2-0.5-0.2-0.7,0L134,365.1c-0.2,0.2-0.2,0.5,0,0.7l0.1,0.1
			c0.2,0.2,0.5,0.2,0.7,0l43.3-43.3C178.3,322.4,178.3,322,178.1,321.9z"/>
		<path id="XMLID_156_" class="st2" d="M96.3,560l22.5-22.5c1.1-1.1,2.9-1.1,3.9,0c1.1,1.1,1.1,2.9,0,3.9L104.1,560H96.3z"/>
		<path id="XMLID_153_" class="st2" d="M67.3,496L67.3,496c-1.3-1.3-3.3-1.3-4.6,0l-6.8,6.8c-1.3,1.3-1.3,3.3,0,4.6h0
			c1.3,1.3,3.3,1.3,4.6,0l6.8-6.8C68.6,499.3,68.6,497.3,67.3,496z"/>
		<path id="XMLID_150_" class="st2" d="M82.6,439.6L82.6,439.6c-1.2-1.2-3.2-1.2-4.3,0l-23.8,23.8c-1.2,1.2-1.2,3.2,0,4.3h0
			c1.2,1.2,3.2,1.2,4.3,0L82.6,444C83.8,442.8,83.8,440.8,82.6,439.6z"/>
		<path id="XMLID_130_" class="st2" d="M48.1,382.8L48.1,382.8c-1.2-1.2-3.2-1.2-4.3,0L27.6,399c-1.2,1.2-1.2,3.2,0,4.3h0
			c1.2,1.2,3.2,1.2,4.3,0l16.2-16.2C49.3,386,49.3,384,48.1,382.8z"/>
		<path id="XMLID_127_" class="st2" d="M63.4,560l56.1-56.1c0.2-0.2,0.6-0.2,0.8,0l0,0c0.2,0.2,0.2,0.6,0,0.8L65,560H63.4z"/>
		<path id="XMLID_124_" class="st2" d="M240.1,555.1l55.9-55.9c2.2-2.2,5.7-2.2,7.8,0c2.2,2.2,2.2,5.7,0,7.8L250.9,560h-12.3
			C238.3,558.3,238.8,556.4,240.1,555.1z"/>
		<path id="XMLID_121_" class="st2" d="M331.6,451.4L331.6,451.4c-0.4-0.4-1.2-0.4-1.6,0l-30.2,30.2c-0.4,0.4-0.4,1.2,0,1.6l0,0
			c0.4,0.4,1.2,0.4,1.6,0l30.2-30.2C332.1,452.5,332.1,451.8,331.6,451.4z"/>
		<path id="XMLID_118_" class="st2" d="M307.5,389.5L307.5,389.5c-0.2-0.2-0.6-0.2-0.8,0l-63,63c-0.2,0.2-0.2,0.6,0,0.8l0,0
			c0.2,0.2,0.6,0.2,0.8,0l63-63C307.8,390,307.8,389.7,307.5,389.5z"/>
		<path id="XMLID_114_" class="st2" d="M238.3,464.1l-0.1-0.1c-8.6-8.6-22.7-8.6-31.4,0l-58,58c-8.6,8.6-8.6,22.7,0,31.4l0.1,0.1
			c8.6,8.6,22.7,8.6,31.4,0l58-58C246.9,486.8,246.9,472.7,238.3,464.1z"/>
		<path id="XMLID_21_" class="st2" d="M257.7,350.2L257.7,350.2c-4.9-4.9-12.9-4.9-17.8,0L136,454.1c-4.9,4.9-4.9,12.9,0,17.8l0,0
			c4.9,4.9,12.9,4.9,17.8,0L257.7,368C262.6,363.1,262.6,355.1,257.7,350.2z"/>
		<path id="XMLID_14_" class="st2" d="M0,557l0-43.6l0.7-0.7c6-6,15.8-6,21.8,0c6,6,6,15.8,0,21.8L0,557z"/>
	</g>
</g>
<g id="XMLID_6_" class="st5">
	<path id="XMLID_18_" class="st6" d="M808,5.8v270.3L556.8,560h-38.1c-48.1,0-87.6-39-87.6-87.1V87.1C431,39,470.5,0,518.6,0h283.5
		C805.4,0,808,2.6,808,5.8z"/>
	<path id="XMLID_4_" class="st7" d="M758.3,470.6H160.4c-3.2,0-5.8-2.6-5.8-5.8V95.6c0-3.2,2.6-5.8,5.8-5.8h597.9
		c3.2,0,5.8,2.6,5.8,5.8v369.2C764.1,468,761.5,470.6,758.3,470.6z"/>
</g>
</svg>
