<?xml version="1.0" encoding="utf-8"?>
<!-- Generator: Adobe Illustrator 19.0.0, SVG Export Plug-In . SVG Version: 6.00 Build 0)  -->
<svg version="1.1" id="Layer_1" xmlns="http://www.w3.org/2000/svg" xmlns:xlink="http://www.w3.org/1999/xlink" x="0px" y="0px"
	 viewBox="0 0 960 560" style="enable-background:new 0 0 960 560;" xml:space="preserve">
<style type="text/css">
	.Drop_x0020_Shadow{fill:none;}
	.Outer_x0020_Glow_x0020_5_x0020_pt{fill:none;}
	.Blue_x0020_Neon{fill:none;stroke:#8AACDA;stroke-width:7;stroke-linecap:round;stroke-linejoin:round;}
	.Chrome_x0020_Highlight{fill:url(#SVGID_1_);stroke:#FFFFFF;stroke-width:0.3629;stroke-miterlimit:1;}
	.Jive_GS{fill:#FFDD00;}
	.Alyssa_GS{fill:#A6D0E4;}
	.st0{display:none;fill:url(#XMLID_4_);}
	.st1{fill:#B7B7B7;}
	.st2{opacity:0.1;}
	.st3{fill:#EF7D1B;}
	.st4{fill:#F7F8FC;}
	.st5{opacity:0.75;fill:#EF7D1B;}
	.st6{opacity:0.15;}
	.st7{fill:#181E13;}
	.st8{fill:#3C3129;}
	.st9{fill:#B36843;}
	.st10{fill:none;stroke:#181E13;stroke-miterlimit:10;}
	.st11{fill:#ABB09B;}
	.st12{fill:#3D3E28;}
	.st13{fill:#B5C2B4;}
	.st14{fill:#3A4039;}
	.st15{opacity:0.5;}
	.st16{fill:#968F6F;}
	.st17{fill:#504C46;}
	.st18{fill:none;stroke:#000000;stroke-miterlimit:10;}
	.st19{fill:#D8D7C7;}
	.st20{fill:#FF0808;}
	.st21{fill:#1D322B;}
	.st22{fill:#FFFFFF;}
	.st23{fill:#181E13;stroke:#181E13;stroke-miterlimit:10;}
</style>
<linearGradient id="SVGID_1_" gradientUnits="userSpaceOnUse" x1="0" y1="0" x2="4.489659e-011" y2="-1">
	<stop  offset="0" style="stop-color:#656565"/>
	<stop  offset="0.618" style="stop-color:#1B1B1B"/>
	<stop  offset="0.6292" style="stop-color:#545454"/>
	<stop  offset="0.9831" style="stop-color:#3E3E3E"/>
</linearGradient>
<linearGradient id="XMLID_4_" gradientUnits="userSpaceOnUse" x1="0" y1="280" x2="960" y2="280">
	<stop  offset="0" style="stop-color:#F9CB10"/>
	<stop  offset="0.1667" style="stop-color:#EF7D1B"/>
	<stop  offset="0.3333" style="stop-color:#E8423F"/>
	<stop  offset="0.5" style="stop-color:#A81D6B"/>
	<stop  offset="0.6667" style="stop-color:#1895AA"/>
	<stop  offset="0.8333" style="stop-color:#99C440"/>
	<stop  offset="1" style="stop-color:#F9CB10"/>
</linearGradient>
<rect id="XMLID_2_" class="st0" width="960" height="560"/>
<rect id="XMLID_1_" class="st1" width="960" height="560"/>
<g id="XMLID_11_">
	<g id="XMLID_843_">
		<g id="XMLID_875_" class="st2">
			<g id="XMLID_876_">
				<g id="XMLID_905_">
					<path id="XMLID_906_" class="st3" d="M958.7,490.2l-0.4-0.4c-1.7-1.7-4.5-1.7-6.2,0l-12.8,12.8c-1.7,1.7-1.7,4.5,0,6.2l0.4,0.4
						c1.7,1.7,4.5,1.7,6.2,0l12.8-12.8C960.4,494.7,960.4,492,958.7,490.2z"/>
				</g>
				<g id="XMLID_903_">
					<path id="XMLID_904_" class="st3" d="M936,346.1l-0.4-0.4c-1.7-1.7-4.5-1.7-6.2,0l-12.8,12.8c-1.7,1.7-1.7,4.5,0,6.2l0.4,0.4
						c1.7,1.7,4.5,1.7,6.2,0l12.8-12.8C937.7,350.6,937.7,347.8,936,346.1z"/>
				</g>
				<g id="XMLID_901_">
					<path id="XMLID_902_" class="st3" d="M755.8,357.7L755.8,357.7c-1.1-1.1-2.9-1.1-3.9,0l-6.4,6.4c-1.1,1.1-1.1,2.9,0,3.9l0,0
						c1.1,1.1,2.9,1.1,3.9,0l6.4-6.4C756.9,360.5,756.9,358.7,755.8,357.7z"/>
				</g>
				<g id="XMLID_899_">
					<path id="XMLID_900_" class="st3" d="M780.6,321.9l-0.1-0.1c-0.2-0.2-0.5-0.2-0.7,0l-43.3,43.3c-0.2,0.2-0.2,0.5,0,0.7l0.1,0.1
						c0.2,0.2,0.5,0.2,0.7,0l43.3-43.3C780.8,322.4,780.8,322,780.6,321.9z"/>
				</g>
				<g id="XMLID_897_">
					<path id="XMLID_898_" class="st3" d="M698.7,560l22.5-22.5c1.1-1.1,2.9-1.1,3.9,0s1.1,2.9,0,3.9L706.6,560H698.7z"/>
				</g>
				<g id="XMLID_895_">
					<path id="XMLID_896_" class="st3" d="M669.7,496L669.7,496c-1.3-1.3-3.3-1.3-4.6,0l-6.8,6.8c-1.3,1.3-1.3,3.3,0,4.6l0,0
						c1.3,1.3,3.3,1.3,4.6,0l6.8-6.8C671,499.3,671,497.3,669.7,496z"/>
				</g>
				<g id="XMLID_893_">
					<path id="XMLID_894_" class="st3" d="M685,439.6L685,439.6c-1.2-1.2-3.2-1.2-4.3,0l-23.8,23.8c-1.2,1.2-1.2,3.2,0,4.3l0,0
						c1.2,1.2,3.2,1.2,4.3,0L685,444C686.2,442.8,686.2,440.8,685,439.6z"/>
				</g>
				<g id="XMLID_891_">
					<path id="XMLID_892_" class="st3" d="M650.6,382.8L650.6,382.8c-1.2-1.2-3.2-1.2-4.3,0L630,399c-1.2,1.2-1.2,3.2,0,4.3l0,0
						c1.2,1.2,3.2,1.2,4.3,0l16.2-16.2C651.8,386,651.8,384,650.6,382.8z"/>
				</g>
				<g id="XMLID_889_">
					<path id="XMLID_890_" class="st3" d="M665.8,560l56.1-56.1c0.2-0.2,0.6-0.2,0.8,0l0,0c0.2,0.2,0.2,0.6,0,0.8L667.4,560H665.8z"
						/>
				</g>
				<g id="XMLID_887_">
					<path id="XMLID_888_" class="st3" d="M842.6,555.1l55.9-55.9c2.2-2.2,5.7-2.2,7.8,0c2.2,2.2,2.2,5.7,0,7.8L853.3,560H841
						C840.7,558.3,841.2,556.4,842.6,555.1z"/>
				</g>
				<g id="XMLID_885_">
					<path id="XMLID_886_" class="st3" d="M934.1,451.4L934.1,451.4c-0.4-0.4-1.2-0.4-1.6,0l-30.2,30.2c-0.4,0.4-0.4,1.2,0,1.6l0,0
						c0.4,0.4,1.2,0.4,1.6,0l30.2-30.2C934.5,452.5,934.5,451.8,934.1,451.4z"/>
				</g>
				<g id="XMLID_883_">
					<path id="XMLID_884_" class="st3" d="M910,389.5L910,389.5c-0.2-0.2-0.6-0.2-0.8,0l-63,63c-0.2,0.2-0.2,0.6,0,0.8l0,0
						c0.2,0.2,0.6,0.2,0.8,0l63-63C910.2,390,910.2,389.7,910,389.5z"/>
				</g>
				<g id="XMLID_881_">
					<path id="XMLID_882_" class="st3" d="M840.7,464.1l-0.1-0.1c-8.6-8.6-22.7-8.6-31.4,0l-58,58c-8.6,8.6-8.6,22.7,0,31.4l0.1,0.1
						c8.6,8.6,22.7,8.6,31.4,0l58-58C849.4,486.8,849.4,472.7,840.7,464.1z"/>
				</g>
				<g id="XMLID_879_">
					<path id="XMLID_880_" class="st3" d="M860.1,350.2L860.1,350.2c-4.9-4.9-12.9-4.9-17.8,0L738.4,454.1c-4.9,4.9-4.9,12.9,0,17.8
						l0,0c4.9,4.9,12.9,4.9,17.8,0L860.1,368C865,363.1,865,355.1,860.1,350.2z"/>
				</g>
				<g id="XMLID_877_">
					<path id="XMLID_878_" class="st3" d="M558.3,560c0.7-2.3,2-4.4,3.8-6.2l41.1-41.1c6-6,15.8-6,21.8,0c6,6,6,15.8,0,21.8
						L599.4,560H558.3z"/>
				</g>
			</g>
		</g>
		<g id="XMLID_844_" class="st2">
			<g id="XMLID_873_">
				<path id="XMLID_874_" class="st3" d="M603.7,69.8l0.4,0.4c1.7,1.7,4.5,1.7,6.2,0l12.8-12.8c1.7-1.7,1.7-4.5,0-6.2l-0.4-0.4
					c-1.7-1.7-4.5-1.7-6.2,0l-12.8,12.8C602,65.3,602,68,603.7,69.8z"/>
			</g>
			<g id="XMLID_871_">
				<path id="XMLID_872_" class="st3" d="M626.4,213.9l0.4,0.4c1.7,1.7,4.5,1.7,6.2,0l12.8-12.8c1.7-1.7,1.7-4.5,0-6.2l-0.4-0.4
					c-1.7-1.7-4.5-1.7-6.2,0l-12.8,12.8C624.7,209.4,624.7,212.2,626.4,213.9z"/>
			</g>
			<g id="XMLID_869_">
				<path id="XMLID_870_" class="st3" d="M806.6,202.3L806.6,202.3c1.1,1.1,2.9,1.1,3.9,0l6.4-6.4c1.1-1.1,1.1-2.9,0-3.9l0,0
					c-1.1-1.1-2.9-1.1-3.9,0l-6.4,6.4C805.6,199.5,805.6,201.3,806.6,202.3z"/>
			</g>
			<g id="XMLID_867_">
				<path id="XMLID_868_" class="st3" d="M781.9,238.1l0.1,0.1c0.2,0.2,0.5,0.2,0.7,0l43.3-43.3c0.2-0.2,0.2-0.5,0-0.7l-0.1-0.1
					c-0.2-0.2-0.5-0.2-0.7,0l-43.3,43.3C781.7,237.6,781.7,238,781.9,238.1z"/>
			</g>
			<g id="XMLID_865_">
				<path id="XMLID_866_" class="st3" d="M863.7,0l-22.5,22.5c-1.1,1.1-2.9,1.1-3.9,0c-1.1-1.1-1.1-2.9,0-3.9L855.9,0H863.7z"/>
			</g>
			<g id="XMLID_863_">
				<path id="XMLID_864_" class="st3" d="M892.7,64L892.7,64c1.3,1.3,3.3,1.3,4.6,0l6.8-6.8c1.3-1.3,1.3-3.3,0-4.6v0
					c-1.3-1.3-3.3-1.3-4.6,0l-6.8,6.8C891.4,60.7,891.4,62.7,892.7,64z"/>
			</g>
			<g id="XMLID_861_">
				<path id="XMLID_862_" class="st3" d="M877.4,120.4L877.4,120.4c1.2,1.2,3.2,1.2,4.3,0l23.8-23.8c1.2-1.2,1.2-3.2,0-4.3v0
					c-1.2-1.2-3.2-1.2-4.3,0L877.4,116C876.2,117.2,876.2,119.2,877.4,120.4z"/>
			</g>
			<g id="XMLID_859_">
				<path id="XMLID_860_" class="st3" d="M911.9,177.2L911.9,177.2c1.2,1.2,3.2,1.2,4.3,0l16.2-16.2c1.2-1.2,1.2-3.2,0-4.3l0,0
					c-1.2-1.2-3.2-1.2-4.3,0l-16.2,16.2C910.7,174,910.7,176,911.9,177.2z"/>
			</g>
			<g id="XMLID_857_">
				<path id="XMLID_858_" class="st3" d="M896.6,0l-56.1,56.1c-0.2,0.2-0.6,0.2-0.8,0l0,0c-0.2-0.2-0.2-0.6,0-0.8L895,0H896.6z"/>
			</g>
			<g id="XMLID_855_">
				<path id="XMLID_856_" class="st3" d="M719.9,4.9L664,60.8c-2.2,2.2-5.7,2.2-7.8,0c-2.2-2.2-2.2-5.7,0-7.8L709.1,0h12.3
					C721.7,1.7,721.2,3.6,719.9,4.9z"/>
			</g>
			<g id="XMLID_853_">
				<path id="XMLID_854_" class="st3" d="M628.4,108.6L628.4,108.6c0.4,0.4,1.2,0.4,1.6,0l30.2-30.2c0.4-0.4,0.4-1.2,0-1.6l0,0
					c-0.4-0.4-1.2-0.4-1.6,0L628.4,107C627.9,107.5,627.9,108.2,628.4,108.6z"/>
			</g>
			<g id="XMLID_851_">
				<path id="XMLID_852_" class="st3" d="M652.5,170.5L652.5,170.5c0.2,0.2,0.6,0.2,0.8,0l63-63c0.2-0.2,0.2-0.6,0-0.8l0,0
					c-0.2-0.2-0.6-0.2-0.8,0l-63,63C652.2,170,652.2,170.3,652.5,170.5z"/>
			</g>
			<g id="XMLID_849_">
				<path id="XMLID_850_" class="st3" d="M721.7,95.9l0.1,0.1c8.6,8.6,22.7,8.6,31.4,0l58-58c8.6-8.6,8.6-22.7,0-31.4l-0.1-0.1
					c-8.6-8.6-22.7-8.6-31.4,0l-58,58C713.1,73.2,713.1,87.3,721.7,95.9z"/>
			</g>
			<g id="XMLID_847_">
				<path id="XMLID_848_" class="st3" d="M702.3,209.8L702.3,209.8c4.9,4.9,12.9,4.9,17.8,0L824,105.9c4.9-4.9,4.9-12.9,0-17.8l0,0
					c-4.9-4.9-12.9-4.9-17.8,0L702.3,192C697.4,196.9,697.4,204.9,702.3,209.8z"/>
			</g>
			<g id="XMLID_845_">
				<path id="XMLID_846_" class="st3" d="M960,3v43.6l-0.7,0.7c-6,6-15.8,6-21.8,0c-6-6-6-15.8,0-21.8L960,3z"/>
			</g>
		</g>
	</g>
</g>
<g id="XMLID_5_">
	<path id="XMLID_16_" class="st3" d="M0,5.8l0,270.3L251.2,560h38.1c48.1,0,87.6-39,87.6-87.1V87.1C377,39,337.5,0,289.4,0L5.8,0
		C2.6,0,0,2.6,0,5.8z"/>
	<path id="XMLID_7_" class="st4" d="M910.1,470.6H50c-3.3,0-6-2.7-6-6V95.9c0-3.3,2.7-6,6-6h860c3.3,0,6,2.7,6,6v368.7
		C916.1,467.9,913.4,470.6,910.1,470.6z"/>
</g>
<g id="XMLID_10_">
	<g id="XMLID_9_" class="st2">
		<path id="XMLID_102_" class="st1" d="M1.3,69.8l0.4,0.4c1.7,1.7,4.5,1.7,6.2,0l12.8-12.8c1.7-1.7,1.7-4.5,0-6.2l-0.4-0.4
			c-1.7-1.7-4.5-1.7-6.2,0L1.3,63.5C-0.4,65.3-0.4,68,1.3,69.8z"/>
		<path id="XMLID_99_" class="st1" d="M24,213.9l0.4,0.4c1.7,1.7,4.5,1.7,6.2,0l12.8-12.8c1.7-1.7,1.7-4.5,0-6.2l-0.4-0.4
			c-1.7-1.7-4.5-1.7-6.2,0L24,207.7C22.3,209.4,22.3,212.2,24,213.9z"/>
		<path id="XMLID_96_" class="st1" d="M204.2,202.3L204.2,202.3c1.1,1.1,2.9,1.1,3.9,0l6.4-6.4c1.1-1.1,1.1-2.9,0-3.9l0,0
			c-1.1-1.1-2.9-1.1-3.9,0l-6.4,6.4C203.1,199.5,203.1,201.3,204.2,202.3z"/>
		<path id="XMLID_93_" class="st1" d="M179.4,238.1l0.1,0.1c0.2,0.2,0.5,0.2,0.7,0l43.3-43.3c0.2-0.2,0.2-0.5,0-0.7l-0.1-0.1
			c-0.2-0.2-0.5-0.2-0.7,0l-43.3,43.3C179.2,237.6,179.2,238,179.4,238.1z"/>
		<path id="XMLID_90_" class="st1" d="M261.3,0l-22.5,22.5c-1.1,1.1-2.9,1.1-3.9,0c-1.1-1.1-1.1-2.9,0-3.9L253.4,0H261.3z"/>
		<path id="XMLID_87_" class="st1" d="M290.3,64L290.3,64c1.3,1.3,3.3,1.3,4.6,0l6.8-6.8c1.3-1.3,1.3-3.3,0-4.6v0
			c-1.3-1.3-3.3-1.3-4.6,0l-6.8,6.8C289,60.7,289,62.7,290.3,64z"/>
		<path id="XMLID_84_" class="st1" d="M275,120.4L275,120.4c1.2,1.2,3.2,1.2,4.3,0l23.8-23.8c1.2-1.2,1.2-3.2,0-4.3l0,0
			c-1.2-1.2-3.2-1.2-4.3,0L275,116C273.8,117.2,273.8,119.2,275,120.4z"/>
		<path id="XMLID_81_" class="st1" d="M309.4,177.2L309.4,177.2c1.2,1.2,3.2,1.2,4.3,0L330,161c1.2-1.2,1.2-3.2,0-4.3l0,0
			c-1.2-1.2-3.2-1.2-4.3,0l-16.2,16.2C308.2,174,308.2,176,309.4,177.2z"/>
		<path id="XMLID_78_" class="st1" d="M294.2,0l-56.1,56.1c-0.2,0.2-0.6,0.2-0.8,0l0,0c-0.2-0.2-0.2-0.6,0-0.8L292.6,0H294.2z"/>
		<path id="XMLID_75_" class="st1" d="M117.4,4.9L61.6,60.8c-2.2,2.2-5.7,2.2-7.8,0c-2.2-2.2-2.2-5.7,0-7.8L106.7,0H119
			C119.3,1.7,118.8,3.6,117.4,4.9z"/>
		<path id="XMLID_72_" class="st1" d="M25.9,108.6L25.9,108.6c0.4,0.4,1.2,0.4,1.6,0l30.2-30.2c0.4-0.4,0.4-1.2,0-1.6l0,0
			c-0.4-0.4-1.2-0.4-1.6,0L25.9,107C25.5,107.5,25.5,108.2,25.9,108.6z"/>
		<path id="XMLID_69_" class="st1" d="M50,170.5L50,170.5c0.2,0.2,0.6,0.2,0.8,0l63-63c0.2-0.2,0.2-0.6,0-0.8l0,0
			c-0.2-0.2-0.6-0.2-0.8,0l-63,63C49.8,170,49.8,170.3,50,170.5z"/>
		<path id="XMLID_66_" class="st1" d="M119.3,95.9l0.1,0.1c8.6,8.6,22.7,8.6,31.4,0l58-58c8.6-8.6,8.6-22.7,0-31.4l-0.1-0.1
			c-8.6-8.6-22.7-8.6-31.4,0l-58,58C110.6,73.2,110.6,87.3,119.3,95.9z"/>
		<path id="XMLID_63_" class="st1" d="M99.9,209.8L99.9,209.8c4.9,4.9,12.9,4.9,17.8,0l103.9-103.9c4.9-4.9,4.9-12.9,0-17.8l0,0
			c-4.9-4.9-12.9-4.9-17.8,0L99.9,192C95,196.9,95,204.9,99.9,209.8z"/>
		<path id="XMLID_60_" class="st1" d="M401.7,0c-0.7,2.3-2,4.4-3.8,6.2l-41.1,41.1c-6,6-15.8,6-21.8,0c-6-6-6-15.8,0-21.8L360.6,0
			H401.7z"/>
	</g>
	<g id="XMLID_13_" class="st2">
		<path id="XMLID_168_" class="st1" d="M356.3,490.2l-0.4-0.4c-1.7-1.7-4.5-1.7-6.2,0l-12.8,12.8c-1.7,1.7-1.7,4.5,0,6.2l0.4,0.4
			c1.7,1.7,4.5,1.7,6.2,0l12.8-12.8C358,494.7,358,492,356.3,490.2z"/>
		<path id="XMLID_165_" class="st1" d="M333.6,346.1l-0.4-0.4c-1.7-1.7-4.5-1.7-6.2,0l-12.8,12.8c-1.7,1.7-1.7,4.5,0,6.2l0.4,0.4
			c1.7,1.7,4.5,1.7,6.2,0l12.8-12.8C335.3,350.6,335.3,347.8,333.6,346.1z"/>
		<path id="XMLID_162_" class="st1" d="M153.4,357.7L153.4,357.7c-1.1-1.1-2.9-1.1-3.9,0l-6.4,6.4c-1.1,1.1-1.1,2.9,0,3.9l0,0
			c1.1,1.1,2.9,1.1,3.9,0l6.4-6.4C154.4,360.5,154.4,358.7,153.4,357.7z"/>
		<path id="XMLID_159_" class="st1" d="M178.1,321.9l-0.1-0.1c-0.2-0.2-0.5-0.2-0.7,0L134,365.1c-0.2,0.2-0.2,0.5,0,0.7l0.1,0.1
			c0.2,0.2,0.5,0.2,0.7,0l43.3-43.3C178.3,322.4,178.3,322,178.1,321.9z"/>
		<path id="XMLID_156_" class="st1" d="M96.3,560l22.5-22.5c1.1-1.1,2.9-1.1,3.9,0c1.1,1.1,1.1,2.9,0,3.9L104.1,560H96.3z"/>
		<path id="XMLID_153_" class="st1" d="M67.3,496L67.3,496c-1.3-1.3-3.3-1.3-4.6,0l-6.8,6.8c-1.3,1.3-1.3,3.3,0,4.6h0
			c1.3,1.3,3.3,1.3,4.6,0l6.8-6.8C68.6,499.3,68.6,497.3,67.3,496z"/>
		<path id="XMLID_150_" class="st1" d="M82.6,439.6L82.6,439.6c-1.2-1.2-3.2-1.2-4.3,0l-23.8,23.8c-1.2,1.2-1.2,3.2,0,4.3h0
			c1.2,1.2,3.2,1.2,4.3,0L82.6,444C83.8,442.8,83.8,440.8,82.6,439.6z"/>
		<path id="XMLID_130_" class="st1" d="M48.1,382.8L48.1,382.8c-1.2-1.2-3.2-1.2-4.3,0L27.6,399c-1.2,1.2-1.2,3.2,0,4.3h0
			c1.2,1.2,3.2,1.2,4.3,0l16.2-16.2C49.3,386,49.3,384,48.1,382.8z"/>
		<path id="XMLID_127_" class="st1" d="M63.4,560l56.1-56.1c0.2-0.2,0.6-0.2,0.8,0l0,0c0.2,0.2,0.2,0.6,0,0.8L65,560H63.4z"/>
		<path id="XMLID_124_" class="st1" d="M240.1,555.1l55.9-55.9c2.2-2.2,5.7-2.2,7.8,0c2.2,2.2,2.2,5.7,0,7.8L250.9,560h-12.3
			C238.3,558.3,238.8,556.4,240.1,555.1z"/>
		<path id="XMLID_121_" class="st1" d="M331.6,451.4L331.6,451.4c-0.4-0.4-1.2-0.4-1.6,0l-30.2,30.2c-0.4,0.4-0.4,1.2,0,1.6l0,0
			c0.4,0.4,1.2,0.4,1.6,0l30.2-30.2C332.1,452.5,332.1,451.8,331.6,451.4z"/>
		<path id="XMLID_118_" class="st1" d="M307.5,389.5L307.5,389.5c-0.2-0.2-0.6-0.2-0.8,0l-63,63c-0.2,0.2-0.2,0.6,0,0.8l0,0
			c0.2,0.2,0.6,0.2,0.8,0l63-63C307.8,390,307.8,389.7,307.5,389.5z"/>
		<path id="XMLID_114_" class="st1" d="M238.3,464.1l-0.1-0.1c-8.6-8.6-22.7-8.6-31.4,0l-58,58c-8.6,8.6-8.6,22.7,0,31.4l0.1,0.1
			c8.6,8.6,22.7,8.6,31.4,0l58-58C246.9,486.8,246.9,472.7,238.3,464.1z"/>
		<path id="XMLID_21_" class="st1" d="M257.7,350.2L257.7,350.2c-4.9-4.9-12.9-4.9-17.8,0L136,454.1c-4.9,4.9-4.9,12.9,0,17.8l0,0
			c4.9,4.9,12.9,4.9,17.8,0L257.7,368C262.6,363.1,262.6,355.1,257.7,350.2z"/>
		<path id="XMLID_14_" class="st1" d="M0,557l0-43.6l0.7-0.7c6-6,15.8-6,21.8,0c6,6,6,15.8,0,21.8L0,557z"/>
	</g>
</g>
<g id="head">
	<path id="XMLID_17_" class="st5" d="M910.1,470.6H625.4V89.8h284.7c3.3,0,6,2.7,6,6v368.7C916.1,467.9,913.4,470.6,910.1,470.6z"/>
	<path id="XMLID_382_" class="st3" d="M625.4,285.3v185.4h284.7c3.3,0,6-2.7,6-6V293.1h-6.3v37.2l-9.8,4.4V311h-7v-70.4H868V311
		h-8.6v27.6h-5.4V290h-14.3v-5.5h-6.9v5.5h-5.2v41l-7.2-3.2v-28.2h-3V290h-6.9v9.6h-26.7v-54.8h-31.1v54.8h-14.1V315h-3.5v-33.1
		h-17.9V315h-3.4v-38.6h-38.4V315h-8.2V244h5.2v-5l-0.6-1.4h77l-9-3.3l-11.5-4.2l-5-1.8l-27.4-10l-31.6-11.5
		c-0.2-0.8-0.8-1.5-1.7-1.9c-0.3-0.1-0.7-0.2-1-0.3c-0.1,0-0.2,0-0.3,0c-0.2,0-0.4,0-0.6,0c-0.4,0.1-0.7,0.2-1,0.4
		c-0.9,0.5-1.5,1.4-1.5,2.5c0,0.8,0.4,1.5,0.9,2.1l-2.1,16.9H655v17.7h3v70.7h-6.6l-10.4-5.8l-2.1-1.2L632,304v-18.8H625.4z
		 M721.4,235.8l-3-2.9l3-2.8h1.7l15.6,5.7H721.4z M717.7,232.3l-2.3-2.2h4.5L717.7,232.3z M715.3,235.8l2.3-2.2l2.3,2.2H715.3z
		 M711.5,235.8l-3-2.9l3-2.8h2.5l3,2.8l-3,2.9H711.5z M707.8,232.3l-2.3-2.2h4.5L707.8,232.3z M705.4,235.8l2.3-2.2l2.4,2.2H705.4z
		 M701.7,235.8l-3-2.9l3-2.8h2.6l3,2.8l-3,2.9H701.7z M697.9,232.3l-2.3-2.2h4.5L697.9,232.3z M695.6,235.8l2.3-2.2l2.3,2.2H695.6z
		 M690.8,235.8l-3-2.9l3-2.8h3.5l3,2.8l-3,2.9H690.8z M687,232.3l-2.3-2.2h4.5L687,232.3z M684.7,235.8l2.3-2.2l2.3,2.2H684.7z
		 M679.9,235.8l-3-2.9l3-2.8h3.5l3,2.8l-3,2.9H679.9z M676.2,232.3l-2.3-2.2h4.5L676.2,232.3z M673.8,235.8l2.3-2.2l2.3,2.2H673.8z
		 M668.8,230.1h3.7l3,2.8l-3,2.9h-1.3L668.8,230.1z M665.3,226.4l-2-16.7c0.4-0.3,0.7-0.7,0.9-1.1l31.8,11.6l22.1,8.1h-50.8v-1.9
		H665.3z M658.2,226.4l2-16.3c0.4,0.2,0.8,0.3,1.2,0.3c0.3,0,0.6,0,1-0.2l2,16.2H658.2z"/>
	<ellipse id="XMLID_362_" class="st6" cx="835.8" cy="403.4" rx="64.9" ry="16.9"/>
	<path id="XMLID_234_" class="st7" d="M852.6,175.5l-4.9,5.3l-2.8-0.6l-27.1-29.4c-1.1-2.9,0.4-5.2,0.8-6c0.4-0.8,0.6-2.6,2.3-2.6
		c-0.2-2.9,3-2.2,3-2.2s0.4-1.6,3.3-1.4c0.3-1.3,3.9-0.7,3.9-0.7s2.5-1.2,5.7,0.4c1.8-0.7,3.2,0.9,3.2,0.9c1.8-0.8,3.9,0.7,3.9,0.7
		s2.1-0.4,3,1.7c2.8,0.1,3,1.7,3,1.7s1.9-0.5,2.3,1.7c2.4,0.1,3.2,2.5,3.2,2.5s1.8-0.4,1.9,1.7c2.5,0.9,1.5,2.6,1.5,2.6
		c0.9,0.4,1.4,2,0.2,3.3c0,2.5-0.3,2.9-0.5,3c-0.2,0,0,2.7-0.7,3.1C857.5,165.3,852.6,175.5,852.6,175.5z"/>
	<path id="XMLID_230_" class="st8" d="M817.6,150.5c0,0.1,0.1,0.3,0.2,0.4l27.1,29.4l2.8,0.6l4.9-5.3c0,0,4.4-9.2,5.1-13.6l0,0
		c-3.7-2.1-11.1-7.4-11.1-7.4l-10.5-2.6l-8.1,2.1L817.6,150.5z"/>
	<path id="face" class="st9" d="M853.5,173.8c8.6,0.5,1.7,12.9-3.5,11.4c-1.6-1.3-2.4,0.3-2.5,1c-0.1,0.8-3.7,9-6.3,11.1
		s-2.1,8.2-1.9,11.1c0.2,2.9,0.2,4.9,0.2,4.9c-4,4.3-10.1,5.4-10.7,2.3v-9.9l-16.7-3.1c0,0,0.9-6.7,0-9.8
		c-0.9-3.1-0.7-22.1,1.4-25.5c-0.9-8.4,2.6-20.5,11.8-20.5c4.3-0.2,13.5-0.5,20.3,3.4c3.7,2.1,0.5,8.2-0.9,10.9
		c-1.5,2.6-0.6,3-0.2,4.3c1.9,7.1,1.4,12.1,1.4,13s0.2,0.6,0.2,0.6h2.4C848.5,173.8,853.5,173.8,853.5,173.8z"/>
	<g id="forehead">
		<path id="XMLID_227_" class="st10" d="M818.2,159.3c0,0,1.9-0.2,2.6,1.2c2.6,1,4.2-1.2,8.9,0"/>
		<path id="XMLID_224_" class="st10" d="M818.6,161.3c0,0,1.5-0.1,2.1,0.6c2.1,0.5,3.3-0.6,7.1,0"/>
	</g>
	<g id="eyebrow">
		<path id="XMLID_221_" class="st7" d="M823.5,166.7c-0.9-2,9.1-2.6,12.6,0.9C836.3,160.8,822.8,160.1,823.5,166.7z"/>
		<path id="XMLID_217_" class="st7" d="M813.2,164.9c0.7-1.9,4.6-1.8,5.8,1.1C820,160,813.2,160,813.2,164.9z"/>
	</g>
	<g id="eyes">
		<g id="left_x5F_eye">
			<path id="XMLID_212_" class="st11" d="M824.5,174.2c-0.3,3.9,8.5,6.3,10.3,1.1C834.8,170.8,825.4,170.5,824.5,174.2z"/>
			<ellipse id="XMLID_206_" class="st12" cx="830.5" cy="175" rx="2.6" ry="2.5"/>
			<ellipse id="XMLID_200_" class="st13" cx="832" cy="174.2" rx="0.9" ry="0.8"/>
			<ellipse id="XMLID_194_" class="st14" cx="830.5" cy="175.1" rx="1" ry="1"/>
		</g>
		<g id="right_x5F_eye">
			<path id="XMLID_188_" class="st11" d="M812.5,173.2c-0.2,2.7,4.9,4.4,6,0.8C818.5,170.8,813,170.6,812.5,173.2z"/>
			<ellipse id="XMLID_183_" class="st12" cx="815.7" cy="173.7" rx="2.6" ry="2.5"/>
			<ellipse id="XMLID_180_" class="st13" cx="817.2" cy="172.9" rx="0.9" ry="0.8"/>
			<ellipse id="XMLID_177_" class="st14" cx="815.7" cy="173.9" rx="1" ry="1"/>
		</g>
	</g>
	<path id="nose" class="st10" d="M819.7,171.4c1.2,7.9-3.5,8.6-3.5,8.6c-3,0.4,0.6,4.8,4.7,4.5"/>
	<g id="glasses" class="st15">
		<path id="XMLID_176_" class="st16" d="M833.7,169.4c13.1,2.6,2.1,23.4-9,8.5C821.1,171.6,823.7,167.6,833.7,169.4z"/>
		<path id="XMLID_174_" class="st16" d="M810.3,168.2c-10.4,2.5-1.7,21.9,7.2,8C820.4,170.2,818.3,166.5,810.3,168.2z"/>
		<path id="XMLID_166_" class="st17" d="M805.4,174.1c-0.1,3.3,1.9,6.4,4.4,7.1c0.3,0.1,0.7,0.1,1.1,0.1c1.6,0,4.1-0.9,6.7-5.1
			c0.9-1.8,1.3-3.5,1.3-4.8l0,0c0.3-0.9,1.3-1.6,2.2-1.5c0.9,0.1,1.5,0.9,1.6,2.1l0.3,0c-0.4,1.6,0.1,3.6,1.5,6
			c3.3,4.4,6.2,5.4,8.4,5.4c0.8,0,1.5-0.1,2-0.3c3-1,5.2-4.4,4.9-7.8c0-0.6-0.2-1.1-0.3-1.7c3.1,0.1,11.6,1.6,11.7,1.7l0.2-0.8
			c-0.4-0.1-9.4-1.8-12.3-1.7c-0.9-1.9-2.8-3.1-5.4-3.7l0,0c-0.8-0.1-1.5-0.2-2.2-0.3c-1-0.2-4.8-0.7-17.3-1.3l0,0
			c-1.1,0-2.4,0.1-3.9,0.4l0,0C807.3,168.7,805.5,171,805.4,174.1z M824,171c1.4-1.8,4.7-2.3,9.6-1.4c3.5,0.7,5.6,2.8,5.8,5.8
			c0.2,3.2-1.8,6.4-4.6,7.3c-1.8,0.6-5.6,0.8-9.9-4.9C823.2,174.9,822.9,172.5,824,171z M818.8,170.8c-0.1-0.7-0.4-1.2-0.8-1.7
			c-0.4-0.4-0.9-0.8-1.5-1c5.6,0.3,9.2,0.6,11.4,0.8c-2,0.2-3.5,0.8-4.3,1.9c-0.3,0.3-0.4,0.7-0.6,1.1c-0.2-1.9-1.4-2.2-1.9-2.3
			C820.3,169.5,819.3,170,818.8,170.8z M805.8,174.1c0-1.4,0.5-4.8,4.6-5.7c1.3-0.3,2.4-0.4,3.4-0.4c1.9,0,3.2,0.5,4,1.4
			c1.2,1.4,1,3.8-0.5,6.8c-2.4,3.7-5,5.4-7.4,4.7C807.5,180.2,805.7,177.2,805.8,174.1z"/>
	</g>
	<path id="XMLID_163_" class="st18" d="M856,177.5c-2-1.9-4.5,0.5-4.5,0.5c1.6,1.2,0,3.8,0,3.8"/>
	<path id="XMLID_267_" class="st19" d="M822.3,248.9c3.1-5.1,14.1-32.9,19.3-46.2c-0.1,0-0.1,0-0.1,0s0.1-1.2-1.9-1.9
		c-13.6,10.7-18.6,3.1-21.6,5.9l0,0C817.8,216.5,818.1,238.8,822.3,248.9z"/>
	<path id="XMLID_266_" class="st20" d="M822.2,218.4c-1.3,2.8-2.2,13.3-2.4,21.1c0.5,2.7,1,5.2,1.7,7.4c0.2,0.7,0.5,1.4,0.7,2
		c0.3-0.5,0.7-1.2,1.1-2.1c1.3-2.5,3-6.6,5-11.3l-0.3-16.9c0,0,1.8-1,3.8-4.1c0,0-4-6-6-6.5c-4.3,2.5-6,6.4-6,6.4
		S819.9,217.2,822.2,218.4z"/>
	<path id="XMLID_265_" class="st21" d="M743.5,206.3c1.3,3.1,9.9,6.1,12.5,6.3c0,0-0.2,0.9-0.3,2.2c2.8,2.8,29.3,15.6,35.1,14.2
		c0.3,0,18.2-1.5,18.1-0.1s-1.5,19.3,3.1,19.3c-4,2.2-7.5,0-9.4,1.1c-8,3-4.4,4.2-3.2,3.4c3.8-3,4.3,0.4,2.3,2.2
		c-9.6,5.2-7.5,7.8-4.4,7.9c3,0.1,12.2-3.8,13.5-5.8c0,0-0.2-1,1-0.8c0,0,2,4.7,1.4,9.9c-0.7,2.8-1.2,15.9-1.2,15.9l1.7,1.2
		l-1.2,104.1h1.4c-3.8,1.9-1.9,6.3-13.8,10.9c-13.7,6.6,9.6,8.1,18.8,0.5c2.5,0.7,6.5,0,6.5,0l0.7-1.4c0,0,0.4-4.8-1-9.5h2.2
		l4.3-87.3l18.9,88.3c0,0,2.8-0.8,2.4,1.9c-2.2,4.6-2.2,8.8,0.7,9.4c5.7-1.2,14.4,7.3,24.3,5c6.1-0.1,5.4-5.4-3.7-6.3
		c-5.9-2.7-2.4-1.6-8.9-7.7c-0.2-1.2,0-2.7,1-2.7c0.3-1.6-12-106.7-12-106.7s-0.8-0.7,1.6-0.5c-2.1-9.6-0.3-20.8,2.1-30.5
		c0.7-7.4,16.6-20.5,6.2-38.9c-10.1-7.7-21.3-9-22.6-9.1c-5.2,13.4-16.2,41.2-19.3,46.2c-4.2-10.1-4.5-32.4-4.4-42.2
		c-3.1,2.8-27.8,12.1-30.2,10.7l-28.4-11.3l-0.8,0.5c0,0-0.7,0.4-2.5-4.6c-1.8-3.2-3.6,1.8-1.6,3.3c0,0-0.9,2.1-4.3-1.1
		C746,201.5,742.2,203.1,743.5,206.3z"/>
	<path id="XMLID_264_" d="M852.8,390.7c-2.2,4.6-2.2,8.8,0.7,9.4c5.7-1.2,14.4,7.3,24.3,5c6.1-0.1,5.4-5.4-3.7-6.3
		c-5.6-3.5-8.8-8.2-8.9-7.7S853,389.3,852.8,390.7z"/>
	<path id="XMLID_263_" d="M818.7,398.8c2.5,0.7,6.5,0,6.5,0l0.7-1.4c0,0,0.4-4.8-1-9.5h0.4l-11.9-0.3c-3.5,1.9-1.9,6.3-13.6,10.8
		C786.2,404.9,809.5,406.4,818.7,398.8z"/>
	<path id="XMLID_260_" class="st9" d="M797.2,262.8c3,0.1,12.2-3.8,13.5-5.8c0,0-0.1-0.8,0.6-0.8c-0.4-1.8-0.8-4.9,0.3-7.9
		c-3.8,2-7.3-0.1-9.1,1c-8,3-4.4,4.2-3.2,3.4c3.8-3,4.3,0.4,2.3,2.2C792.1,260.1,794.2,262.7,797.2,262.8z"/>
	<path id="XMLID_256_" class="st9" d="M743.5,206.3c1.3,3.1,9.7,6.1,12.4,6.3c0.9-2.1,2.2-4.8,3.3-6.4l-0.6,0.4c0,0-0.7,0.4-2.5-4.6
		c-1.8-3.2-3.6,1.8-1.6,3.3c0,0-0.9,2.1-4.3-1.1C746,201.5,742.2,203.1,743.5,206.3z"/>
	<g id="mouth">
		<path id="XMLID_160_" class="st10" d="M817.9,194.5c0,1.8,4.4,2,5.2,0.8"/>
		<g id="mouth_x5F_lines">
			<path id="XMLID_158_" class="st10" d="M824.2,184.5c3.6,0.9,5.9,6.8,5.9,6.8"/>
			<path id="XMLID_157_" class="st10" d="M814.7,184.2c-3.2,1.7-2,9.9-2,9.9"/>
		</g>
		<path id="XMLID_82_" class="st7" d="M816.3,190.3c-0.2,3.9,7,5.3,10.6,1C822.5,190.3,816.3,190.3,816.3,190.3z"/>
		<path id="XMLID_61_" class="st22" d="M819.2,191.3c-0.1,1.8,3.3,2.5,4.9,0.5C822,191.3,819.2,191.3,819.2,191.3z"/>
		<path id="XMLID_51_" class="st23" d="M812.2,202.8c0.9,6.5,14.9,7.3,16.6,2.2c1.7-5.1,1.7-5.3,1.7-5.3v-7.9
			c0-5.1-17.4-6.5-18.1-0.8C812.2,198.1,812.2,202.8,812.2,202.8z M814.4,190.4c0.7-2.1,12.4-2.2,13.8,0.5
			c0.7,9.8-2.8,11.9-7.9,10.3v-2.6h-2.9C816.5,205.6,812.8,194.9,814.4,190.4z"/>
	</g>
</g>
</svg>
