<?xml version="1.0" encoding="utf-8"?>
<!-- Generator: Adobe Illustrator 19.0.0, SVG Export Plug-In . SVG Version: 6.00 Build 0)  -->
<svg version="1.1" id="Layer_1" xmlns="http://www.w3.org/2000/svg" xmlns:xlink="http://www.w3.org/1999/xlink" x="0px" y="0px"
	 viewBox="0 0 960 560" style="enable-background:new 0 0 960 560;" xml:space="preserve">
<style type="text/css">
	.Drop_x0020_Shadow{fill:none;}
	.Outer_x0020_Glow_x0020_5_x0020_pt{fill:none;}
	.Blue_x0020_Neon{fill:none;stroke:#8AACDA;stroke-width:7;stroke-linecap:round;stroke-linejoin:round;}
	.Chrome_x0020_Highlight{fill:url(#SVGID_1_);stroke:#FFFFFF;stroke-width:0.3629;stroke-miterlimit:1;}
	.Jive_GS{fill:#FFDD00;}
	.Alyssa_GS{fill:#A6D0E4;}
	.st0{display:none;fill:url(#XMLID_19_);}
	.st1{fill:#B7B7B7;}
	.st2{opacity:0.1;}
	.st3{fill:#EF7D1B;}
	.st4{fill:#F7F8FC;}
	.st5{opacity:0.75;fill:#EF7D1B;}
	.st6{display:none;}
	.st7{display:inline;fill:#4A7DFF;}
	.st8{display:inline;fill:#F7F8FC;}
	.st9{display:inline;opacity:0.5;}
	.st10{opacity:0.15;}
	.st11{fill:#181E13;}
	.st12{fill:#3C3129;}
	.st13{fill:#B36843;}
	.st14{fill:none;stroke:#181E13;stroke-miterlimit:10;}
	.st15{fill:#ABB09B;}
	.st16{fill:#3D3E28;}
	.st17{fill:#B5C2B4;}
	.st18{fill:#3A4039;}
	.st19{opacity:0.5;}
	.st20{fill:#968F6F;}
	.st21{fill:#504C46;}
	.st22{fill:none;stroke:#000000;stroke-miterlimit:10;}
	.st23{fill:#D8D7C7;}
	.st24{fill:#FF0808;}
	.st25{fill:#1D322B;}
	.st26{fill:#FFFFFF;}
	.st27{fill:#181E13;stroke:#181E13;stroke-miterlimit:10;}
</style>
<linearGradient id="SVGID_1_" gradientUnits="userSpaceOnUse" x1="0" y1="0" x2="4.489659e-011" y2="-1">
	<stop  offset="0" style="stop-color:#656565"/>
	<stop  offset="0.618" style="stop-color:#1B1B1B"/>
	<stop  offset="0.6292" style="stop-color:#545454"/>
	<stop  offset="0.9831" style="stop-color:#3E3E3E"/>
</linearGradient>
<linearGradient id="XMLID_19_" gradientUnits="userSpaceOnUse" x1="0" y1="280" x2="960" y2="280">
	<stop  offset="0" style="stop-color:#F9CB10"/>
	<stop  offset="0.1667" style="stop-color:#EF7D1B"/>
	<stop  offset="0.3333" style="stop-color:#E8423F"/>
	<stop  offset="0.5" style="stop-color:#A81D6B"/>
	<stop  offset="0.6667" style="stop-color:#1895AA"/>
	<stop  offset="0.8333" style="stop-color:#99C440"/>
	<stop  offset="1" style="stop-color:#F9CB10"/>
</linearGradient>
<rect id="XMLID_2_" class="st0" width="960" height="560"/>
<rect id="XMLID_1_" class="st1" width="960" height="560"/>
<g id="XMLID_10_">
	<g id="XMLID_9_" class="st2">
		<path id="XMLID_102_" class="st3" d="M1.3,69.8l0.4,0.4c1.7,1.7,4.5,1.7,6.2,0l12.8-12.8c1.7-1.7,1.7-4.5,0-6.2l-0.4-0.4
			c-1.7-1.7-4.5-1.7-6.2,0L1.3,63.5C-0.4,65.3-0.4,68,1.3,69.8z"/>
		<path id="XMLID_99_" class="st3" d="M24,213.9l0.4,0.4c1.7,1.7,4.5,1.7,6.2,0l12.8-12.8c1.7-1.7,1.7-4.5,0-6.2l-0.4-0.4
			c-1.7-1.7-4.5-1.7-6.2,0L24,207.7C22.3,209.4,22.3,212.2,24,213.9z"/>
		<path id="XMLID_96_" class="st3" d="M204.2,202.3L204.2,202.3c1.1,1.1,2.9,1.1,3.9,0l6.4-6.4c1.1-1.1,1.1-2.9,0-3.9l0,0
			c-1.1-1.1-2.9-1.1-3.9,0l-6.4,6.4C203.1,199.5,203.1,201.3,204.2,202.3z"/>
		<path id="XMLID_93_" class="st3" d="M179.4,238.1l0.1,0.1c0.2,0.2,0.5,0.2,0.7,0l43.3-43.3c0.2-0.2,0.2-0.5,0-0.7l-0.1-0.1
			c-0.2-0.2-0.5-0.2-0.7,0l-43.3,43.3C179.2,237.6,179.2,238,179.4,238.1z"/>
		<path id="XMLID_90_" class="st3" d="M261.3,0l-22.5,22.5c-1.1,1.1-2.9,1.1-3.9,0c-1.1-1.1-1.1-2.9,0-3.9L253.4,0H261.3z"/>
		<path id="XMLID_87_" class="st3" d="M290.3,64L290.3,64c1.3,1.3,3.3,1.3,4.6,0l6.8-6.8c1.3-1.3,1.3-3.3,0-4.6v0
			c-1.3-1.3-3.3-1.3-4.6,0l-6.8,6.8C289,60.7,289,62.7,290.3,64z"/>
		<path id="XMLID_84_" class="st3" d="M275,120.4L275,120.4c1.2,1.2,3.2,1.2,4.3,0l23.8-23.8c1.2-1.2,1.2-3.2,0-4.3l0,0
			c-1.2-1.2-3.2-1.2-4.3,0L275,116C273.8,117.2,273.8,119.2,275,120.4z"/>
		<path id="XMLID_81_" class="st3" d="M309.4,177.2L309.4,177.2c1.2,1.2,3.2,1.2,4.3,0L330,161c1.2-1.2,1.2-3.2,0-4.3l0,0
			c-1.2-1.2-3.2-1.2-4.3,0l-16.2,16.2C308.2,174,308.2,176,309.4,177.2z"/>
		<path id="XMLID_78_" class="st3" d="M294.2,0l-56.1,56.1c-0.2,0.2-0.6,0.2-0.8,0l0,0c-0.2-0.2-0.2-0.6,0-0.8L292.6,0H294.2z"/>
		<path id="XMLID_75_" class="st3" d="M117.4,4.9L61.6,60.8c-2.2,2.2-5.7,2.2-7.8,0c-2.2-2.2-2.2-5.7,0-7.8L106.7,0H119
			C119.3,1.7,118.8,3.6,117.4,4.9z"/>
		<path id="XMLID_72_" class="st3" d="M25.9,108.6L25.9,108.6c0.4,0.4,1.2,0.4,1.6,0l30.2-30.2c0.4-0.4,0.4-1.2,0-1.6l0,0
			c-0.4-0.4-1.2-0.4-1.6,0L25.9,107C25.5,107.5,25.5,108.2,25.9,108.6z"/>
		<path id="XMLID_69_" class="st3" d="M50,170.5L50,170.5c0.2,0.2,0.6,0.2,0.8,0l63-63c0.2-0.2,0.2-0.6,0-0.8l0,0
			c-0.2-0.2-0.6-0.2-0.8,0l-63,63C49.8,170,49.8,170.3,50,170.5z"/>
		<path id="XMLID_66_" class="st3" d="M119.3,95.9l0.1,0.1c8.6,8.6,22.7,8.6,31.4,0l58-58c8.6-8.6,8.6-22.7,0-31.4l-0.1-0.1
			c-8.6-8.6-22.7-8.6-31.4,0l-58,58C110.6,73.2,110.6,87.3,119.3,95.9z"/>
		<path id="XMLID_63_" class="st3" d="M99.9,209.8L99.9,209.8c4.9,4.9,12.9,4.9,17.8,0l103.9-103.9c4.9-4.9,4.9-12.9,0-17.8l0,0
			c-4.9-4.9-12.9-4.9-17.8,0L99.9,192C95,196.9,95,204.9,99.9,209.8z"/>
		<path id="XMLID_60_" class="st3" d="M401.7,0c-0.7,2.3-2,4.4-3.8,6.2l-41.1,41.1c-6,6-15.8,6-21.8,0c-6-6-6-15.8,0-21.8L360.6,0
			H401.7z"/>
	</g>
	<g id="XMLID_13_" class="st2">
		<path id="XMLID_168_" class="st3" d="M356.3,490.2l-0.4-0.4c-1.7-1.7-4.5-1.7-6.2,0l-12.8,12.8c-1.7,1.7-1.7,4.5,0,6.2l0.4,0.4
			c1.7,1.7,4.5,1.7,6.2,0l12.8-12.8C358,494.7,358,492,356.3,490.2z"/>
		<path id="XMLID_165_" class="st3" d="M333.6,346.1l-0.4-0.4c-1.7-1.7-4.5-1.7-6.2,0l-12.8,12.8c-1.7,1.7-1.7,4.5,0,6.2l0.4,0.4
			c1.7,1.7,4.5,1.7,6.2,0l12.8-12.8C335.3,350.6,335.3,347.8,333.6,346.1z"/>
		<path id="XMLID_162_" class="st3" d="M153.4,357.7L153.4,357.7c-1.1-1.1-2.9-1.1-3.9,0l-6.4,6.4c-1.1,1.1-1.1,2.9,0,3.9l0,0
			c1.1,1.1,2.9,1.1,3.9,0l6.4-6.4C154.4,360.5,154.4,358.7,153.4,357.7z"/>
		<path id="XMLID_159_" class="st3" d="M178.1,321.9l-0.1-0.1c-0.2-0.2-0.5-0.2-0.7,0L134,365.1c-0.2,0.2-0.2,0.5,0,0.7l0.1,0.1
			c0.2,0.2,0.5,0.2,0.7,0l43.3-43.3C178.3,322.4,178.3,322,178.1,321.9z"/>
		<path id="XMLID_156_" class="st3" d="M96.3,560l22.5-22.5c1.1-1.1,2.9-1.1,3.9,0c1.1,1.1,1.1,2.9,0,3.9L104.1,560H96.3z"/>
		<path id="XMLID_153_" class="st3" d="M67.3,496L67.3,496c-1.3-1.3-3.3-1.3-4.6,0l-6.8,6.8c-1.3,1.3-1.3,3.3,0,4.6h0
			c1.3,1.3,3.3,1.3,4.6,0l6.8-6.8C68.6,499.3,68.6,497.3,67.3,496z"/>
		<path id="XMLID_150_" class="st3" d="M82.6,439.6L82.6,439.6c-1.2-1.2-3.2-1.2-4.3,0l-23.8,23.8c-1.2,1.2-1.2,3.2,0,4.3h0
			c1.2,1.2,3.2,1.2,4.3,0L82.6,444C83.8,442.8,83.8,440.8,82.6,439.6z"/>
		<path id="XMLID_130_" class="st3" d="M48.1,382.8L48.1,382.8c-1.2-1.2-3.2-1.2-4.3,0L27.6,399c-1.2,1.2-1.2,3.2,0,4.3h0
			c1.2,1.2,3.2,1.2,4.3,0l16.2-16.2C49.3,386,49.3,384,48.1,382.8z"/>
		<path id="XMLID_127_" class="st3" d="M63.4,560l56.1-56.1c0.2-0.2,0.6-0.2,0.8,0l0,0c0.2,0.2,0.2,0.6,0,0.8L65,560H63.4z"/>
		<path id="XMLID_124_" class="st3" d="M240.1,555.1l55.9-55.9c2.2-2.2,5.7-2.2,7.8,0c2.2,2.2,2.2,5.7,0,7.8L250.9,560h-12.3
			C238.3,558.3,238.8,556.4,240.1,555.1z"/>
		<path id="XMLID_121_" class="st3" d="M331.6,451.4L331.6,451.4c-0.4-0.4-1.2-0.4-1.6,0l-30.2,30.2c-0.4,0.4-0.4,1.2,0,1.6l0,0
			c0.4,0.4,1.2,0.4,1.6,0l30.2-30.2C332.1,452.5,332.1,451.8,331.6,451.4z"/>
		<path id="XMLID_118_" class="st3" d="M307.5,389.5L307.5,389.5c-0.2-0.2-0.6-0.2-0.8,0l-63,63c-0.2,0.2-0.2,0.6,0,0.8l0,0
			c0.2,0.2,0.6,0.2,0.8,0l63-63C307.8,390,307.8,389.7,307.5,389.5z"/>
		<path id="XMLID_114_" class="st3" d="M238.3,464.1l-0.1-0.1c-8.6-8.6-22.7-8.6-31.4,0l-58,58c-8.6,8.6-8.6,22.7,0,31.4l0.1,0.1
			c8.6,8.6,22.7,8.6,31.4,0l58-58C246.9,486.8,246.9,472.7,238.3,464.1z"/>
		<path id="XMLID_21_" class="st3" d="M257.7,350.2L257.7,350.2c-4.9-4.9-12.9-4.9-17.8,0L136,454.1c-4.9,4.9-4.9,12.9,0,17.8l0,0
			c4.9,4.9,12.9,4.9,17.8,0L257.7,368C262.6,363.1,262.6,355.1,257.7,350.2z"/>
		<path id="XMLID_14_" class="st3" d="M0,557l0-43.6l0.7-0.7c6-6,15.8-6,21.8,0c6,6,6,15.8,0,21.8L0,557z"/>
	</g>
</g>
<g id="XMLID_5_">
	<path id="XMLID_16_" class="st3" d="M960,5.8v270.3L708.8,560h-38.1c-48.1,0-87.6-39-87.6-87.1V87.1C583,39,622.5,0,670.6,0h283.5
		C957.4,0,960,2.6,960,5.8z"/>
	<path id="XMLID_7_" class="st4" d="M910.1,470.6H50c-3.3,0-6-2.7-6-6V95.9c0-3.3,2.7-6,6-6h860c3.3,0,6,2.7,6,6v368.7
		C916.1,467.9,913.4,470.6,910.1,470.6z"/>
	<path id="XMLID_17_" class="st5" d="M334.7,470.6H50c-3.3,0-6-2.7-6-6V95.9c0-3.3,2.7-6,6-6h284.7V470.6z"/>
</g>
<g id="XMLID_11_">
	<g id="XMLID_171_" class="st2">
		<g id="XMLID_440_">
			<g id="XMLID_469_">
				<path id="XMLID_470_" class="st1" d="M958.7,490.2l-0.4-0.4c-1.7-1.7-4.5-1.7-6.2,0l-12.8,12.8c-1.7,1.7-1.7,4.5,0,6.2l0.4,0.4
					c1.7,1.7,4.5,1.7,6.2,0l12.8-12.8C960.4,494.7,960.4,492,958.7,490.2z"/>
			</g>
			<g id="XMLID_467_">
				<path id="XMLID_468_" class="st1" d="M936,346.1l-0.4-0.4c-1.7-1.7-4.5-1.7-6.2,0l-12.8,12.8c-1.7,1.7-1.7,4.5,0,6.2l0.4,0.4
					c1.7,1.7,4.5,1.7,6.2,0l12.8-12.8C937.7,350.6,937.7,347.8,936,346.1z"/>
			</g>
			<g id="XMLID_465_">
				<path id="XMLID_466_" class="st1" d="M755.8,357.7L755.8,357.7c-1.1-1.1-2.9-1.1-3.9,0l-6.4,6.4c-1.1,1.1-1.1,2.9,0,3.9l0,0
					c1.1,1.1,2.9,1.1,3.9,0l6.4-6.4C756.9,360.5,756.9,358.7,755.8,357.7z"/>
			</g>
			<g id="XMLID_463_">
				<path id="XMLID_464_" class="st1" d="M780.6,321.9l-0.1-0.1c-0.2-0.2-0.5-0.2-0.7,0l-43.3,43.3c-0.2,0.2-0.2,0.5,0,0.7l0.1,0.1
					c0.2,0.2,0.5,0.2,0.7,0l43.3-43.3C780.8,322.4,780.8,322,780.6,321.9z"/>
			</g>
			<g id="XMLID_461_">
				<path id="XMLID_462_" class="st1" d="M698.7,560l22.5-22.5c1.1-1.1,2.9-1.1,3.9,0s1.1,2.9,0,3.9L706.6,560H698.7z"/>
			</g>
			<g id="XMLID_459_">
				<path id="XMLID_460_" class="st1" d="M669.7,496L669.7,496c-1.3-1.3-3.3-1.3-4.6,0l-6.8,6.8c-1.3,1.3-1.3,3.3,0,4.6l0,0
					c1.3,1.3,3.3,1.3,4.6,0l6.8-6.8C671,499.3,671,497.3,669.7,496z"/>
			</g>
			<g id="XMLID_457_">
				<path id="XMLID_458_" class="st1" d="M685,439.6L685,439.6c-1.2-1.2-3.2-1.2-4.3,0l-23.8,23.8c-1.2,1.2-1.2,3.2,0,4.3l0,0
					c1.2,1.2,3.2,1.2,4.3,0L685,444C686.2,442.8,686.2,440.8,685,439.6z"/>
			</g>
			<g id="XMLID_455_">
				<path id="XMLID_456_" class="st1" d="M650.6,382.8L650.6,382.8c-1.2-1.2-3.2-1.2-4.3,0L630,399c-1.2,1.2-1.2,3.2,0,4.3l0,0
					c1.2,1.2,3.2,1.2,4.3,0l16.2-16.2C651.8,386,651.8,384,650.6,382.8z"/>
			</g>
			<g id="XMLID_453_">
				<path id="XMLID_454_" class="st1" d="M665.8,560l56.1-56.1c0.2-0.2,0.6-0.2,0.8,0l0,0c0.2,0.2,0.2,0.6,0,0.8L667.4,560H665.8z"
					/>
			</g>
			<g id="XMLID_451_">
				<path id="XMLID_452_" class="st1" d="M842.6,555.1l55.9-55.9c2.2-2.2,5.7-2.2,7.8,0c2.2,2.2,2.2,5.7,0,7.8L853.3,560H841
					C840.7,558.3,841.2,556.4,842.6,555.1z"/>
			</g>
			<g id="XMLID_449_">
				<path id="XMLID_450_" class="st1" d="M934.1,451.4L934.1,451.4c-0.4-0.4-1.2-0.4-1.6,0l-30.2,30.2c-0.4,0.4-0.4,1.2,0,1.6l0,0
					c0.4,0.4,1.2,0.4,1.6,0l30.2-30.2C934.5,452.5,934.5,451.8,934.1,451.4z"/>
			</g>
			<g id="XMLID_447_">
				<path id="XMLID_448_" class="st1" d="M910,389.5L910,389.5c-0.2-0.2-0.6-0.2-0.8,0l-63,63c-0.2,0.2-0.2,0.6,0,0.8l0,0
					c0.2,0.2,0.6,0.2,0.8,0l63-63C910.2,390,910.2,389.7,910,389.5z"/>
			</g>
			<g id="XMLID_445_">
				<path id="XMLID_446_" class="st1" d="M840.7,464.1l-0.1-0.1c-8.6-8.6-22.7-8.6-31.4,0l-58,58c-8.6,8.6-8.6,22.7,0,31.4l0.1,0.1
					c8.6,8.6,22.7,8.6,31.4,0l58-58C849.4,486.8,849.4,472.7,840.7,464.1z"/>
			</g>
			<g id="XMLID_443_">
				<path id="XMLID_444_" class="st1" d="M860.1,350.2L860.1,350.2c-4.9-4.9-12.9-4.9-17.8,0L738.4,454.1c-4.9,4.9-4.9,12.9,0,17.8
					l0,0c4.9,4.9,12.9,4.9,17.8,0L860.1,368C865,363.1,865,355.1,860.1,350.2z"/>
			</g>
			<g id="XMLID_441_">
				<path id="XMLID_442_" class="st1" d="M558.3,560c0.7-2.3,2-4.4,3.8-6.2l41.1-41.1c6-6,15.8-6,21.8,0c6,6,6,15.8,0,21.8
					L599.4,560H558.3z"/>
			</g>
		</g>
	</g>
	<g id="XMLID_8_" class="st2">
		<path id="XMLID_56_" class="st1" d="M603.7,69.8l0.4,0.4c1.7,1.7,4.5,1.7,6.2,0l12.8-12.8c1.7-1.7,1.7-4.5,0-6.2l-0.4-0.4
			c-1.7-1.7-4.5-1.7-6.2,0l-12.8,12.8C602,65.3,602,68,603.7,69.8z"/>
		<path id="XMLID_53_" class="st1" d="M626.4,213.9l0.4,0.4c1.7,1.7,4.5,1.7,6.2,0l12.8-12.8c1.7-1.7,1.7-4.5,0-6.2l-0.4-0.4
			c-1.7-1.7-4.5-1.7-6.2,0l-12.8,12.8C624.7,209.4,624.7,212.2,626.4,213.9z"/>
		<path id="XMLID_50_" class="st1" d="M806.6,202.3L806.6,202.3c1.1,1.1,2.9,1.1,3.9,0l6.4-6.4c1.1-1.1,1.1-2.9,0-3.9l0,0
			c-1.1-1.1-2.9-1.1-3.9,0l-6.4,6.4C805.6,199.5,805.6,201.3,806.6,202.3z"/>
		<path id="XMLID_47_" class="st1" d="M781.9,238.1l0.1,0.1c0.2,0.2,0.5,0.2,0.7,0l43.3-43.3c0.2-0.2,0.2-0.5,0-0.7l-0.1-0.1
			c-0.2-0.2-0.5-0.2-0.7,0l-43.3,43.3C781.7,237.6,781.7,238,781.9,238.1z"/>
		<path id="XMLID_44_" class="st1" d="M863.7,0l-22.5,22.5c-1.1,1.1-2.9,1.1-3.9,0c-1.1-1.1-1.1-2.9,0-3.9L855.9,0H863.7z"/>
		<path id="XMLID_41_" class="st1" d="M892.7,64L892.7,64c1.3,1.3,3.3,1.3,4.6,0l6.8-6.8c1.3-1.3,1.3-3.3,0-4.6v0
			c-1.3-1.3-3.3-1.3-4.6,0l-6.8,6.8C891.4,60.7,891.4,62.7,892.7,64z"/>
		<path id="XMLID_38_" class="st1" d="M877.4,120.4L877.4,120.4c1.2,1.2,3.2,1.2,4.3,0l23.8-23.8c1.2-1.2,1.2-3.2,0-4.3v0
			c-1.2-1.2-3.2-1.2-4.3,0L877.4,116C876.2,117.2,876.2,119.2,877.4,120.4z"/>
		<path id="XMLID_35_" class="st1" d="M911.9,177.2L911.9,177.2c1.2,1.2,3.2,1.2,4.3,0l16.2-16.2c1.2-1.2,1.2-3.2,0-4.3l0,0
			c-1.2-1.2-3.2-1.2-4.3,0l-16.2,16.2C910.7,174,910.7,176,911.9,177.2z"/>
		<path id="XMLID_32_" class="st1" d="M896.6,0l-56.1,56.1c-0.2,0.2-0.6,0.2-0.8,0l0,0c-0.2-0.2-0.2-0.6,0-0.8L895,0H896.6z"/>
		<path id="XMLID_29_" class="st1" d="M719.9,4.9L664,60.8c-2.2,2.2-5.7,2.2-7.8,0c-2.2-2.2-2.2-5.7,0-7.8L709.1,0h12.3
			C721.7,1.7,721.2,3.6,719.9,4.9z"/>
		<path id="XMLID_26_" class="st1" d="M628.4,108.6L628.4,108.6c0.4,0.4,1.2,0.4,1.6,0l30.2-30.2c0.4-0.4,0.4-1.2,0-1.6l0,0
			c-0.4-0.4-1.2-0.4-1.6,0L628.4,107C627.9,107.5,627.9,108.2,628.4,108.6z"/>
		<path id="XMLID_23_" class="st1" d="M652.5,170.5L652.5,170.5c0.2,0.2,0.6,0.2,0.8,0l63-63c0.2-0.2,0.2-0.6,0-0.8l0,0
			c-0.2-0.2-0.6-0.2-0.8,0l-63,63C652.2,170,652.2,170.3,652.5,170.5z"/>
		<path id="XMLID_20_" class="st1" d="M721.7,95.9l0.1,0.1c8.6,8.6,22.7,8.6,31.4,0l58-58c8.6-8.6,8.6-22.7,0-31.4l-0.1-0.1
			c-8.6-8.6-22.7-8.6-31.4,0l-58,58C713.1,73.2,713.1,87.3,721.7,95.9z"/>
		<path id="XMLID_15_" class="st1" d="M702.3,209.8L702.3,209.8c4.9,4.9,12.9,4.9,17.8,0L824,105.9c4.9-4.9,4.9-12.9,0-17.8l0,0
			c-4.9-4.9-12.9-4.9-17.8,0L702.3,192C697.4,196.9,697.4,204.9,702.3,209.8z"/>
		<path id="XMLID_12_" class="st1" d="M960,3v43.6l-0.7,0.7c-6,6-15.8,6-21.8,0c-6-6-6-15.8,0-21.8L960,3z"/>
	</g>
</g>
<g id="XMLID_6_" class="st6">
	<path id="XMLID_18_" class="st7" d="M808,5.8v270.3L556.8,560h-38.1c-48.1,0-87.6-39-87.6-87.1V87.1C431,39,470.5,0,518.6,0h283.5
		C805.4,0,808,2.6,808,5.8z"/>
	<path id="XMLID_4_" class="st8" d="M758.3,470.6H160.4c-3.2,0-5.8-2.6-5.8-5.8V95.6c0-3.2,2.6-5.8,5.8-5.8h597.9
		c3.2,0,5.8,2.6,5.8,5.8v369.2C764.1,468,761.5,470.6,758.3,470.6z"/>
</g>
<g id="head">
	<g id="XMLID_324_" class="st6">
		<path id="XMLID_361_" class="st9" d="M421.5,210.4c-0.3,0-0.7,0-1-0.2l-2,16.2h6.2l-2-16.3C422.3,210.3,421.9,210.4,421.5,210.4z"
			/>
		<path id="XMLID_360_" class="st9" d="M418.7,208.6l-31.8,11.6l-22.1,8.1h43.3h2.3h4.3h0.9v-1.9h1h0.9l2.1-16.7
			C419.2,209.5,418.9,209.1,418.7,208.6z"/>
		<path id="XMLID_358_" class="st9" d="M429.9,190v-0.2h-43v0.1H44.8v134.8h26.1v-20.9l5.5-17.2l5,15.6v22.4h9.9v-48.1h12.3v48.1
			h50.5v-31.7h2.8v-6.3h5.1v6.3h11v37.2l9.8,4.4V311h7v-70.4h24.9V311h8.6v27.6h5.4V290h14.3v-5.5h6.9v5.5h5.2v41.1l7.2-3.2v-28.2h3
			V290h6.9v9.6h26.7v-54.8h31.1v54.8h14.1V315h3.5v-33.1h17.9V315h3.4v-38.6h38.4V315h8.1v-70.9h-5.2v-5l0.6-1.4h-77l9-3.3l11.5-4.2
			l4.9-1.8l27.4-10l31.6-11.6c0.2-0.8,0.8-1.5,1.7-1.9c0.3-0.1,0.7-0.2,1-0.3c0.1,0,0.2,0,0.3,0c0.2,0,0.4,0,0.6,0
			c0.4,0.1,0.7,0.2,1,0.4c0.9,0.5,1.5,1.4,1.5,2.5c0,0.8-0.3,1.5-0.9,2.1l2.1,16.9h2.2v17.7h-3v70.7h6.6L442,309l2.1-1.1l6.8-3.8
			v-18.8h74.6V190H429.9z"/>
		<polygon id="XMLID_357_" class="st9" points="359.9,230.1 344.2,235.8 361.4,235.8 364.5,232.9 361.5,230.1 		"/>
		<polygon id="XMLID_356_" class="st9" points="367.5,230.1 362.9,230.1 365.2,232.3 		"/>
		<polygon id="XMLID_355_" class="st9" points="365.2,233.6 362.8,235.8 367.5,235.8 		"/>
		<polygon id="XMLID_354_" class="st9" points="375.1,233.6 372.7,235.8 377.4,235.8 		"/>
		<polygon id="XMLID_353_" class="st9" points="377.3,230.1 372.8,230.1 375.1,232.3 		"/>
		<polygon id="XMLID_352_" class="st9" points="371.3,235.8 374.4,232.9 371.4,230.1 368.9,230.1 365.9,232.9 368.9,235.8 		"/>
		<polygon id="XMLID_351_" class="st9" points="381.2,235.8 384.2,232.9 381.3,230.1 378.7,230.1 375.8,232.9 378.8,235.8 		"/>
		<polygon id="XMLID_350_" class="st9" points="395.8,233.6 393.5,235.8 398.1,235.8 		"/>
		<polygon id="XMLID_349_" class="st9" points="402.9,235.8 406,232.9 403,230.1 399.5,230.1 396.5,232.9 399.6,235.8 		"/>
		<polygon id="XMLID_348_" class="st9" points="408.9,230.1 404.4,230.1 406.7,232.3 		"/>
		<polygon id="XMLID_347_" class="st9" points="406.7,233.6 404.3,235.8 409,235.8 		"/>
		<polygon id="XMLID_346_" class="st9" points="387.2,230.1 382.7,230.1 384.9,232.3 		"/>
		<polygon id="XMLID_328_" class="st9" points="411.7,235.8 414,230.1 410.3,230.1 407.4,232.9 410.4,235.8 		"/>
		<polygon id="XMLID_327_" class="st9" points="384.9,233.6 382.6,235.8 387.3,235.8 		"/>
		<polygon id="XMLID_326_" class="st9" points="398.1,230.1 393.5,230.1 395.8,232.3 		"/>
		<polygon id="XMLID_325_" class="st9" points="392.1,235.8 395.1,232.9 392.1,230.1 388.6,230.1 385.6,232.9 388.7,235.8 		"/>
	</g>
	<path id="XMLID_382_" class="st3" d="M328.1,285.3V304l-6.8,3.8l-2.1,1.2l-10.4,5.8h-6.6v-70.7h3v-17.7h-2.2l-2.1-16.9
		c0.5-0.5,0.9-1.3,0.9-2.1c0-1-0.6-2-1.5-2.5c-0.3-0.2-0.7-0.3-1-0.4c-0.2,0-0.4,0-0.6,0c-0.1,0-0.2,0-0.3,0c-0.4,0-0.7,0.1-1,0.3
		c-0.8,0.4-1.4,1.1-1.7,1.9l-31.6,11.5l-27.4,10l-5,1.8l-11.5,4.2l-9,3.3h77l-0.6,1.4v5h5.2V315h-8.2v-38.6h-38.4V315h-3.4v-33.1
		H225V315h-3.5v-15.3h-14.1v-54.8h-31.1v54.8h-26.7V290h-6.9v9.6h-3v28.2l-7.2,3.2v-41h-5.2v-5.5h-6.9v5.5h-14.3v48.5h-5.4V311h-8.6
		v-70.4H67.2V311h-7v23.7l-9.8-4.4v-37.2H44v171.5c0,3.3,2.7,6,6,6h284.7V285.3H328.1z M221.5,235.8l15.6-5.7h1.7l3,2.8l-3,2.9
		H221.5z M240.2,230.1h4.5l-2.3,2.2L240.2,230.1z M240.1,235.8l2.3-2.2l2.3,2.2H240.1z M246.2,235.8l-3-2.9l3-2.8h2.5l3,2.8l-3,2.9
		H246.2z M250,230.1h4.5l-2.3,2.2L250,230.1z M250,235.8l2.4-2.2l2.3,2.2H250z M256.1,235.8l-3-2.9l3-2.8h2.6l3,2.8l-3,2.9H256.1z
		 M259.9,230.1h4.5l-2.3,2.2L259.9,230.1z M259.8,235.8l2.3-2.2l2.3,2.2H259.8z M265.9,235.8l-3-2.9l3-2.8h3.5l3,2.8l-3,2.9H265.9z
		 M270.8,230.1h4.5l-2.3,2.2L270.8,230.1z M270.7,235.8l2.3-2.2l2.3,2.2H270.7z M276.8,235.8l-3-2.9l3-2.8h3.5l3,2.8l-3,2.9H276.8z
		 M281.7,230.1h4.5l-2.3,2.2L281.7,230.1z M281.6,235.8l2.3-2.2l2.3,2.2H281.6z M289,235.8h-1.3l-3-2.9l3-2.8h3.7L289,235.8z
		 M292.9,226.4v1.9h-50.8l22.1-8.1l31.8-11.6c0.2,0.4,0.5,0.8,0.9,1.1l-2,16.7H292.9z M295.8,226.4l2-16.2c0.3,0.1,0.6,0.2,1,0.2
		c0.4,0,0.9-0.1,1.2-0.3l2,16.3H295.8z"/>
	<ellipse id="XMLID_362_" class="st10" cx="124.3" cy="403.4" rx="64.9" ry="16.9"/>
	<path id="XMLID_234_" class="st11" d="M107.5,175.5l4.9,5.3l2.8-0.6l27.1-29.4c1.1-2.9-0.4-5.2-0.8-6s-0.6-2.6-2.3-2.6
		c0.2-2.9-3-2.2-3-2.2s-0.4-1.6-3.3-1.4c-0.3-1.3-3.9-0.7-3.9-0.7s-2.5-1.2-5.7,0.4c-1.8-0.7-3.2,0.9-3.2,0.9
		c-1.8-0.8-3.9,0.7-3.9,0.7s-2.1-0.4-3,1.7c-2.8,0.1-3,1.7-3,1.7s-1.9-0.5-2.3,1.7c-2.4,0.1-3.2,2.5-3.2,2.5s-1.8-0.4-1.9,1.7
		c-2.5,0.9-1.5,2.6-1.5,2.6c-0.9,0.4-1.4,2-0.2,3.3c0,2.5,0.3,2.9,0.5,3s0,2.7,0.7,3.1C102.6,165.3,107.5,175.5,107.5,175.5z"/>
	<path id="XMLID_230_" class="st12" d="M142.5,150.5c0,0.1-0.1,0.3-0.2,0.4l-27.1,29.4l-2.8,0.6l-4.9-5.3c0,0-4.4-9.2-5.1-13.6l0,0
		c3.7-2.1,11.1-7.4,11.1-7.4l10.5-2.6l8.1,2.1L142.5,150.5z"/>
	<path id="face" class="st13" d="M106.6,173.8c-8.6,0.5-1.7,12.9,3.5,11.4c1.6-1.3,2.4,0.3,2.5,1c0.1,0.8,3.7,9,6.3,11.1
		c2.6,2.1,2.1,8.2,1.9,11.1c-0.2,2.9-0.2,4.9-0.2,4.9c4,4.3,10.1,5.4,10.7,2.3v-9.9l16.7-3.1c0,0-0.9-6.7,0-9.8
		c0.9-3.1,0.7-22.1-1.4-25.5c0.9-8.4-2.6-20.5-11.8-20.5c-4.3-0.2-13.5-0.5-20.3,3.4c-3.7,2.1-0.5,8.2,0.9,10.9
		c1.5,2.6,0.6,3,0.2,4.3c-1.9,7.1-1.4,12.1-1.4,13s-0.2,0.6-0.2,0.6h-2.4C111.6,173.8,106.6,173.8,106.6,173.8z"/>
	<g id="forehead">
		<path id="XMLID_227_" class="st14" d="M141.9,159.3c0,0-1.9-0.2-2.6,1.2c-2.6,1-4.2-1.2-8.9,0"/>
		<path id="XMLID_224_" class="st14" d="M141.5,161.3c0,0-1.5-0.1-2.1,0.6c-2.1,0.5-3.3-0.6-7.1,0"/>
	</g>
	<g id="eyebrow">
		<path id="XMLID_221_" class="st11" d="M136.6,166.7c0.9-2-9.1-2.6-12.6,0.9C123.8,160.8,137.3,160.1,136.6,166.7z"/>
		<path id="XMLID_217_" class="st11" d="M146.9,164.9c-0.7-1.9-4.6-1.8-5.8,1.1C140.1,160,146.9,160,146.9,164.9z"/>
	</g>
	<g id="eyes">
		<g id="left_x5F_eye">
			<path id="XMLID_212_" class="st15" d="M135.6,174.2c0.3,3.9-8.5,6.3-10.3,1.1C125.3,170.8,134.7,170.5,135.6,174.2z"/>
			<ellipse id="XMLID_206_" class="st16" cx="129.6" cy="175" rx="2.6" ry="2.5"/>
			<ellipse id="XMLID_200_" class="st17" cx="128.1" cy="174.2" rx="0.9" ry="0.8"/>
			<ellipse id="XMLID_194_" class="st18" cx="129.6" cy="175.1" rx="1" ry="1"/>
		</g>
		<g id="right_x5F_eye">
			<path id="XMLID_188_" class="st15" d="M147.6,173.2c0.2,2.7-4.9,4.4-6,0.8C141.6,170.8,147.1,170.6,147.6,173.2z"/>
			<ellipse id="XMLID_183_" class="st16" cx="144.4" cy="173.7" rx="2.6" ry="2.5"/>
			<ellipse id="XMLID_180_" class="st17" cx="142.9" cy="172.9" rx="0.9" ry="0.8"/>
			<ellipse id="XMLID_177_" class="st18" cx="144.4" cy="173.9" rx="1" ry="1"/>
		</g>
	</g>
	<path id="nose" class="st14" d="M140.4,171.4c-1.2,7.9,3.5,8.6,3.5,8.6c3,0.4-0.6,4.8-4.7,4.5"/>
	<g id="glasses" class="st19">
		<path id="XMLID_176_" class="st20" d="M126.4,169.4c-13.1,2.6-2.1,23.4,9,8.5C139,171.6,136.4,167.6,126.4,169.4z"/>
		<path id="XMLID_174_" class="st20" d="M149.8,168.2c10.4,2.5,1.7,21.9-7.2,8C139.7,170.2,141.8,166.5,149.8,168.2z"/>
		<path id="XMLID_166_" class="st21" d="M149.8,168L149.8,168c-1.5-0.3-2.8-0.4-3.9-0.4l0,0c-12.5,0.6-16.4,1.2-17.3,1.3
			c-0.7,0.1-1.4,0.2-2.2,0.3l0,0c-2.6,0.5-4.5,1.8-5.4,3.7c-2.8-0.1-11.9,1.6-12.3,1.7l0.2,0.8c0.1,0,8.7-1.6,11.7-1.7
			c-0.2,0.5-0.3,1.1-0.3,1.7c-0.2,3.3,1.9,6.7,4.9,7.8c0.5,0.2,1.2,0.3,2,0.3c2.1,0,5.1-1.1,8.4-5.4c1.4-2.4,1.9-4.4,1.5-6l0.3,0
			c0.1-1.3,0.7-2.1,1.6-2.1c0.9-0.1,1.9,0.6,2.2,1.5l0,0c-0.1,1.3,0.4,3,1.3,4.8c2.6,4.1,5.1,5.1,6.7,5.1c0.4,0,0.8-0.1,1.1-0.1
			c2.5-0.7,4.5-3.8,4.4-7.1C154.6,171,152.8,168.7,149.8,168z M135.2,177.8c-4.3,5.7-8,5.5-9.9,4.9c-2.8-1-4.9-4.2-4.6-7.3
			c0.2-3,2.3-5.1,5.8-5.8c4.9-0.9,8.2-0.4,9.6,1.4C137.2,172.5,136.9,174.9,135.2,177.8z M138.9,169.6c-0.5,0-1.7,0.4-1.9,2.3
			c-0.1-0.4-0.3-0.8-0.6-1.1c-0.8-1.1-2.3-1.7-4.3-1.9c2.3-0.2,5.9-0.5,11.4-0.8c-0.6,0.3-1.1,0.6-1.5,1c-0.4,0.5-0.6,1-0.8,1.7
			C140.8,170,139.8,169.5,138.9,169.6z M150.2,180.8c-2.4,0.7-5-1-7.4-4.7c-1.5-3-1.6-5.4-0.5-6.8c0.8-0.9,2.1-1.4,4-1.4
			c1,0,2.1,0.1,3.4,0.4c4.1,1,4.6,4.3,4.6,5.7C154.4,177.2,152.6,180.2,150.2,180.8z"/>
	</g>
	<path id="XMLID_163_" class="st22" d="M104.1,177.5c2-1.9,4.5,0.5,4.5,0.5c-1.6,1.2,0,3.8,0,3.8"/>
	<path id="XMLID_267_" class="st23" d="M137.8,248.9c-3.1-5.1-14.1-32.9-19.3-46.2c0.1,0,0.1,0,0.1,0s-0.1-1.2,1.9-1.9
		c13.6,10.7,18.6,3.1,21.6,5.9l0,0C142.3,216.5,142,238.8,137.8,248.9z"/>
	<path id="XMLID_266_" class="st24" d="M137.9,218.4c1.3,2.8,2.2,13.3,2.4,21.1c-0.5,2.7-1,5.2-1.7,7.4c-0.2,0.7-0.5,1.4-0.7,2
		c-0.3-0.5-0.7-1.2-1.1-2.1c-1.3-2.5-3-6.6-5-11.3l0.3-16.9c0,0-1.8-1-3.8-4.1c0,0,4-6,6-6.5c4.3,2.5,6,6.4,6,6.4
		S140.2,217.2,137.9,218.4z"/>
	<path id="XMLID_265_" class="st25" d="M216.6,206.3c-1.3,3.1-9.9,6.1-12.5,6.3c0,0,0.2,0.9,0.3,2.2c-2.8,2.8-29.3,15.6-35.1,14.2
		c-0.3,0-18.2-1.5-18.1-0.1c0.1,1.4,1.5,19.3-3.1,19.3c4,2.2,7.5,0,9.4,1.1c8,3,4.4,4.2,3.2,3.4c-3.8-3-4.3,0.4-2.3,2.2
		c9.6,5.2,7.5,7.8,4.4,7.9c-3,0.1-12.2-3.8-13.5-5.8c0,0,0.2-1-1-0.8c0,0-2,4.7-1.4,9.9c0.7,2.8,1.2,15.9,1.2,15.9l-1.7,1.2
		l1.2,104.1h-1.4c3.8,1.9,1.9,6.3,13.8,10.9c13.7,6.6-9.6,8.1-18.8,0.5c-2.5,0.7-6.5,0-6.5,0l-0.7-1.4c0,0-0.4-4.8,1-9.5h-2.2
		l-4.3-87.3l-18.9,88.3c0,0-2.8-0.8-2.4,1.9c2.2,4.6,2.2,8.8-0.7,9.4c-5.7-1.2-14.4,7.3-24.3,5c-6.1-0.1-5.4-5.4,3.7-6.3
		c5.9-2.7,2.4-1.6,8.9-7.7c0.2-1.2,0-2.7-1-2.7c-0.3-1.6,12-106.7,12-106.7s0.8-0.7-1.6-0.5c2.1-9.6,0.3-20.8-2.1-30.5
		c-0.7-7.4-16.6-20.5-6.2-38.9c10.1-7.7,21.3-9,22.6-9.1c5.2,13.4,16.2,41.2,19.3,46.2c4.2-10.1,4.5-32.4,4.4-42.2
		c3.1,2.8,27.8,12.1,30.2,10.7l28.4-11.3l0.8,0.5c0,0,0.7,0.4,2.5-4.6c1.8-3.2,3.6,1.8,1.6,3.3c0,0,0.9,2.1,4.3-1.1
		C214.1,201.5,217.9,203.1,216.6,206.3z"/>
	<path id="XMLID_264_" d="M107.3,390.7c2.2,4.6,2.2,8.8-0.7,9.4c-5.7-1.2-14.4,7.3-24.3,5c-6.1-0.1-5.4-5.4,3.7-6.3
		c5.6-3.5,8.8-8.2,8.9-7.7S107.1,389.3,107.3,390.7z"/>
	<path id="XMLID_263_" d="M141.4,398.8c-2.5,0.7-6.5,0-6.5,0l-0.7-1.4c0,0-0.4-4.8,1-9.5h-0.4l11.9-0.3c3.5,1.9,1.9,6.3,13.6,10.8
		C173.9,404.9,150.6,406.4,141.4,398.8z"/>
	<path id="XMLID_260_" class="st13" d="M162.9,262.8c-3,0.1-12.2-3.8-13.5-5.8c0,0,0.1-0.8-0.6-0.8c0.4-1.8,0.8-4.9-0.3-7.9
		c3.8,2,7.3-0.1,9.1,1c8,3,4.4,4.2,3.2,3.4c-3.8-3-4.3,0.4-2.3,2.2C168,260.1,165.9,262.7,162.9,262.8z"/>
	<path id="XMLID_256_" class="st13" d="M216.6,206.3c-1.3,3.1-9.7,6.1-12.4,6.3c-0.9-2.1-2.2-4.8-3.3-6.4l0.6,0.4
		c0,0,0.7,0.4,2.5-4.6c1.8-3.2,3.6,1.8,1.6,3.3c0,0,0.9,2.1,4.3-1.1C214.1,201.5,217.9,203.1,216.6,206.3z"/>
	<g id="mouth">
		<path id="XMLID_160_" class="st14" d="M142.2,194.5c0,1.8-4.4,2-5.2,0.8"/>
		<g id="mouth_x5F_lines">
			<path id="XMLID_158_" class="st14" d="M135.9,184.5c-3.6,0.9-5.9,6.8-5.9,6.8"/>
			<path id="XMLID_157_" class="st14" d="M145.4,184.2c3.2,1.7,2,9.9,2,9.9"/>
		</g>
		<path id="XMLID_82_" class="st11" d="M143.8,190.3c0.2,3.9-7,5.3-10.6,1C137.6,190.3,143.8,190.3,143.8,190.3z"/>
		<path id="XMLID_61_" class="st26" d="M140.9,191.3c0.1,1.8-3.3,2.5-4.9,0.5C138.1,191.3,140.9,191.3,140.9,191.3z"/>
		<path id="XMLID_51_" class="st27" d="M147.6,191c-0.6-5.7-18.1-4.4-18.1,0.8v7.9c0,0,0,0.3,1.7,5.3c1.7,5.1,15.7,4.3,16.6-2.2
			C147.9,202.8,147.9,198.1,147.6,191z M142.7,198.5h-2.9v2.6c-5.1,1.6-8.6-0.5-7.9-10.3c1.5-2.6,13.1-2.5,13.8-0.5
			C147.3,194.9,143.6,205.6,142.7,198.5z"/>
	</g>
</g>
</svg>
