<?xml version="1.0" encoding="utf-8"?>
<!-- Generator: Adobe Illustrator 19.0.0, SVG Export Plug-In . SVG Version: 6.00 Build 0)  -->
<svg version="1.1" id="Layer_1" xmlns="http://www.w3.org/2000/svg" xmlns:xlink="http://www.w3.org/1999/xlink" x="0px" y="0px"
	 viewBox="0 0 1140 560" style="enable-background:new 0 0 1140 560;" xml:space="preserve">
<style type="text/css">
	.Drop_x0020_Shadow{fill:none;}
	.Outer_x0020_Glow_x0020_5_x0020_pt{fill:none;}
	.Blue_x0020_Neon{fill:none;stroke:#8AACDA;stroke-width:7;stroke-linecap:round;stroke-linejoin:round;}
	.Chrome_x0020_Highlight{fill:url(#SVGID_1_);stroke:#FFFFFF;stroke-width:0.3629;stroke-miterlimit:1;}
	.Jive_GS{fill:#FFDD00;}
	.Alyssa_GS{fill:#A6D0E4;}
	.st0{fill:#B7B7B7;}
	.st1{opacity:0.1;}
	.st2{fill:#F9CB10;}
	.st3{fill:#F7F8FC;}
	.st4{opacity:0.75;fill:#F9CB10;}
	.st5{opacity:0.15;}
	.st6{fill:#181E13;}
	.st7{fill:#3C3129;}
	.st8{fill:#B36843;}
	.st9{fill:none;stroke:#181E13;stroke-miterlimit:10;}
	.st10{fill:#ABB09B;}
	.st11{fill:#3D3E28;}
	.st12{fill:#B5C2B4;}
	.st13{fill:#3A4039;}
	.st14{opacity:0.5;}
	.st15{fill:#968F6F;}
	.st16{fill:#504C46;}
	.st17{fill:none;stroke:#000000;stroke-miterlimit:10;}
	.st18{fill:#D8D7C7;}
	.st19{fill:#FF0808;}
	.st20{fill:#1D322B;}
	.st21{fill:#FFFFFF;}
	.st22{fill:#181E13;stroke:#181E13;stroke-miterlimit:10;}
</style>
<linearGradient id="SVGID_1_" gradientUnits="userSpaceOnUse" x1="0" y1="0" x2="4.489659e-011" y2="-1">
	<stop  offset="0" style="stop-color:#656565"/>
	<stop  offset="0.618" style="stop-color:#1B1B1B"/>
	<stop  offset="0.6292" style="stop-color:#545454"/>
	<stop  offset="0.9831" style="stop-color:#3E3E3E"/>
</linearGradient>
<rect id="XMLID_1_" class="st0" width="1140" height="560"/>
<g id="XMLID_11_">
	<g id="XMLID_818_">
		<g id="XMLID_850_" class="st1">
			<g id="XMLID_851_">
				<g id="XMLID_880_">
					<path id="XMLID_881_" class="st2" d="M1138.7,490.2l-0.4-0.4c-1.7-1.7-4.5-1.7-6.2,0l-12.8,12.8c-1.7,1.7-1.7,4.5,0,6.2
						l0.4,0.4c1.7,1.7,4.5,1.7,6.2,0l12.8-12.8C1140.4,494.7,1140.4,492,1138.7,490.2z"/>
				</g>
				<g id="XMLID_878_">
					<path id="XMLID_879_" class="st2" d="M1116,346.1l-0.4-0.4c-1.7-1.7-4.5-1.7-6.2,0l-12.8,12.8c-1.7,1.7-1.7,4.5,0,6.2l0.4,0.4
						c1.7,1.7,4.5,1.7,6.2,0l12.8-12.8C1117.7,350.6,1117.7,347.8,1116,346.1z"/>
				</g>
				<g id="XMLID_876_">
					<path id="XMLID_877_" class="st2" d="M935.8,357.7L935.8,357.7c-1.1-1.1-2.9-1.1-3.9,0l-6.4,6.4c-1.1,1.1-1.1,2.9,0,3.9l0,0
						c1.1,1.1,2.9,1.1,3.9,0l6.4-6.4C936.9,360.5,936.9,358.7,935.8,357.7z"/>
				</g>
				<g id="XMLID_874_">
					<path id="XMLID_875_" class="st2" d="M960.6,321.9l-0.1-0.1c-0.2-0.2-0.5-0.2-0.7,0l-43.3,43.3c-0.2,0.2-0.2,0.5,0,0.7l0.1,0.1
						c0.2,0.2,0.5,0.2,0.7,0l43.3-43.3C960.8,322.4,960.8,322,960.6,321.9z"/>
				</g>
				<g id="XMLID_872_">
					<path id="XMLID_873_" class="st2" d="M878.7,560l22.5-22.5c1.1-1.1,2.9-1.1,3.9,0s1.1,2.9,0,3.9L886.6,560H878.7z"/>
				</g>
				<g id="XMLID_870_">
					<path id="XMLID_871_" class="st2" d="M849.7,496L849.7,496c-1.3-1.3-3.3-1.3-4.6,0l-6.8,6.8c-1.3,1.3-1.3,3.3,0,4.6l0,0
						c1.3,1.3,3.3,1.3,4.6,0l6.8-6.8C851,499.3,851,497.3,849.7,496z"/>
				</g>
				<g id="XMLID_868_">
					<path id="XMLID_869_" class="st2" d="M865,439.6L865,439.6c-1.2-1.2-3.2-1.2-4.3,0l-23.8,23.8c-1.2,1.2-1.2,3.2,0,4.3l0,0
						c1.2,1.2,3.2,1.2,4.3,0L865,444C866.2,442.8,866.2,440.8,865,439.6z"/>
				</g>
				<g id="XMLID_866_">
					<path id="XMLID_867_" class="st2" d="M830.6,382.8L830.6,382.8c-1.2-1.2-3.2-1.2-4.3,0L810,399c-1.2,1.2-1.2,3.2,0,4.3l0,0
						c1.2,1.2,3.2,1.2,4.3,0l16.2-16.2C831.8,386,831.8,384,830.6,382.8z"/>
				</g>
				<g id="XMLID_864_">
					<path id="XMLID_865_" class="st2" d="M845.8,560l56.1-56.1c0.2-0.2,0.6-0.2,0.8,0l0,0c0.2,0.2,0.2,0.6,0,0.8L847.4,560H845.8z"
						/>
				</g>
				<g id="XMLID_862_">
					<path id="XMLID_863_" class="st2" d="M1022.6,555.1l55.9-55.9c2.2-2.2,5.7-2.2,7.8,0c2.2,2.2,2.2,5.7,0,7.8l-52.9,52.9H1021
						C1020.7,558.3,1021.2,556.4,1022.6,555.1z"/>
				</g>
				<g id="XMLID_860_">
					<path id="XMLID_861_" class="st2" d="M1114.1,451.4L1114.1,451.4c-0.4-0.4-1.2-0.4-1.6,0l-30.2,30.2c-0.4,0.4-0.4,1.2,0,1.6
						l0,0c0.4,0.4,1.2,0.4,1.6,0l30.2-30.2C1114.5,452.5,1114.5,451.8,1114.1,451.4z"/>
				</g>
				<g id="XMLID_858_">
					<path id="XMLID_859_" class="st2" d="M1090,389.5L1090,389.5c-0.2-0.2-0.6-0.2-0.8,0l-63,63c-0.2,0.2-0.2,0.6,0,0.8l0,0
						c0.2,0.2,0.6,0.2,0.8,0l63-63C1090.2,390,1090.2,389.7,1090,389.5z"/>
				</g>
				<g id="XMLID_856_">
					<path id="XMLID_857_" class="st2" d="M1020.7,464.1l-0.1-0.1c-8.6-8.6-22.7-8.6-31.4,0l-58,58c-8.6,8.6-8.6,22.7,0,31.4
						l0.1,0.1c8.6,8.6,22.7,8.6,31.4,0l58-58C1029.4,486.8,1029.4,472.7,1020.7,464.1z"/>
				</g>
				<g id="XMLID_854_">
					<path id="XMLID_855_" class="st2" d="M1040.1,350.2L1040.1,350.2c-4.9-4.9-12.9-4.9-17.8,0L918.4,454.1
						c-4.9,4.9-4.9,12.9,0,17.8l0,0c4.9,4.9,12.9,4.9,17.8,0L1040.1,368C1045,363.1,1045,355.1,1040.1,350.2z"/>
				</g>
				<g id="XMLID_852_">
					<path id="XMLID_853_" class="st2" d="M738.3,560c0.7-2.3,2-4.4,3.8-6.2l41.1-41.1c6-6,15.8-6,21.8,0c6,6,6,15.8,0,21.8
						L779.4,560H738.3z"/>
				</g>
			</g>
		</g>
		<g id="XMLID_819_" class="st1">
			<g id="XMLID_848_">
				<path id="XMLID_849_" class="st2" d="M783.7,69.8l0.4,0.4c1.7,1.7,4.5,1.7,6.2,0l12.8-12.8c1.7-1.7,1.7-4.5,0-6.2l-0.4-0.4
					c-1.7-1.7-4.5-1.7-6.2,0l-12.8,12.8C782,65.3,782,68,783.7,69.8z"/>
			</g>
			<g id="XMLID_846_">
				<path id="XMLID_847_" class="st2" d="M806.4,213.9l0.4,0.4c1.7,1.7,4.5,1.7,6.2,0l12.8-12.8c1.7-1.7,1.7-4.5,0-6.2l-0.4-0.4
					c-1.7-1.7-4.5-1.7-6.2,0l-12.8,12.8C804.7,209.4,804.7,212.2,806.4,213.9z"/>
			</g>
			<g id="XMLID_844_">
				<path id="XMLID_845_" class="st2" d="M986.6,202.3L986.6,202.3c1.1,1.1,2.9,1.1,3.9,0l6.4-6.4c1.1-1.1,1.1-2.9,0-3.9l0,0
					c-1.1-1.1-2.9-1.1-3.9,0l-6.4,6.4C985.6,199.5,985.6,201.3,986.6,202.3z"/>
			</g>
			<g id="XMLID_842_">
				<path id="XMLID_843_" class="st2" d="M961.9,238.1l0.1,0.1c0.2,0.2,0.5,0.2,0.7,0l43.3-43.3c0.2-0.2,0.2-0.5,0-0.7l-0.1-0.1
					c-0.2-0.2-0.5-0.2-0.7,0l-43.3,43.3C961.7,237.6,961.7,238,961.9,238.1z"/>
			</g>
			<g id="XMLID_840_">
				<path id="XMLID_841_" class="st2" d="M1043.7,0l-22.5,22.5c-1.1,1.1-2.9,1.1-3.9,0c-1.1-1.1-1.1-2.9,0-3.9L1035.9,0H1043.7z"/>
			</g>
			<g id="XMLID_838_">
				<path id="XMLID_839_" class="st2" d="M1072.7,64L1072.7,64c1.3,1.3,3.3,1.3,4.6,0l6.8-6.8c1.3-1.3,1.3-3.3,0-4.6v0
					c-1.3-1.3-3.3-1.3-4.6,0l-6.8,6.8C1071.4,60.7,1071.4,62.7,1072.7,64z"/>
			</g>
			<g id="XMLID_836_">
				<path id="XMLID_837_" class="st2" d="M1057.4,120.4L1057.4,120.4c1.2,1.2,3.2,1.2,4.3,0l23.8-23.8c1.2-1.2,1.2-3.2,0-4.3v0
					c-1.2-1.2-3.2-1.2-4.3,0l-23.8,23.8C1056.2,117.2,1056.2,119.2,1057.4,120.4z"/>
			</g>
			<g id="XMLID_834_">
				<path id="XMLID_835_" class="st2" d="M1091.9,177.2L1091.9,177.2c1.2,1.2,3.2,1.2,4.3,0l16.2-16.2c1.2-1.2,1.2-3.2,0-4.3l0,0
					c-1.2-1.2-3.2-1.2-4.3,0l-16.2,16.2C1090.7,174,1090.7,176,1091.9,177.2z"/>
			</g>
			<g id="XMLID_832_">
				<path id="XMLID_833_" class="st2" d="M1076.6,0l-56.1,56.1c-0.2,0.2-0.6,0.2-0.8,0l0,0c-0.2-0.2-0.2-0.6,0-0.8L1075,0H1076.6z"
					/>
			</g>
			<g id="XMLID_830_">
				<path id="XMLID_831_" class="st2" d="M899.9,4.9L844,60.8c-2.2,2.2-5.7,2.2-7.8,0c-2.2-2.2-2.2-5.7,0-7.8L889.1,0h12.3
					C901.7,1.7,901.2,3.6,899.9,4.9z"/>
			</g>
			<g id="XMLID_828_">
				<path id="XMLID_829_" class="st2" d="M808.4,108.6L808.4,108.6c0.4,0.4,1.2,0.4,1.6,0l30.2-30.2c0.4-0.4,0.4-1.2,0-1.6l0,0
					c-0.4-0.4-1.2-0.4-1.6,0L808.4,107C807.9,107.5,807.9,108.2,808.4,108.6z"/>
			</g>
			<g id="XMLID_826_">
				<path id="XMLID_827_" class="st2" d="M832.5,170.5L832.5,170.5c0.2,0.2,0.6,0.2,0.8,0l63-63c0.2-0.2,0.2-0.6,0-0.8l0,0
					c-0.2-0.2-0.6-0.2-0.8,0l-63,63C832.2,170,832.2,170.3,832.5,170.5z"/>
			</g>
			<g id="XMLID_824_">
				<path id="XMLID_825_" class="st2" d="M901.7,95.9l0.1,0.1c8.6,8.6,22.7,8.6,31.4,0l58-58c8.6-8.6,8.6-22.7,0-31.4l-0.1-0.1
					c-8.6-8.6-22.7-8.6-31.4,0l-58,58C893.1,73.2,893.1,87.3,901.7,95.9z"/>
			</g>
			<g id="XMLID_822_">
				<path id="XMLID_823_" class="st2" d="M882.3,209.8L882.3,209.8c4.9,4.9,12.9,4.9,17.8,0L1004,105.9c4.9-4.9,4.9-12.9,0-17.8l0,0
					c-4.9-4.9-12.9-4.9-17.8,0L882.3,192C877.4,196.9,877.4,204.9,882.3,209.8z"/>
			</g>
			<g id="XMLID_820_">
				<path id="XMLID_821_" class="st2" d="M1140,3v43.6l-0.7,0.7c-6,6-15.8,6-21.8,0c-6-6-6-15.8,0-21.8L1140,3z"/>
			</g>
		</g>
	</g>
</g>
<g id="XMLID_5_">
	<path id="XMLID_16_" class="st2" d="M0,5.8l0,270.3L251.2,560h38.1c48.1,0,87.6-39,87.6-87.1V87.1C377,39,337.5,0,289.4,0L5.8,0
		C2.6,0,0,2.6,0,5.8z"/>
	<path id="XMLID_7_" class="st3" d="M1090.1,470.6H50c-3.3,0-6-2.7-6-6V95.9c0-3.3,2.7-6,6-6h1040c3.3,0,6,2.7,6,6v368.7
		C1096.1,467.9,1093.4,470.6,1090.1,470.6z"/>
</g>
<g id="XMLID_10_">
	<g id="XMLID_9_" class="st1">
		<path id="XMLID_102_" class="st0" d="M1.3,69.8l0.4,0.4c1.7,1.7,4.5,1.7,6.2,0l12.8-12.8c1.7-1.7,1.7-4.5,0-6.2l-0.4-0.4
			c-1.7-1.7-4.5-1.7-6.2,0L1.3,63.5C-0.4,65.3-0.4,68,1.3,69.8z"/>
		<path id="XMLID_99_" class="st0" d="M24,213.9l0.4,0.4c1.7,1.7,4.5,1.7,6.2,0l12.8-12.8c1.7-1.7,1.7-4.5,0-6.2l-0.4-0.4
			c-1.7-1.7-4.5-1.7-6.2,0L24,207.7C22.3,209.4,22.3,212.2,24,213.9z"/>
		<path id="XMLID_96_" class="st0" d="M204.2,202.3L204.2,202.3c1.1,1.1,2.9,1.1,3.9,0l6.4-6.4c1.1-1.1,1.1-2.9,0-3.9l0,0
			c-1.1-1.1-2.9-1.1-3.9,0l-6.4,6.4C203.1,199.5,203.1,201.3,204.2,202.3z"/>
		<path id="XMLID_93_" class="st0" d="M179.4,238.1l0.1,0.1c0.2,0.2,0.5,0.2,0.7,0l43.3-43.3c0.2-0.2,0.2-0.5,0-0.7l-0.1-0.1
			c-0.2-0.2-0.5-0.2-0.7,0l-43.3,43.3C179.2,237.6,179.2,238,179.4,238.1z"/>
		<path id="XMLID_90_" class="st0" d="M261.3,0l-22.5,22.5c-1.1,1.1-2.9,1.1-3.9,0c-1.1-1.1-1.1-2.9,0-3.9L253.4,0H261.3z"/>
		<path id="XMLID_87_" class="st0" d="M290.3,64L290.3,64c1.3,1.3,3.3,1.3,4.6,0l6.8-6.8c1.3-1.3,1.3-3.3,0-4.6v0
			c-1.3-1.3-3.3-1.3-4.6,0l-6.8,6.8C289,60.7,289,62.7,290.3,64z"/>
		<path id="XMLID_84_" class="st0" d="M275,120.4L275,120.4c1.2,1.2,3.2,1.2,4.3,0l23.8-23.8c1.2-1.2,1.2-3.2,0-4.3l0,0
			c-1.2-1.2-3.2-1.2-4.3,0L275,116C273.8,117.2,273.8,119.2,275,120.4z"/>
		<path id="XMLID_81_" class="st0" d="M309.4,177.2L309.4,177.2c1.2,1.2,3.2,1.2,4.3,0L330,161c1.2-1.2,1.2-3.2,0-4.3l0,0
			c-1.2-1.2-3.2-1.2-4.3,0l-16.2,16.2C308.2,174,308.2,176,309.4,177.2z"/>
		<path id="XMLID_78_" class="st0" d="M294.2,0l-56.1,56.1c-0.2,0.2-0.6,0.2-0.8,0l0,0c-0.2-0.2-0.2-0.6,0-0.8L292.6,0H294.2z"/>
		<path id="XMLID_75_" class="st0" d="M117.4,4.9L61.6,60.8c-2.2,2.2-5.7,2.2-7.8,0c-2.2-2.2-2.2-5.7,0-7.8L106.7,0H119
			C119.3,1.7,118.8,3.6,117.4,4.9z"/>
		<path id="XMLID_72_" class="st0" d="M25.9,108.6L25.9,108.6c0.4,0.4,1.2,0.4,1.6,0l30.2-30.2c0.4-0.4,0.4-1.2,0-1.6l0,0
			c-0.4-0.4-1.2-0.4-1.6,0L25.9,107C25.5,107.5,25.5,108.2,25.9,108.6z"/>
		<path id="XMLID_69_" class="st0" d="M50,170.5L50,170.5c0.2,0.2,0.6,0.2,0.8,0l63-63c0.2-0.2,0.2-0.6,0-0.8l0,0
			c-0.2-0.2-0.6-0.2-0.8,0l-63,63C49.8,170,49.8,170.3,50,170.5z"/>
		<path id="XMLID_66_" class="st0" d="M119.3,95.9l0.1,0.1c8.6,8.6,22.7,8.6,31.4,0l58-58c8.6-8.6,8.6-22.7,0-31.4l-0.1-0.1
			c-8.6-8.6-22.7-8.6-31.4,0l-58,58C110.6,73.2,110.6,87.3,119.3,95.9z"/>
		<path id="XMLID_63_" class="st0" d="M99.9,209.8L99.9,209.8c4.9,4.9,12.9,4.9,17.8,0l103.9-103.9c4.9-4.9,4.9-12.9,0-17.8l0,0
			c-4.9-4.9-12.9-4.9-17.8,0L99.9,192C95,196.9,95,204.9,99.9,209.8z"/>
		<path id="XMLID_60_" class="st0" d="M401.7,0c-0.7,2.3-2,4.4-3.8,6.2l-41.1,41.1c-6,6-15.8,6-21.8,0c-6-6-6-15.8,0-21.8L360.6,0
			H401.7z"/>
	</g>
	<g id="XMLID_13_" class="st1">
		<path id="XMLID_168_" class="st0" d="M356.3,490.2l-0.4-0.4c-1.7-1.7-4.5-1.7-6.2,0l-12.8,12.8c-1.7,1.7-1.7,4.5,0,6.2l0.4,0.4
			c1.7,1.7,4.5,1.7,6.2,0l12.8-12.8C358,494.7,358,492,356.3,490.2z"/>
		<path id="XMLID_165_" class="st0" d="M333.6,346.1l-0.4-0.4c-1.7-1.7-4.5-1.7-6.2,0l-12.8,12.8c-1.7,1.7-1.7,4.5,0,6.2l0.4,0.4
			c1.7,1.7,4.5,1.7,6.2,0l12.8-12.8C335.3,350.6,335.3,347.8,333.6,346.1z"/>
		<path id="XMLID_162_" class="st0" d="M153.4,357.7L153.4,357.7c-1.1-1.1-2.9-1.1-3.9,0l-6.4,6.4c-1.1,1.1-1.1,2.9,0,3.9l0,0
			c1.1,1.1,2.9,1.1,3.9,0l6.4-6.4C154.4,360.5,154.4,358.7,153.4,357.7z"/>
		<path id="XMLID_159_" class="st0" d="M178.1,321.9l-0.1-0.1c-0.2-0.2-0.5-0.2-0.7,0L134,365.1c-0.2,0.2-0.2,0.5,0,0.7l0.1,0.1
			c0.2,0.2,0.5,0.2,0.7,0l43.3-43.3C178.3,322.4,178.3,322,178.1,321.9z"/>
		<path id="XMLID_156_" class="st0" d="M96.3,560l22.5-22.5c1.1-1.1,2.9-1.1,3.9,0c1.1,1.1,1.1,2.9,0,3.9L104.1,560H96.3z"/>
		<path id="XMLID_153_" class="st0" d="M67.3,496L67.3,496c-1.3-1.3-3.3-1.3-4.6,0l-6.8,6.8c-1.3,1.3-1.3,3.3,0,4.6h0
			c1.3,1.3,3.3,1.3,4.6,0l6.8-6.8C68.6,499.3,68.6,497.3,67.3,496z"/>
		<path id="XMLID_150_" class="st0" d="M82.6,439.6L82.6,439.6c-1.2-1.2-3.2-1.2-4.3,0l-23.8,23.8c-1.2,1.2-1.2,3.2,0,4.3h0
			c1.2,1.2,3.2,1.2,4.3,0L82.6,444C83.8,442.8,83.8,440.8,82.6,439.6z"/>
		<path id="XMLID_130_" class="st0" d="M48.1,382.8L48.1,382.8c-1.2-1.2-3.2-1.2-4.3,0L27.6,399c-1.2,1.2-1.2,3.2,0,4.3h0
			c1.2,1.2,3.2,1.2,4.3,0l16.2-16.2C49.3,386,49.3,384,48.1,382.8z"/>
		<path id="XMLID_127_" class="st0" d="M63.4,560l56.1-56.1c0.2-0.2,0.6-0.2,0.8,0l0,0c0.2,0.2,0.2,0.6,0,0.8L65,560H63.4z"/>
		<path id="XMLID_124_" class="st0" d="M240.1,555.1l55.9-55.9c2.2-2.2,5.7-2.2,7.8,0c2.2,2.2,2.2,5.7,0,7.8L250.9,560h-12.3
			C238.3,558.3,238.8,556.4,240.1,555.1z"/>
		<path id="XMLID_121_" class="st0" d="M331.6,451.4L331.6,451.4c-0.4-0.4-1.2-0.4-1.6,0l-30.2,30.2c-0.4,0.4-0.4,1.2,0,1.6l0,0
			c0.4,0.4,1.2,0.4,1.6,0l30.2-30.2C332.1,452.5,332.1,451.8,331.6,451.4z"/>
		<path id="XMLID_118_" class="st0" d="M307.5,389.5L307.5,389.5c-0.2-0.2-0.6-0.2-0.8,0l-63,63c-0.2,0.2-0.2,0.6,0,0.8l0,0
			c0.2,0.2,0.6,0.2,0.8,0l63-63C307.8,390,307.8,389.7,307.5,389.5z"/>
		<path id="XMLID_114_" class="st0" d="M238.3,464.1l-0.1-0.1c-8.6-8.6-22.7-8.6-31.4,0l-58,58c-8.6,8.6-8.6,22.7,0,31.4l0.1,0.1
			c8.6,8.6,22.7,8.6,31.4,0l58-58C246.9,486.8,246.9,472.7,238.3,464.1z"/>
		<path id="XMLID_21_" class="st0" d="M257.7,350.2L257.7,350.2c-4.9-4.9-12.9-4.9-17.8,0L136,454.1c-4.9,4.9-4.9,12.9,0,17.8l0,0
			c4.9,4.9,12.9,4.9,17.8,0L257.7,368C262.6,363.1,262.6,355.1,257.7,350.2z"/>
		<path id="XMLID_14_" class="st0" d="M0,557l0-43.6l0.7-0.7c6-6,15.8-6,21.8,0c6,6,6,15.8,0,21.8L0,557z"/>
	</g>
</g>
<g id="head">
	<path id="XMLID_17_" class="st4" d="M1090.1,470.6H805.4V89.8h284.7c3.3,0,6,2.7,6,6v368.7C1096.1,467.9,1093.4,470.6,1090.1,470.6
		z"/>
	<path id="XMLID_382_" class="st2" d="M805.4,285.3v185.4h284.7c3.3,0,6-2.7,6-6V293.1h-6.3v37.2l-9.8,4.4V311h-7v-70.4H1048V311
		h-8.6v27.6h-5.4V290h-14.3v-5.5h-6.9v5.5h-5.2v41l-7.2-3.2v-28.2h-3V290h-6.9v9.6h-26.7v-54.8h-31.1v54.8h-14.1V315h-3.5v-33.1
		h-17.9V315h-3.4v-38.6h-38.4V315h-8.2V244h5.2v-5l-0.6-1.4h77l-9-3.3l-11.5-4.2l-5-1.8l-27.4-10l-31.6-11.5
		c-0.2-0.8-0.8-1.5-1.7-1.9c-0.3-0.1-0.7-0.2-1-0.3c-0.1,0-0.2,0-0.3,0c-0.2,0-0.4,0-0.6,0c-0.4,0.1-0.7,0.2-1,0.4
		c-0.9,0.5-1.5,1.4-1.5,2.5c0,0.8,0.4,1.5,0.9,2.1l-2.1,16.9H835v17.7h3v70.7h-6.6l-10.4-5.8l-2.1-1.2L812,304v-18.8H805.4z
		 M901.4,235.8l-3-2.9l3-2.8h1.7l15.6,5.7H901.4z M897.7,232.3l-2.3-2.2h4.5L897.7,232.3z M895.3,235.8l2.3-2.2l2.3,2.2H895.3z
		 M891.5,235.8l-3-2.9l3-2.8h2.5l3,2.8l-3,2.9H891.5z M887.8,232.3l-2.3-2.2h4.5L887.8,232.3z M885.4,235.8l2.3-2.2l2.4,2.2H885.4z
		 M881.7,235.8l-3-2.9l3-2.8h2.6l3,2.8l-3,2.9H881.7z M877.9,232.3l-2.3-2.2h4.5L877.9,232.3z M875.6,235.8l2.3-2.2l2.3,2.2H875.6z
		 M870.8,235.8l-3-2.9l3-2.8h3.5l3,2.8l-3,2.9H870.8z M867,232.3l-2.3-2.2h4.5L867,232.3z M864.7,235.8l2.3-2.2l2.3,2.2H864.7z
		 M859.9,235.8l-3-2.9l3-2.8h3.5l3,2.8l-3,2.9H859.9z M856.2,232.3l-2.3-2.2h4.5L856.2,232.3z M853.8,235.8l2.3-2.2l2.3,2.2H853.8z
		 M848.8,230.1h3.7l3,2.8l-3,2.9h-1.3L848.8,230.1z M845.3,226.4l-2-16.7c0.4-0.3,0.7-0.7,0.9-1.1l31.8,11.6l22.1,8.1h-50.8v-1.9
		H845.3z M838.2,226.4l2-16.3c0.4,0.2,0.8,0.3,1.2,0.3c0.3,0,0.6,0,1-0.2l2,16.2H838.2z"/>
	<ellipse id="XMLID_362_" class="st5" cx="1015.8" cy="403.4" rx="64.9" ry="16.9"/>
	<path id="XMLID_234_" class="st6" d="M1032.6,175.5l-4.9,5.3l-2.8-0.6l-27.1-29.4c-1.1-2.9,0.4-5.2,0.8-6c0.4-0.8,0.6-2.6,2.3-2.6
		c-0.2-2.9,3-2.2,3-2.2s0.4-1.6,3.3-1.4c0.3-1.3,3.9-0.7,3.9-0.7s2.5-1.2,5.7,0.4c1.8-0.7,3.2,0.9,3.2,0.9c1.8-0.8,3.9,0.7,3.9,0.7
		s2.1-0.4,3,1.7c2.8,0.1,3,1.7,3,1.7s1.9-0.5,2.3,1.7c2.4,0.1,3.2,2.5,3.2,2.5s1.8-0.4,1.9,1.7c2.5,0.9,1.5,2.6,1.5,2.6
		c0.9,0.4,1.4,2,0.2,3.3c0,2.5-0.3,2.9-0.5,3s0,2.7-0.7,3.1C1037.5,165.3,1032.6,175.5,1032.6,175.5z"/>
	<path id="XMLID_230_" class="st7" d="M997.6,150.5c0,0.1,0.1,0.3,0.2,0.4l27.1,29.4l2.8,0.6l4.9-5.3c0,0,4.4-9.2,5.1-13.6l0,0
		c-3.7-2.1-11.1-7.4-11.1-7.4l-10.5-2.6l-8.1,2.1L997.6,150.5z"/>
	<path id="face" class="st8" d="M1033.5,173.8c8.6,0.5,1.7,12.9-3.5,11.4c-1.6-1.3-2.4,0.3-2.5,1c-0.1,0.8-3.7,9-6.3,11.1
		s-2.1,8.2-1.9,11.1c0.2,2.9,0.2,4.9,0.2,4.9c-4,4.3-10.1,5.4-10.7,2.3v-9.9l-16.7-3.1c0,0,0.9-6.7,0-9.8
		c-0.9-3.1-0.7-22.1,1.4-25.5c-0.9-8.4,2.6-20.5,11.8-20.5c4.3-0.2,13.5-0.5,20.3,3.4c3.7,2.1,0.5,8.2-0.9,10.9
		c-1.5,2.6-0.6,3-0.2,4.3c1.9,7.1,1.4,12.1,1.4,13s0.2,0.6,0.2,0.6h2.4C1028.5,173.8,1033.5,173.8,1033.5,173.8z"/>
	<g id="forehead">
		<path id="XMLID_227_" class="st9" d="M998.2,159.3c0,0,1.9-0.2,2.6,1.2c2.6,1,4.2-1.2,8.9,0"/>
		<path id="XMLID_224_" class="st9" d="M998.6,161.3c0,0,1.5-0.1,2.1,0.6c2.1,0.5,3.3-0.6,7.1,0"/>
	</g>
	<g id="eyebrow">
		<path id="XMLID_221_" class="st6" d="M1003.5,166.7c-0.9-2,9.1-2.6,12.6,0.9C1016.3,160.8,1002.8,160.1,1003.5,166.7z"/>
		<path id="XMLID_217_" class="st6" d="M993.2,164.9c0.7-1.9,4.6-1.8,5.8,1.1C1000,160,993.2,160,993.2,164.9z"/>
	</g>
	<g id="eyes">
		<g id="left_x5F_eye">
			<path id="XMLID_212_" class="st10" d="M1004.5,174.2c-0.3,3.9,8.5,6.3,10.3,1.1C1014.8,170.8,1005.4,170.5,1004.5,174.2z"/>
			<ellipse id="XMLID_206_" class="st11" cx="1010.5" cy="175" rx="2.6" ry="2.5"/>
			<ellipse id="XMLID_200_" class="st12" cx="1012" cy="174.2" rx="0.9" ry="0.8"/>
			<ellipse id="XMLID_194_" class="st13" cx="1010.5" cy="175.1" rx="1" ry="1"/>
		</g>
		<g id="right_x5F_eye">
			<path id="XMLID_188_" class="st10" d="M992.5,173.2c-0.2,2.7,4.9,4.4,6,0.8C998.5,170.8,993,170.6,992.5,173.2z"/>
			<ellipse id="XMLID_183_" class="st11" cx="995.7" cy="173.7" rx="2.6" ry="2.5"/>
			<ellipse id="XMLID_180_" class="st12" cx="997.2" cy="172.9" rx="0.9" ry="0.8"/>
			<ellipse id="XMLID_177_" class="st13" cx="995.7" cy="173.9" rx="1" ry="1"/>
		</g>
	</g>
	<path id="nose" class="st9" d="M999.7,171.4c1.2,7.9-3.5,8.6-3.5,8.6c-3,0.4,0.6,4.8,4.7,4.5"/>
	<g id="glasses" class="st14">
		<path id="XMLID_176_" class="st15" d="M1013.7,169.4c13.1,2.6,2.1,23.4-9,8.5C1001.1,171.6,1003.7,167.6,1013.7,169.4z"/>
		<path id="XMLID_174_" class="st15" d="M990.3,168.2c-10.4,2.5-1.7,21.9,7.2,8C1000.4,170.2,998.3,166.5,990.3,168.2z"/>
		<path id="XMLID_166_" class="st16" d="M985.4,174.1c-0.1,3.3,1.9,6.4,4.4,7.1c0.3,0.1,0.7,0.1,1.1,0.1c1.6,0,4.1-0.9,6.7-5.1
			c0.9-1.8,1.3-3.5,1.3-4.8l0,0c0.3-0.9,1.3-1.6,2.2-1.5c0.9,0.1,1.5,0.9,1.6,2.1l0.3,0c-0.4,1.6,0.1,3.6,1.5,6
			c3.3,4.4,6.2,5.4,8.4,5.4c0.8,0,1.5-0.1,2-0.3c3-1,5.2-4.4,4.9-7.8c0-0.6-0.2-1.1-0.3-1.7c3.1,0.1,11.6,1.6,11.7,1.7l0.2-0.8
			c-0.4-0.1-9.4-1.8-12.3-1.7c-0.9-1.9-2.8-3.1-5.4-3.7l0,0c-0.8-0.1-1.5-0.2-2.2-0.3c-1-0.2-4.8-0.7-17.3-1.3l0,0
			c-1.1,0-2.4,0.1-3.9,0.4l0,0C987.3,168.7,985.5,171,985.4,174.1z M1004,171c1.4-1.8,4.7-2.3,9.6-1.4c3.5,0.7,5.6,2.8,5.8,5.8
			c0.2,3.2-1.8,6.4-4.6,7.3c-1.8,0.6-5.6,0.8-9.9-4.9C1003.2,174.9,1002.9,172.5,1004,171z M998.8,170.8c-0.1-0.7-0.4-1.2-0.8-1.7
			c-0.4-0.4-0.9-0.8-1.5-1c5.6,0.3,9.2,0.6,11.4,0.8c-2,0.2-3.5,0.8-4.3,1.9c-0.3,0.3-0.4,0.7-0.6,1.1c-0.2-1.9-1.4-2.2-1.9-2.3
			C1000.3,169.5,999.3,170,998.8,170.8z M985.8,174.1c0-1.4,0.5-4.8,4.6-5.7c1.3-0.3,2.4-0.4,3.4-0.4c1.9,0,3.2,0.5,4,1.4
			c1.2,1.4,1,3.8-0.5,6.8c-2.4,3.7-5,5.4-7.4,4.7C987.5,180.2,985.7,177.2,985.8,174.1z"/>
	</g>
	<path id="XMLID_163_" class="st17" d="M1036,177.5c-2-1.9-4.5,0.5-4.5,0.5c1.6,1.2,0,3.8,0,3.8"/>
	<path id="XMLID_267_" class="st18" d="M1002.3,248.9c3.1-5.1,14.1-32.9,19.3-46.2c-0.1,0-0.1,0-0.1,0s0.1-1.2-1.9-1.9
		c-13.6,10.7-18.6,3.1-21.6,5.9l0,0C997.8,216.5,998.1,238.8,1002.3,248.9z"/>
	<path id="XMLID_266_" class="st19" d="M1002.2,218.4c-1.3,2.8-2.2,13.3-2.4,21.1c0.5,2.7,1,5.2,1.7,7.4c0.2,0.7,0.5,1.4,0.7,2
		c0.3-0.5,0.7-1.2,1.1-2.1c1.3-2.5,3-6.6,5-11.3l-0.3-16.9c0,0,1.8-1,3.8-4.1c0,0-4-6-6-6.5c-4.3,2.5-6,6.4-6,6.4
		S999.9,217.2,1002.2,218.4z"/>
	<path id="XMLID_265_" class="st20" d="M923.5,206.3c1.3,3.1,9.9,6.1,12.5,6.3c0,0-0.2,0.9-0.3,2.2c2.8,2.8,29.3,15.6,35.1,14.2
		c0.3,0,18.2-1.5,18.1-0.1s-1.5,19.3,3.1,19.3c-4,2.2-7.5,0-9.4,1.1c-8,3-4.4,4.2-3.2,3.4c3.8-3,4.3,0.4,2.3,2.2
		c-9.6,5.2-7.5,7.8-4.4,7.9c3,0.1,12.2-3.8,13.5-5.8c0,0-0.2-1,1-0.8c0,0,2,4.7,1.4,9.9c-0.7,2.8-1.2,15.9-1.2,15.9l1.7,1.2
		l-1.2,104.1h1.4c-3.8,1.9-1.9,6.3-13.8,10.9c-13.7,6.6,9.6,8.1,18.8,0.5c2.5,0.7,6.5,0,6.5,0l0.7-1.4c0,0,0.4-4.8-1-9.5h2.2
		l4.3-87.3l18.9,88.3c0,0,2.8-0.8,2.4,1.9c-2.2,4.6-2.2,8.8,0.7,9.4c5.7-1.2,14.4,7.3,24.3,5c6.1-0.1,5.4-5.4-3.7-6.3
		c-5.9-2.7-2.4-1.6-8.9-7.7c-0.2-1.2,0-2.7,1-2.7c0.3-1.6-12-106.7-12-106.7s-0.8-0.7,1.6-0.5c-2.1-9.6-0.3-20.8,2.1-30.5
		c0.7-7.4,16.6-20.5,6.2-38.9c-10.1-7.7-21.3-9-22.6-9.1c-5.2,13.4-16.2,41.2-19.3,46.2c-4.2-10.1-4.5-32.4-4.4-42.2
		c-3.1,2.8-27.8,12.1-30.2,10.7l-28.4-11.3l-0.8,0.5c0,0-0.7,0.4-2.5-4.6c-1.8-3.2-3.6,1.8-1.6,3.3c0,0-0.9,2.1-4.3-1.1
		C926,201.5,922.2,203.1,923.5,206.3z"/>
	<path id="XMLID_264_" d="M1032.8,390.7c-2.2,4.6-2.2,8.8,0.7,9.4c5.7-1.2,14.4,7.3,24.3,5c6.1-0.1,5.4-5.4-3.7-6.3
		c-5.6-3.5-8.8-8.2-8.9-7.7S1033,389.3,1032.8,390.7z"/>
	<path id="XMLID_263_" d="M998.7,398.8c2.5,0.7,6.5,0,6.5,0l0.7-1.4c0,0,0.4-4.8-1-9.5h0.4l-11.9-0.3c-3.5,1.9-1.9,6.3-13.6,10.8
		C966.2,404.9,989.5,406.4,998.7,398.8z"/>
	<path id="XMLID_260_" class="st8" d="M977.2,262.8c3,0.1,12.2-3.8,13.5-5.8c0,0-0.1-0.8,0.6-0.8c-0.4-1.8-0.8-4.9,0.3-7.9
		c-3.8,2-7.3-0.1-9.1,1c-8,3-4.4,4.2-3.2,3.4c3.8-3,4.3,0.4,2.3,2.2C972.1,260.1,974.2,262.7,977.2,262.8z"/>
	<path id="XMLID_256_" class="st8" d="M923.5,206.3c1.3,3.1,9.7,6.1,12.4,6.3c0.9-2.1,2.2-4.8,3.3-6.4l-0.6,0.4c0,0-0.7,0.4-2.5-4.6
		c-1.8-3.2-3.6,1.8-1.6,3.3c0,0-0.9,2.1-4.3-1.1C926,201.5,922.2,203.1,923.5,206.3z"/>
	<g id="mouth">
		<path id="XMLID_160_" class="st9" d="M997.9,194.5c0,1.8,4.4,2,5.2,0.8"/>
		<g id="mouth_x5F_lines">
			<path id="XMLID_158_" class="st9" d="M1004.2,184.5c3.6,0.9,5.9,6.8,5.9,6.8"/>
			<path id="XMLID_157_" class="st9" d="M994.7,184.2c-3.2,1.7-2,9.9-2,9.9"/>
		</g>
		<path id="XMLID_82_" class="st6" d="M996.3,190.3c-0.2,3.9,7,5.3,10.6,1C1002.5,190.3,996.3,190.3,996.3,190.3z"/>
		<path id="XMLID_61_" class="st21" d="M999.2,191.3c-0.1,1.8,3.3,2.5,4.9,0.5C1002,191.3,999.2,191.3,999.2,191.3z"/>
		<path id="XMLID_51_" class="st22" d="M992.2,202.8c0.9,6.5,14.9,7.3,16.6,2.2c1.7-5.1,1.7-5.3,1.7-5.3v-7.9
			c0-5.1-17.4-6.5-18.1-0.8C992.2,198.1,992.2,202.8,992.2,202.8z M994.4,190.4c0.7-2.1,12.4-2.2,13.8,0.5
			c0.7,9.8-2.8,11.9-7.9,10.3v-2.6h-2.9C996.5,205.6,992.8,194.9,994.4,190.4z"/>
	</g>
</g>
</svg>
