<?xml version="1.0" encoding="utf-8"?>
<!-- Generator: Adobe Illustrator 19.0.0, SVG Export Plug-In . SVG Version: 6.00 Build 0)  -->
<svg version="1.1" id="Layer_1" xmlns="http://www.w3.org/2000/svg" xmlns:xlink="http://www.w3.org/1999/xlink" x="0px" y="0px"
	 viewBox="0 0 900 900" style="enable-background:new 0 0 900 900;" xml:space="preserve">
<style type="text/css">
	.Drop_x0020_Shadow{fill:none;}
	.Round_x0020_Corners_x0020_2_x0020_pt{fill:#FFFFFF;stroke:#000000;stroke-miterlimit:10;}
	.Live_x0020_Reflect_x0020_X{fill:none;}
	.Bevel_x0020_Soft{fill:url(#SVGID_1_);}
	.Dusk{fill:#FFFFFF;}
	.Foliage_GS{fill:#FFDD00;}
	.Pompadour_GS{fill-rule:evenodd;clip-rule:evenodd;fill:#51AEE2;}
	.st0{fill:#9EC25C;}
	.st1{fill:#343A40;}
</style>
<linearGradient id="SVGID_1_" gradientUnits="userSpaceOnUse" x1="0" y1="0" x2="0.7071" y2="0.7071">
	<stop  offset="0" style="stop-color:#E6E6EB"/>
	<stop  offset="0.1738" style="stop-color:#E2E2E6"/>
	<stop  offset="0.352" style="stop-color:#D5D4D8"/>
	<stop  offset="0.5323" style="stop-color:#C0BFC2"/>
	<stop  offset="0.7139" style="stop-color:#A4A2A4"/>
	<stop  offset="0.8949" style="stop-color:#828282"/>
	<stop  offset="1" style="stop-color:#6B6E6E"/>
</linearGradient>
<g id="Commercial">
	<rect id="XMLID_1_" class="st0" width="900" height="900"/>
	<path id="C" class="st1" d="M225.2,406.6v-19.8c0-12.5-10.2-22.8-22.8-22.8h-3.6c-12.5,0-22.8,10.2-22.8,22.8v58
		c0,12.5,10.2,22.8,22.8,22.8h3.6c12.5,0,22.8-10.2,22.8-22.8v-18.9h-21.1v20.9c0,1.8-1.5,3.3-3.3,3.3h-0.3c-1.8,0-3.2-1.5-3.2-3.3
		v-61.7c0-1.8,1.5-3.3,3.2-3.3h0.3c1.8,0,3.3,1.5,3.3,3.3v21.5H225.2z"/>
	<path id="O" class="st1" d="M258.3,364h-3.6c-12.5,0-22.8,10.2-22.8,22.8v58c0,12.5,10.2,22.8,22.8,22.8h3.6
		c12.5,0,22.8-10.2,22.8-22.8v-58C281.1,374.2,270.9,364,258.3,364z M260,446.8c0,1.8-1.5,3.3-3.3,3.3h-0.3c-1.8,0-3.2-1.5-3.2-3.3
		v-61.7c0-1.8,1.5-3.3,3.2-3.3h0.3c1.8,0,3.3,1.5,3.3,3.3V446.8z"/>
	<polygon id="M" class="st1" points="353.9,365.4 353.9,465.9 335.3,465.9 335.3,413.3 328.9,465.9 312.8,465.9 306.4,413.3 
		306.4,465.9 287.9,465.9 287.9,365.4 314.8,365.4 320.9,434.9 326.9,365.4 	"/>
	<polygon id="M_1_" class="st1" points="426.7,365.4 426.7,465.9 408.2,465.9 408.2,413.3 401.7,465.9 385.7,465.9 379.2,413.3 
		379.2,465.9 360.7,465.9 360.7,365.4 387.6,365.4 393.7,434.9 399.8,365.4 	"/>
	<polygon id="E" class="st1" points="474.1,382.9 474.1,365.4 433.5,365.4 433.5,365.4 433.5,382.9 433.5,465.9 443.5,465.9 
		443.5,465.9 474.1,465.9 474.1,465.9 474.1,448.4 454.6,448.4 454.6,423.5 469.2,423.5 469.2,409.2 454.6,409.2 454.6,382.9 	"/>
	<path id="R" class="st1" d="M507.2,365.4h-26.3v100.5H502v-39.2h3.6c1.8,0,3.2,1.5,3.2,3.3v35.9H530v-20.3v-11.5
		c0-5.8-2.4-11-6.2-14.9c-0.3-0.3-0.7-0.7-1.1-1c0.4-0.3,0.7-0.6,1.1-1c3.8-3.8,6.2-9.1,6.2-14.9V391v-2.8
		C530,375.6,519.7,365.4,507.2,365.4z M508.8,406.6c0,1.8-1.5,3.3-3.2,3.3H502v-28h3.6c1.8,0,3.3,1.5,3.3,3.3V406.6z"/>
	<path id="C_1_" class="st1" d="M585.9,406.6v-19.8c0-12.5-10.2-22.8-22.8-22.8h-3.6c-12.5,0-22.8,10.2-22.8,22.8v58
		c0,12.5,10.2,22.8,22.8,22.8h3.6c12.5,0,22.8-10.2,22.8-22.8v-18.9h-21.1v20.9c0,1.8-1.5,3.3-3.3,3.3h-0.3c-1.8,0-3.2-1.5-3.2-3.3
		v-61.7c0-1.8,1.5-3.3,3.2-3.3h0.3c1.8,0,3.3,1.5,3.3,3.3v21.5H585.9z"/>
	<rect id="I" x="592.7" y="365.4" class="st1" width="20.8" height="100.5"/>
	<path id="A" class="st1" d="M676.6,461.7l-0.8-4.3l-4-22l-7.7-42.9L661,375l-1-5.5l-0.8-4.3h-21.1l-0.8,4.3l-1,5.5l-3.2,17.5
		l-7.7,42.9l-4,22l-1,5.6l-0.2,2.8h22.4l1.3-14.8h9.3l1.2,13.4l0.1,1.4h22.4L676.6,461.7z M645.3,435.5l1.3-14.7l2-23l2.1,23.6
		l1.2,14.2H645.3z"/>
	<polygon id="L" class="st1" points="704.8,448.4 704.8,365.4 683.7,365.4 683.7,465.9 693.5,465.9 693.5,465.9 724.1,465.9 
		724.1,448.4 	"/>
	<rect id="Underline" x="381.6" y="483.4" class="st1" width="137" height="8.8"/>
</g>
</svg>
