<?xml version="1.0" encoding="utf-8"?>
<!-- Generator: Adobe Illustrator 19.0.0, SVG Export Plug-In . SVG Version: 6.00 Build 0)  -->
<svg version="1.1" id="Layer_1" xmlns="http://www.w3.org/2000/svg" xmlns:xlink="http://www.w3.org/1999/xlink" x="0px" y="0px"
	 viewBox="133 22.1 419.9 399.3" style="enable-background:new 133 22.1 419.9 399.3;" xml:space="preserve">
<style type="text/css">
	.st0{fill:#99C440;}
	.st1{fill:#FFFFFF;}
</style>
<path id="XMLID_5_" class="st0" d="M385.6,22.1V41h167c0.1,0,0.3,0,0.4,0V22.1H385.6z"/>
<path id="XMLID_3_" class="st1" d="M133,206.8c0,72.7,29.8,127.7,78.9,163.8c40.5,29.3,92.3,45.2,153.9,49.5v-21.9
	c-112.5-3.3-166.5-87-166.5-181.7c0-63.4,24.7-115.5,70.9-144.4c25.5-17,57.8-26.2,95.6-28.2V22.1c-79.5,0.2-140.2,16.6-179.1,52.5
	C155.7,104.4,133,149.3,133,206.8z"/>
<rect id="XMLID_2_" x="439.6" y="59.9" class="st0" width="59.3" height="361.6"/>
</svg>
