<?xml version="1.0" encoding="utf-8"?>
<!-- Generator: Adobe Illustrator 19.0.0, SVG Export Plug-In . SVG Version: 6.00 Build 0)  -->
<svg version="1.1" id="Layer_1" xmlns="http://www.w3.org/2000/svg" xmlns:xlink="http://www.w3.org/1999/xlink" x="0px" y="0px"
	 viewBox="-30 30 131 131" style="enable-background:new -30 30 131 131;" xml:space="preserve">
<style type="text/css">
	.st0{fill:#FFFFFF;}
	.st1{opacity:0.5;fill:#99C440;enable-background:new    ;}
	.st2{fill:#FFFFFF;enable-background:new    ;}
</style>
<g id="Offer_x5F_card">
	<g id="Person_x5F_card">
		<path class="st0" d="M63,32.7L2.9,32.8L-30,66.5v88.3c0,1.9,1.5,3.4,3.4,3.4H63c1.9,0,3.4-1.5,3.4-3.4V36.2
			C66.4,34.3,64.9,32.7,63,32.7z M26.5,142.2h-39.6v-3.9h39.6V142.2z M34.1,125.7h-47.2v-3.9h47.2V125.7z M49.7,109.7h-62.8v-3.9
			h62.8V109.7z M49.7,93.6h-62.8v-3.9h62.8V93.6z M50.5,70.9c0,4.7-3.8,8.6-8.6,8.6H30c-4.7,0-8.6-3.8-8.6-8.5V55.3
			c0-4.7,3.8-8.6,8.6-8.6h11.9c4.7,0,8.6,3.8,8.6,8.6V70.9z"/>
		<path id="Card_x5F_tip" class="st1" d="M2.9,32.8V63c0,1.9-1.5,3.4-3.4,3.4H-30L2.9,32.8L2.9,32.8z"/>
		<circle id="Person_x5F_face" class="st0" cx="36.1" cy="55.9" r="5.1"/>
		<path id="Person_x5F_body" class="st0" d="M41,60.4h-1.5l-1.7,2.2l-1.7,2.3l-1.7-2.3l-1.6-2.2h-1.6c-1.9,0-3.4,1.5-3.4,3.4
			l1.6,8.9v0.2c0,0.3,0.1,0.6,0.2,0.9c0.4,0.9,1.3,1.6,2.4,1.6h8.3c1.3,0,2.3-0.9,2.6-2.1v-0.2c0-0.1,0-0.2,0-0.2l1.6-9.2
			C44.4,61.8,42.9,60.4,41,60.4z"/>
	</g>
	<g id="Pen">
		<path id="XMLID_3_" class="st2" d="M101,90.2c0,2.2-1,4.1-2.6,5.4c-1.4,1.7-4.6,4.6-8.8,8.2c-4.9,4.1-11.1,9-17.6,13.8
			c-13.9,10.3-28.9,20-33.8,20.3l0,0c-0.4,0.2-0.8,0.4-1.3,0.4c-1.5,0-2.7-1.2-2.7-2.7c0-0.5,0.1-1,0.4-1.3
			c0-3.8,26.1-28.1,42.5-41.2c0.9-0.7,1.7-1.4,2.6-2c5-3.9,8.8-6.3,10.1-6.3l0,0c1.2-0.9,2.6-1.4,4.2-1.4
			C97.9,83.2,101,86.3,101,90.2z"/>
		<path id="XMLID_2_" class="st1" d="M101,90.2c0,2.2-1,4.1-2.6,5.4c-1.4,1.7-4.6,4.6-8.8,8.2c-4.9,4.1-11.1,9-17.6,13.8
			c-13.9,10.3-28.9,20-33.8,20.3l0,0c-0.4,0.2-0.8,0.4-1.3,0.4c-1.5,0-2.7-1.2-2.7-2.7c0-0.5,0.1-1,0.4-1.3
			c0-3.8,26.1-28.1,42.5-41.2c0.9-0.7,1.7-1.4,2.6-2c5-3.9,8.8-6.3,10.1-6.3l0,0c1.2-0.9,2.6-1.4,4.2-1.4
			C97.9,83.2,101,86.3,101,90.2z"/>
		<path id="XMLID_1_" class="st0" d="M98.1,103.2L75,121.3c-0.5,0.4-1.3,0.3-1.7-0.2l-1.4-1.8c-0.4-0.5-0.3-1.2,0.2-1.7l0,0
			l15.1-11.8l-10-12.9c0.9-0.7,1.7-1.4,2.6-2l10,12.8l0,0l5.5-4.3c0.5-0.4,1.3-0.3,1.7,0.2l1.4,1.8
			C98.7,102.1,98.6,102.8,98.1,103.2z"/>
	</g>
</g>
</svg>
