<?xml version="1.0" encoding="utf-8"?>
<!-- Generator: Adobe Illustrator 19.0.0, SVG Export Plug-In . SVG Version: 6.00 Build 0)  -->
<svg version="1.1" id="Layer_1" xmlns="http://www.w3.org/2000/svg" xmlns:xlink="http://www.w3.org/1999/xlink" x="0px" y="0px"
	 viewBox="0 0 131 131" style="enable-background:new 0 0 131 131;" xml:space="preserve">
<style type="text/css">
	.Drop_x0020_Shadow{fill:none;}
	.Round_x0020_Corners_x0020_2_x0020_pt{fill:#FFFFFF;stroke:#000000;stroke-miterlimit:10;}
	.Live_x0020_Reflect_x0020_X{fill:none;}
	.Bevel_x0020_Soft{fill:url(#SVGID_1_);}
	.Dusk{fill:#FFFFFF;}
	.Foliage_GS{fill:#FFDD00;}
	.Pompadour_GS{fill-rule:evenodd;clip-rule:evenodd;fill:#51AEE2;}
	.st0{opacity:0;fill:#AD2268;}
	.st1{fill:#AE2269;}
</style>
<linearGradient id="SVGID_1_" gradientUnits="userSpaceOnUse" x1="0" y1="0" x2="0.7071" y2="0.7071">
	<stop  offset="0" style="stop-color:#E6E6EB"/>
	<stop  offset="0.1738" style="stop-color:#E2E2E6"/>
	<stop  offset="0.352" style="stop-color:#D5D4D8"/>
	<stop  offset="0.5323" style="stop-color:#C0BFC2"/>
	<stop  offset="0.7139" style="stop-color:#A4A2A4"/>
	<stop  offset="0.8949" style="stop-color:#828282"/>
	<stop  offset="1" style="stop-color:#6B6E6E"/>
</linearGradient>
<g id="XMLID_2_">
	<circle id="XMLID_13_" class="st0" cx="65.5" cy="65.5" r="65.5"/>
	<path id="XMLID_3_" class="st1" d="M94.2,112l6.8-2.9L88.6,79.9h7.1v-7.4H85.5L76.3,51c2.7-2.7,4.4-6.4,4.4-10.5
		c0-6.7-4.4-12.3-10.5-14.2V19h-8.1v7.1c-6.4,1.7-11.1,7.4-11.1,14.3c0,3.8,1.5,7.3,3.9,10l-9.4,22.1h-9.2v7.4h6.1L30,109.1l6.8,2.9
		l13.6-32.1h11.7v3.8h8.1v-3.8h10.3L94.2,112z M65.9,33c4.1,0,7.5,3.3,7.5,7.5c0,4.1-3.3,7.5-7.5,7.5c-4.1,0-7.4-3.3-7.4-7.5
		C58.4,36.3,61.8,33,65.9,33z M70.2,72.5v-4.2h-8.1v4.2h-8.5l7.6-18c1.5,0.5,3,0.8,4.7,0.8c1.4,0,2.7-0.2,4-0.6l7.5,17.8H70.2z"/>
</g>
</svg>
