<?xml version="1.0" encoding="utf-8"?>
<!-- Generator: Adobe Illustrator 19.0.0, SVG Export Plug-In . SVG Version: 6.00 Build 0)  -->
<svg version="1.1" id="Layer_1" xmlns="http://www.w3.org/2000/svg" xmlns:xlink="http://www.w3.org/1999/xlink" x="0px" y="0px"
	 viewBox="0 0 200 51.2" style="enable-background:new 0 0 200 51.2;" xml:space="preserve">
<style type="text/css">
	.st0{fill:#FFFFFF;}
</style>
<g>
	<path class="st0" d="M26.3,3.7c2.7,1.4,4.8,3.4,6.3,6c1.5,2.6,2.2,5.6,2.2,9c0,3.4-0.7,6.3-2.2,8.9c-1.5,2.6-3.6,4.6-6.3,6.1
		c-2.7,1.4-5.9,2.1-9.4,2.1H4V1.5h12.8C20.5,1.5,23.6,2.2,26.3,3.7z M23.7,26c1.8-1.7,2.6-4.2,2.6-7.3c0-3.2-0.9-5.6-2.6-7.4
		c-1.8-1.8-4.2-2.6-7.4-2.6h-4v19.9h4C19.5,28.6,22,27.7,23.7,26z"/>
	<path class="st0" d="M47.9,1.5v34.3h-8.3V1.5H47.9z"/>
	<path class="st0" d="M86.1,1.5L73.9,35.8H63.5L51.3,1.5h8.9l8.5,25.9l8.5-25.9H86.1z"/>
	<path class="st0" d="M110.9,29.7H98.1l-2,6.1h-8.7L99.7,1.5h9.7l12.4,34.3h-8.8L110.9,29.7z M108.7,23.3l-4.2-12.5l-4.2,12.5H108.7
		z"/>
	<path class="st0" d="M156.2,35.8h-8.3l-14-21.1v21.1h-8.3V1.5h8.3l14,21.2V1.5h8.3V35.8z"/>
	<path class="st0" d="M169.6,33.9c-2.7-1.5-4.8-3.6-6.4-6.3c-1.6-2.7-2.4-5.7-2.4-9.1s0.8-6.4,2.4-9c1.6-2.7,3.7-4.7,6.4-6.2
		c2.7-1.5,5.6-2.2,8.9-2.2s6.2,0.7,8.9,2.2c2.7,1.5,4.8,3.6,6.3,6.2c1.5,2.7,2.3,5.7,2.3,9s-0.8,6.4-2.3,9.1s-3.7,4.8-6.3,6.3
		c-2.7,1.5-5.6,2.2-8.8,2.2S172.3,35.4,169.6,33.9z M185,25.8c1.6-1.8,2.5-4.2,2.5-7.2c0-3-0.8-5.4-2.5-7.2
		c-1.6-1.8-3.8-2.7-6.6-2.7c-2.8,0-5,0.9-6.6,2.7c-1.6,1.8-2.5,4.2-2.5,7.3c0,3,0.8,5.4,2.5,7.2c1.6,1.8,3.8,2.7,6.6,2.7
		C181.2,28.5,183.4,27.6,185,25.8z"/>
</g>
<g>
	<path class="st0" d="M62.2,42.6v7.4h-1v-3.4h-3.8v3.4h-1v-7.4h1v3.3h3.8v-3.3H62.2z"/>
	<path class="st0" d="M65.3,49.6c-0.6-0.3-1-0.8-1.3-1.4c-0.3-0.6-0.5-1.2-0.5-2s0.2-1.4,0.5-2c0.3-0.6,0.8-1,1.3-1.4
		c0.6-0.3,1.2-0.5,1.9-0.5c0.7,0,1.3,0.2,1.9,0.5c0.6,0.3,1,0.8,1.3,1.3c0.3,0.6,0.5,1.2,0.5,2s-0.2,1.4-0.5,2
		c-0.3,0.6-0.8,1-1.3,1.3c-0.6,0.3-1.2,0.5-1.9,0.5C66.5,50.1,65.9,50,65.3,49.6z M68.6,48.9c0.4-0.2,0.7-0.6,1-1
		c0.2-0.4,0.4-1,0.4-1.6c0-0.6-0.1-1.1-0.4-1.6c-0.2-0.4-0.6-0.8-1-1c-0.4-0.2-0.9-0.4-1.4-0.4c-0.5,0-1,0.1-1.4,0.4
		c-0.4,0.2-0.7,0.6-1,1c-0.2,0.4-0.4,1-0.4,1.6c0,0.6,0.1,1.1,0.4,1.6c0.2,0.4,0.6,0.8,1,1c0.4,0.2,0.9,0.4,1.4,0.4
		C67.7,49.3,68.2,49.2,68.6,48.9z"/>
	<path class="st0" d="M79.7,42.7v7.4h-1v-5.5l-2.5,5.5h-0.7l-2.5-5.5v5.5h-1v-7.4h1l2.7,6.1l2.7-6.1H79.7z"/>
	<path class="st0" d="M82.3,43.4v2.5h2.7v0.8h-2.7v2.6h3v0.8h-4v-7.4h4v0.8H82.3z"/>
	<path class="st0" d="M93.9,42.6v0.8h-3.2v2.5h2.6v0.8h-2.6v3.3h-1v-7.4H93.9z"/>
	<path class="st0" d="M96,42.6v4.7c0,0.7,0.2,1.2,0.5,1.5c0.3,0.3,0.8,0.5,1.3,0.5c0.6,0,1-0.2,1.3-0.5c0.3-0.3,0.5-0.8,0.5-1.5
		v-4.7h1v4.7c0,0.6-0.1,1.1-0.4,1.6c-0.2,0.4-0.6,0.7-1,0.9c-0.4,0.2-0.9,0.3-1.4,0.3c-0.5,0-1-0.1-1.4-0.3c-0.4-0.2-0.8-0.5-1-0.9
		c-0.2-0.4-0.4-0.9-0.4-1.6v-4.7H96z"/>
	<path class="st0" d="M106.2,50.1l-1.8-3h-1.2v3h-1v-7.4h2.4c0.6,0,1,0.1,1.4,0.3c0.4,0.2,0.7,0.5,0.9,0.8c0.2,0.3,0.3,0.7,0.3,1.1
		c0,0.5-0.1,1-0.4,1.4c-0.3,0.4-0.7,0.7-1.3,0.8l1.9,3.1H106.2z M103.2,46.2h1.4c0.5,0,0.9-0.1,1.2-0.4c0.3-0.3,0.4-0.6,0.4-1
		c0-0.4-0.1-0.8-0.4-1c-0.3-0.2-0.7-0.4-1.2-0.4h-1.4V46.2z"/>
	<path class="st0" d="M114.6,50.1h-1l-3.9-5.9v5.9h-1v-7.4h1l3.9,5.9v-5.9h1V50.1z"/>
	<path class="st0" d="M117.2,42.6v7.4h-1v-7.4H117.2z"/>
	<path class="st0" d="M123.4,42.6v0.8h-2v6.6h-1v-6.6h-2v-0.8H123.4z"/>
	<path class="st0" d="M125.6,42.6v4.7c0,0.7,0.2,1.2,0.5,1.5c0.3,0.3,0.8,0.5,1.3,0.5c0.6,0,1-0.2,1.3-0.5s0.5-0.8,0.5-1.5v-4.7h1
		v4.7c0,0.6-0.1,1.1-0.4,1.6c-0.2,0.4-0.6,0.7-1,0.9c-0.4,0.2-0.9,0.3-1.4,0.3s-1-0.1-1.4-0.3c-0.4-0.2-0.8-0.5-1-0.9
		c-0.2-0.4-0.4-0.9-0.4-1.6v-4.7H125.6z"/>
	<path class="st0" d="M135.8,50.1l-1.8-3h-1.2v3h-1v-7.4h2.4c0.6,0,1,0.1,1.4,0.3c0.4,0.2,0.7,0.5,0.9,0.8c0.2,0.3,0.3,0.7,0.3,1.1
		c0,0.5-0.1,1-0.4,1.4s-0.7,0.7-1.3,0.8l1.9,3.1H135.8z M132.8,46.2h1.4c0.5,0,0.9-0.1,1.2-0.4c0.3-0.3,0.4-0.6,0.4-1
		c0-0.4-0.1-0.8-0.4-1c-0.3-0.2-0.7-0.4-1.2-0.4h-1.4V46.2z"/>
	<path class="st0" d="M139.3,43.4v2.5h2.7v0.8h-2.7v2.6h3v0.8h-4v-7.4h4v0.8H139.3z"/>
</g>
</svg>
