<?xml version="1.0" encoding="utf-8"?>
<!-- Generator: Adobe Illustrator 19.0.0, SVG Export Plug-In . SVG Version: 6.00 Build 0)  -->
<svg version="1.1" id="Layer_1" xmlns="http://www.w3.org/2000/svg" xmlns:xlink="http://www.w3.org/1999/xlink" x="0px" y="0px"
	 viewBox="0 0 131 125.5" style="enable-background:new 0 0 131 125.5;" xml:space="preserve">
<style type="text/css">
	.st0{display:none;}
	.st1{display:inline;}
	.st2{fill:#FFFFFF;}
	.st3{opacity:0.5;fill:#99C440;}
	.st4{opacity:0.5;}
	.st5{fill:#99C440;}
</style>
<g id="dtopia_x5F_store">
	<g id="XMLID_118_" class="st0">
		<path id="XMLID_119_" class="st1" d="M34.9,10.4c0.5,0.3,0.8,0.6,1.1,1.1c0.3,0.5,0.4,1,0.4,1.6c0,0.6-0.1,1.1-0.4,1.6
			c-0.3,0.5-0.6,0.8-1.1,1.1c-0.5,0.3-1,0.4-1.7,0.4H31v-6h2.3C33.9,10,34.5,10.1,34.9,10.4z M34.5,14.3c0.3-0.3,0.5-0.7,0.5-1.3
			s-0.2-1-0.5-1.3c-0.3-0.3-0.7-0.5-1.3-0.5h-0.7v3.5h0.7C33.7,14.8,34.2,14.6,34.5,14.3z"/>
		<path id="XMLID_122_" class="st1" d="M40.9,12.4v1.2h-3.8v-1.2H40.9z"/>
		<path id="XMLID_124_" class="st1" d="M46.6,10v1.2H45V16h-1.5v-4.9h-1.6V10H46.6z"/>
		<path id="XMLID_126_" class="st1" d="M48.6,15.7c-0.5-0.3-0.8-0.6-1.1-1.1c-0.3-0.5-0.4-1-0.4-1.6c0-0.6,0.1-1.1,0.4-1.6
			c0.3-0.5,0.7-0.8,1.1-1.1c0.5-0.3,1-0.4,1.6-0.4s1.1,0.1,1.6,0.4c0.5,0.3,0.8,0.6,1.1,1.1s0.4,1,0.4,1.6c0,0.6-0.1,1.1-0.4,1.6
			c-0.3,0.5-0.6,0.8-1.1,1.1c-0.5,0.3-1,0.4-1.6,0.4S49.1,16,48.6,15.7z M51.3,14.3c0.3-0.3,0.4-0.7,0.4-1.3c0-0.5-0.1-1-0.4-1.3
			c-0.3-0.3-0.7-0.5-1.2-0.5c-0.5,0-0.9,0.2-1.2,0.5c-0.3,0.3-0.4,0.7-0.4,1.3c0,0.5,0.1,1,0.4,1.3c0.3,0.3,0.7,0.5,1.2,0.5
			C50.6,14.8,51,14.6,51.3,14.3z"/>
		<path id="XMLID_129_" class="st1" d="M58.4,12.9c-0.2,0.3-0.4,0.5-0.7,0.7c-0.3,0.2-0.7,0.3-1.2,0.3h-0.9V16H54v-6h2.4
			c0.5,0,0.9,0.1,1.2,0.2c0.3,0.2,0.6,0.4,0.7,0.7c0.2,0.3,0.2,0.6,0.2,1C58.6,12.3,58.6,12.6,58.4,12.9z M56.9,12.5
			c0.1-0.1,0.2-0.3,0.2-0.6c0-0.2-0.1-0.4-0.2-0.6c-0.1-0.1-0.3-0.2-0.6-0.2h-0.8v1.5h0.8C56.6,12.7,56.8,12.6,56.9,12.5z"/>
		<path id="XMLID_132_" class="st1" d="M60.9,10v6h-1.5v-6H60.9z"/>
		<path id="XMLID_134_" class="st1" d="M65.7,15h-2.2L63.1,16h-1.5l2.2-6h1.7l2.2,6H66L65.7,15z M65.3,13.8l-0.7-2.2l-0.7,2.2H65.3z
			"/>
		<path id="XMLID_137_" class="st1" d="M71.1,15.9c-0.3-0.1-0.6-0.4-0.8-0.6c-0.2-0.3-0.3-0.6-0.3-1h1.6c0,0.2,0.1,0.4,0.2,0.5
			c0.1,0.1,0.3,0.2,0.5,0.2c0.2,0,0.4,0,0.5-0.1c0.1-0.1,0.2-0.2,0.2-0.4c0-0.1,0-0.3-0.2-0.4s-0.2-0.2-0.4-0.2
			c-0.1-0.1-0.4-0.1-0.6-0.2c-0.4-0.1-0.7-0.2-1-0.4c-0.2-0.1-0.5-0.3-0.6-0.5c-0.2-0.2-0.3-0.5-0.3-0.9c0-0.6,0.2-1,0.6-1.3
			c0.4-0.3,0.9-0.5,1.6-0.5c0.7,0,1.2,0.2,1.6,0.5c0.4,0.3,0.6,0.8,0.7,1.3h-1.6c0-0.2-0.1-0.3-0.2-0.5s-0.3-0.2-0.5-0.2
			c-0.2,0-0.3,0-0.4,0.1c-0.1,0.1-0.2,0.2-0.2,0.4c0,0.2,0.1,0.3,0.3,0.5c0.2,0.1,0.5,0.2,0.9,0.4c0.4,0.1,0.7,0.3,0.9,0.4
			s0.5,0.3,0.6,0.5c0.2,0.2,0.3,0.5,0.3,0.9c0,0.3-0.1,0.7-0.3,0.9c-0.2,0.3-0.4,0.5-0.8,0.7s-0.7,0.2-1.2,0.2
			C71.8,16.1,71.4,16,71.1,15.9z"/>
		<path id="XMLID_139_" class="st1" d="M79.7,10v1.2h-1.6V16h-1.5v-4.9H75V10H79.7z"/>
		<path id="XMLID_141_" class="st1" d="M81.7,15.7c-0.5-0.3-0.8-0.6-1.1-1.1c-0.3-0.5-0.4-1-0.4-1.6c0-0.6,0.1-1.1,0.4-1.6
			c0.3-0.5,0.7-0.8,1.1-1.1c0.5-0.3,1-0.4,1.6-0.4s1.1,0.1,1.6,0.4c0.5,0.3,0.8,0.6,1.1,1.1s0.4,1,0.4,1.6c0,0.6-0.1,1.1-0.4,1.6
			c-0.3,0.5-0.6,0.8-1.1,1.1c-0.5,0.3-1,0.4-1.6,0.4S82.2,16,81.7,15.7z M84.4,14.3c0.3-0.3,0.4-0.7,0.4-1.3c0-0.5-0.1-1-0.4-1.3
			c-0.3-0.3-0.7-0.5-1.2-0.5c-0.5,0-0.9,0.2-1.2,0.5c-0.3,0.3-0.4,0.7-0.4,1.3c0,0.5,0.1,1,0.4,1.3c0.3,0.3,0.7,0.5,1.2,0.5
			C83.8,14.8,84.2,14.6,84.4,14.3z"/>
		<path id="XMLID_144_" class="st1" d="M90.3,16L89,13.8h-0.4V16h-1.5v-6h2.5c0.5,0,0.9,0.1,1.2,0.2s0.6,0.4,0.8,0.7s0.2,0.6,0.2,1
			c0,0.4-0.1,0.8-0.3,1.1c-0.2,0.3-0.6,0.5-1,0.7l1.4,2.4H90.3z M88.7,12.7h0.9c0.3,0,0.5-0.1,0.6-0.2s0.2-0.3,0.2-0.6
			c0-0.2-0.1-0.4-0.2-0.5c-0.1-0.1-0.3-0.2-0.6-0.2h-0.9V12.7z"/>
		<path id="XMLID_147_" class="st1" d="M94.3,11.2v1.2h2v1.1h-2v1.3h2.2V16h-3.7v-6h3.7v1.2H94.3z"/>
	</g>
	<g id="XMLID_87_" class="st0">
		<path id="XMLID_88_" class="st1" d="M34.9,10.4c0.5,0.3,0.8,0.6,1.1,1.1c0.3,0.5,0.4,1,0.4,1.6c0,0.6-0.1,1.1-0.4,1.6
			c-0.3,0.5-0.6,0.8-1.1,1.1c-0.5,0.3-1,0.4-1.7,0.4H31v-6h2.3C33.9,10,34.5,10.1,34.9,10.4z M34.5,14.3c0.3-0.3,0.5-0.7,0.5-1.3
			s-0.2-1-0.5-1.3c-0.3-0.3-0.7-0.5-1.3-0.5h-0.7v3.5h0.7C33.7,14.8,34.2,14.6,34.5,14.3z"/>
		<path id="XMLID_91_" class="st1" d="M40.9,12.4v1.2h-3.8v-1.2H40.9z"/>
		<path id="XMLID_93_" class="st1" d="M46.6,10v1.2H45V16h-1.5v-4.9h-1.6V10H46.6z"/>
		<path id="XMLID_95_" class="st1" d="M48.6,15.7c-0.5-0.3-0.8-0.6-1.1-1.1c-0.3-0.5-0.4-1-0.4-1.6c0-0.6,0.1-1.1,0.4-1.6
			c0.3-0.5,0.7-0.8,1.1-1.1c0.5-0.3,1-0.4,1.6-0.4s1.1,0.1,1.6,0.4c0.5,0.3,0.8,0.6,1.1,1.1s0.4,1,0.4,1.6c0,0.6-0.1,1.1-0.4,1.6
			c-0.3,0.5-0.6,0.8-1.1,1.1c-0.5,0.3-1,0.4-1.6,0.4S49.1,16,48.6,15.7z M51.3,14.3c0.3-0.3,0.4-0.7,0.4-1.3c0-0.5-0.1-1-0.4-1.3
			c-0.3-0.3-0.7-0.5-1.2-0.5c-0.5,0-0.9,0.2-1.2,0.5c-0.3,0.3-0.4,0.7-0.4,1.3c0,0.5,0.1,1,0.4,1.3c0.3,0.3,0.7,0.5,1.2,0.5
			C50.6,14.8,51,14.6,51.3,14.3z"/>
		<path id="XMLID_98_" class="st1" d="M58.4,12.9c-0.2,0.3-0.4,0.5-0.7,0.7c-0.3,0.2-0.7,0.3-1.2,0.3h-0.9V16H54v-6h2.4
			c0.5,0,0.9,0.1,1.2,0.2c0.3,0.2,0.6,0.4,0.7,0.7c0.2,0.3,0.2,0.6,0.2,1C58.6,12.3,58.6,12.6,58.4,12.9z M56.9,12.5
			c0.1-0.1,0.2-0.3,0.2-0.6c0-0.2-0.1-0.4-0.2-0.6c-0.1-0.1-0.3-0.2-0.6-0.2h-0.8v1.5h0.8C56.6,12.7,56.8,12.6,56.9,12.5z"/>
		<path id="XMLID_101_" class="st1" d="M60.9,10v6h-1.5v-6H60.9z"/>
		<path id="XMLID_103_" class="st1" d="M65.7,15h-2.2L63.1,16h-1.5l2.2-6h1.7l2.2,6H66L65.7,15z M65.3,13.8l-0.7-2.2l-0.7,2.2H65.3z
			"/>
		<path id="XMLID_106_" class="st1" d="M71.1,15.9c-0.3-0.1-0.6-0.4-0.8-0.6c-0.2-0.3-0.3-0.6-0.3-1h1.6c0,0.2,0.1,0.4,0.2,0.5
			c0.1,0.1,0.3,0.2,0.5,0.2c0.2,0,0.4,0,0.5-0.1c0.1-0.1,0.2-0.2,0.2-0.4c0-0.1,0-0.3-0.2-0.4s-0.2-0.2-0.4-0.2
			c-0.1-0.1-0.4-0.1-0.6-0.2c-0.4-0.1-0.7-0.2-1-0.4c-0.2-0.1-0.5-0.3-0.6-0.5c-0.2-0.2-0.3-0.5-0.3-0.9c0-0.6,0.2-1,0.6-1.3
			c0.4-0.3,0.9-0.5,1.6-0.5c0.7,0,1.2,0.2,1.6,0.5c0.4,0.3,0.6,0.8,0.7,1.3h-1.6c0-0.2-0.1-0.3-0.2-0.5s-0.3-0.2-0.5-0.2
			c-0.2,0-0.3,0-0.4,0.1c-0.1,0.1-0.2,0.2-0.2,0.4c0,0.2,0.1,0.3,0.3,0.5c0.2,0.1,0.5,0.2,0.9,0.4c0.4,0.1,0.7,0.3,0.9,0.4
			s0.5,0.3,0.6,0.5c0.2,0.2,0.3,0.5,0.3,0.9c0,0.3-0.1,0.7-0.3,0.9c-0.2,0.3-0.4,0.5-0.8,0.7s-0.7,0.2-1.2,0.2
			C71.8,16.1,71.4,16,71.1,15.9z"/>
		<path id="XMLID_108_" class="st1" d="M79.7,10v1.2h-1.6V16h-1.5v-4.9H75V10H79.7z"/>
		<path id="XMLID_110_" class="st1" d="M81.7,15.7c-0.5-0.3-0.8-0.6-1.1-1.1c-0.3-0.5-0.4-1-0.4-1.6c0-0.6,0.1-1.1,0.4-1.6
			c0.3-0.5,0.7-0.8,1.1-1.1c0.5-0.3,1-0.4,1.6-0.4s1.1,0.1,1.6,0.4c0.5,0.3,0.8,0.6,1.1,1.1s0.4,1,0.4,1.6c0,0.6-0.1,1.1-0.4,1.6
			c-0.3,0.5-0.6,0.8-1.1,1.1c-0.5,0.3-1,0.4-1.6,0.4S82.2,16,81.7,15.7z M84.4,14.3c0.3-0.3,0.4-0.7,0.4-1.3c0-0.5-0.1-1-0.4-1.3
			c-0.3-0.3-0.7-0.5-1.2-0.5c-0.5,0-0.9,0.2-1.2,0.5c-0.3,0.3-0.4,0.7-0.4,1.3c0,0.5,0.1,1,0.4,1.3c0.3,0.3,0.7,0.5,1.2,0.5
			C83.8,14.8,84.2,14.6,84.4,14.3z"/>
		<path id="XMLID_113_" class="st1" d="M90.3,16L89,13.8h-0.4V16h-1.5v-6h2.5c0.5,0,0.9,0.1,1.2,0.2s0.6,0.4,0.8,0.7s0.2,0.6,0.2,1
			c0,0.4-0.1,0.8-0.3,1.1c-0.2,0.3-0.6,0.5-1,0.7l1.4,2.4H90.3z M88.7,12.7h0.9c0.3,0,0.5-0.1,0.6-0.2s0.2-0.3,0.2-0.6
			c0-0.2-0.1-0.4-0.2-0.5c-0.1-0.1-0.3-0.2-0.6-0.2h-0.9V12.7z"/>
		<path id="XMLID_116_" class="st1" d="M94.3,11.2v1.2h2v1.1h-2v1.3h2.2V16h-3.7v-6h3.7v1.2H94.3z"/>
	</g>
	<g id="XMLID_2_" class="st0">
		<path id="XMLID_57_" class="st1" d="M34.9,10.4c0.5,0.3,0.8,0.6,1.1,1.1c0.3,0.5,0.4,1,0.4,1.6c0,0.6-0.1,1.1-0.4,1.6
			c-0.3,0.5-0.6,0.8-1.1,1.1c-0.5,0.3-1,0.4-1.7,0.4H31v-6h2.3C33.9,10,34.5,10.1,34.9,10.4z M34.5,14.3c0.3-0.3,0.5-0.7,0.5-1.3
			s-0.2-1-0.5-1.3c-0.3-0.3-0.7-0.5-1.3-0.5h-0.7v3.5h0.7C33.7,14.8,34.2,14.6,34.5,14.3z"/>
		<path id="XMLID_60_" class="st1" d="M40.9,12.4v1.2h-3.8v-1.2H40.9z"/>
		<path id="XMLID_62_" class="st1" d="M46.6,10v1.2H45V16h-1.5v-4.9h-1.6V10H46.6z"/>
		<path id="XMLID_64_" class="st1" d="M48.6,15.7c-0.5-0.3-0.8-0.6-1.1-1.1c-0.3-0.5-0.4-1-0.4-1.6c0-0.6,0.1-1.1,0.4-1.6
			c0.3-0.5,0.7-0.8,1.1-1.1c0.5-0.3,1-0.4,1.6-0.4s1.1,0.1,1.6,0.4c0.5,0.3,0.8,0.6,1.1,1.1s0.4,1,0.4,1.6c0,0.6-0.1,1.1-0.4,1.6
			c-0.3,0.5-0.6,0.8-1.1,1.1c-0.5,0.3-1,0.4-1.6,0.4S49.1,16,48.6,15.7z M51.3,14.3c0.3-0.3,0.4-0.7,0.4-1.3c0-0.5-0.1-1-0.4-1.3
			c-0.3-0.3-0.7-0.5-1.2-0.5c-0.5,0-0.9,0.2-1.2,0.5c-0.3,0.3-0.4,0.7-0.4,1.3c0,0.5,0.1,1,0.4,1.3c0.3,0.3,0.7,0.5,1.2,0.5
			C50.6,14.8,51,14.6,51.3,14.3z"/>
		<path id="XMLID_67_" class="st1" d="M58.4,12.9c-0.2,0.3-0.4,0.5-0.7,0.7c-0.3,0.2-0.7,0.3-1.2,0.3h-0.9V16H54v-6h2.4
			c0.5,0,0.9,0.1,1.2,0.2c0.3,0.2,0.6,0.4,0.7,0.7c0.2,0.3,0.2,0.6,0.2,1C58.6,12.3,58.6,12.6,58.4,12.9z M56.9,12.5
			c0.1-0.1,0.2-0.3,0.2-0.6c0-0.2-0.1-0.4-0.2-0.6c-0.1-0.1-0.3-0.2-0.6-0.2h-0.8v1.5h0.8C56.6,12.7,56.8,12.6,56.9,12.5z"/>
		<path id="XMLID_70_" class="st1" d="M60.9,10v6h-1.5v-6H60.9z"/>
		<path id="XMLID_72_" class="st1" d="M65.7,15h-2.2L63.1,16h-1.5l2.2-6h1.7l2.2,6H66L65.7,15z M65.3,13.8l-0.7-2.2l-0.7,2.2H65.3z"
			/>
		<path id="XMLID_75_" class="st1" d="M71.1,15.9c-0.3-0.1-0.6-0.4-0.8-0.6c-0.2-0.3-0.3-0.6-0.3-1h1.6c0,0.2,0.1,0.4,0.2,0.5
			c0.1,0.1,0.3,0.2,0.5,0.2c0.2,0,0.4,0,0.5-0.1c0.1-0.1,0.2-0.2,0.2-0.4c0-0.1,0-0.3-0.2-0.4s-0.2-0.2-0.4-0.2
			c-0.1-0.1-0.4-0.1-0.6-0.2c-0.4-0.1-0.7-0.2-1-0.4c-0.2-0.1-0.5-0.3-0.6-0.5c-0.2-0.2-0.3-0.5-0.3-0.9c0-0.6,0.2-1,0.6-1.3
			c0.4-0.3,0.9-0.5,1.6-0.5c0.7,0,1.2,0.2,1.6,0.5c0.4,0.3,0.6,0.8,0.7,1.3h-1.6c0-0.2-0.1-0.3-0.2-0.5s-0.3-0.2-0.5-0.2
			c-0.2,0-0.3,0-0.4,0.1c-0.1,0.1-0.2,0.2-0.2,0.4c0,0.2,0.1,0.3,0.3,0.5c0.2,0.1,0.5,0.2,0.9,0.4c0.4,0.1,0.7,0.3,0.9,0.4
			s0.5,0.3,0.6,0.5c0.2,0.2,0.3,0.5,0.3,0.9c0,0.3-0.1,0.7-0.3,0.9c-0.2,0.3-0.4,0.5-0.8,0.7s-0.7,0.2-1.2,0.2
			C71.8,16.1,71.4,16,71.1,15.9z"/>
		<path id="XMLID_77_" class="st1" d="M79.7,10v1.2h-1.6V16h-1.5v-4.9H75V10H79.7z"/>
		<path id="XMLID_79_" class="st1" d="M81.7,15.7c-0.5-0.3-0.8-0.6-1.1-1.1c-0.3-0.5-0.4-1-0.4-1.6c0-0.6,0.1-1.1,0.4-1.6
			c0.3-0.5,0.7-0.8,1.1-1.1c0.5-0.3,1-0.4,1.6-0.4s1.1,0.1,1.6,0.4c0.5,0.3,0.8,0.6,1.1,1.1s0.4,1,0.4,1.6c0,0.6-0.1,1.1-0.4,1.6
			c-0.3,0.5-0.6,0.8-1.1,1.1c-0.5,0.3-1,0.4-1.6,0.4S82.2,16,81.7,15.7z M84.4,14.3c0.3-0.3,0.4-0.7,0.4-1.3c0-0.5-0.1-1-0.4-1.3
			c-0.3-0.3-0.7-0.5-1.2-0.5c-0.5,0-0.9,0.2-1.2,0.5c-0.3,0.3-0.4,0.7-0.4,1.3c0,0.5,0.1,1,0.4,1.3c0.3,0.3,0.7,0.5,1.2,0.5
			C83.8,14.8,84.2,14.6,84.4,14.3z"/>
		<path id="XMLID_82_" class="st1" d="M90.3,16L89,13.8h-0.4V16h-1.5v-6h2.5c0.5,0,0.9,0.1,1.2,0.2s0.6,0.4,0.8,0.7s0.2,0.6,0.2,1
			c0,0.4-0.1,0.8-0.3,1.1c-0.2,0.3-0.6,0.5-1,0.7l1.4,2.4H90.3z M88.7,12.7h0.9c0.3,0,0.5-0.1,0.6-0.2s0.2-0.3,0.2-0.6
			c0-0.2-0.1-0.4-0.2-0.5c-0.1-0.1-0.3-0.2-0.6-0.2h-0.9V12.7z"/>
		<path id="XMLID_85_" class="st1" d="M94.3,11.2v1.2h2v1.1h-2v1.3h2.2V16h-3.7v-6h3.7v1.2H94.3z"/>
	</g>
	<g id="XMLID_7_">
		<rect id="XMLID_18_" x="8" y="115" class="st2" width="110" height="5"/>
		<path id="XMLID_15_" class="st2" d="M71,61h24v51h18v-4h-5V25H85v-4h15V5H26v16h16v4H19v83h-6v4h58V61z M81,25H45v-4h36V25z
			 M64,97H30V61h34V97z"/>
		<g id="XMLID_13_">
			<path id="XMLID_3_" class="st2" d="M131,45.5L112.5,25H18.7L0,46c0,0.1,0,0,0,0.1c0,4.5,3.7,8.2,8.2,8.2c4.5,0,8.2-3.7,8.2-8.2
				c0,4.5,3.7,8.2,8.2,8.2c4.5,0,8.2-3.5,8.2-8c0-0.1,0-0.2,0-0.2h0c0,0,0,0.1,0,0.2c0,4.5,3.7,8.1,8.2,8.1c4.5,0,8.2-3.7,8.2-8.3
				c0,4.5,3.7,8.2,8.2,8.2c4.5,0,8.2-3.7,8.2-8.2c0,4.5,3.7,8.2,8.2,8.2c4.5,0,8.2-3.7,8.2-8.2c0,4.5,3.7,8.2,8.2,8.2
				c4.5,0,8.2-3.7,8.2-8.2c0,4.5,3.7,8.2,8.2,8.2c4.5,0,8.2-3.5,8.2-8c0-0.1,0-0.2,0-0.2h0c0,0,0,0.1,0,0.2c0,4.5,3.7,8.1,8.2,8.1
				c4.5,0,8.2-3.7,8.2-8.3C131,45.9,131,45.5,131,45.5z M16.4,46c0-0.1,0-0.3,0-0.4h0C16.4,45.7,16.4,45.9,16.4,46z M49.1,46
				c0-0.1,0-0.4,0-0.4h0C49.1,45.5,49.1,45.8,49.1,46z M65.5,46c0-0.1,0-0.4,0-0.4h0C65.5,45.5,65.5,45.8,65.5,46z M81.9,46
				c0-0.1,0-0.4,0-0.4h0C81.9,45.5,81.9,45.8,81.9,46z M98.2,46c0-0.1,0-0.4,0-0.4h0C98.3,45.5,98.2,45.8,98.2,46z"/>
			<path id="XMLID_17_" class="st3" d="M131,45.5L112.5,25H18.7L0,46c0,0.1,0,0,0,0.1c0,4.5,3.7,8.2,8.2,8.2c4.5,0,8.2-3.7,8.2-8.2
				c0,4.5,3.7,8.2,8.2,8.2c4.5,0,8.2-3.5,8.2-8c0-0.1,0-0.2,0-0.2h0c0,0,0,0.1,0,0.2c0,4.5,3.7,8.1,8.2,8.1c4.5,0,8.2-3.7,8.2-8.3
				c0,4.5,3.7,8.2,8.2,8.2c4.5,0,8.2-3.7,8.2-8.2c0,4.5,3.7,8.2,8.2,8.2c4.5,0,8.2-3.7,8.2-8.2c0,4.5,3.7,8.2,8.2,8.2
				c4.5,0,8.2-3.7,8.2-8.2c0,4.5,3.7,8.2,8.2,8.2c4.5,0,8.2-3.5,8.2-8c0-0.1,0-0.2,0-0.2h0c0,0,0,0.1,0,0.2c0,4.5,3.7,8.1,8.2,8.1
				c4.5,0,8.2-3.7,8.2-8.3C131,45.9,131,45.5,131,45.5z M16.4,46c0-0.1,0-0.3,0-0.4h0C16.4,45.7,16.4,45.9,16.4,46z M49.1,46
				c0-0.1,0-0.4,0-0.4h0C49.1,45.5,49.1,45.8,49.1,46z M65.5,46c0-0.1,0-0.4,0-0.4h0C65.5,45.5,65.5,45.8,65.5,46z M81.9,46
				c0-0.1,0-0.4,0-0.4h0C81.9,45.5,81.9,45.8,81.9,46z M98.2,46c0-0.1,0-0.4,0-0.4h0C98.3,45.5,98.2,45.8,98.2,46z"/>
		</g>
		<g id="XMLID_20_" class="st4">
			<path id="XMLID_23_" class="st5" d="M33.9,10.4c0.5,0.3,0.8,0.6,1.1,1.1c0.3,0.5,0.4,1,0.4,1.6c0,0.6-0.1,1.1-0.4,1.6
				c-0.3,0.5-0.6,0.8-1.1,1.1c-0.5,0.3-1,0.4-1.7,0.4H30v-6h2.3C32.9,10,33.5,10.1,33.9,10.4z M33.5,14.3c0.3-0.3,0.5-0.7,0.5-1.3
				s-0.2-1-0.5-1.3c-0.3-0.3-0.7-0.5-1.3-0.5h-0.7v3.5h0.7C32.7,14.8,33.2,14.6,33.5,14.3z"/>
			<path id="XMLID_30_" class="st5" d="M39.9,12.4v1.2h-3.8v-1.2H39.9z"/>
			<path id="XMLID_32_" class="st5" d="M45.6,10v1.2H44V16h-1.5v-4.9h-1.6V10H45.6z"/>
			<path id="XMLID_34_" class="st5" d="M47.6,15.7c-0.5-0.3-0.8-0.6-1.1-1.1c-0.3-0.5-0.4-1-0.4-1.6c0-0.6,0.1-1.1,0.4-1.6
				c0.3-0.5,0.7-0.8,1.1-1.1c0.5-0.3,1-0.4,1.6-0.4s1.1,0.1,1.6,0.4c0.5,0.3,0.8,0.6,1.1,1.1s0.4,1,0.4,1.6c0,0.6-0.1,1.1-0.4,1.6
				c-0.3,0.5-0.6,0.8-1.1,1.1c-0.5,0.3-1,0.4-1.6,0.4S48.1,16,47.6,15.7z M50.3,14.3c0.3-0.3,0.4-0.7,0.4-1.3c0-0.5-0.1-1-0.4-1.3
				c-0.3-0.3-0.7-0.5-1.2-0.5c-0.5,0-0.9,0.2-1.2,0.5c-0.3,0.3-0.4,0.7-0.4,1.3c0,0.5,0.1,1,0.4,1.3c0.3,0.3,0.7,0.5,1.2,0.5
				C49.6,14.8,50,14.6,50.3,14.3z"/>
			<path id="XMLID_37_" class="st5" d="M57.4,12.9c-0.2,0.3-0.4,0.5-0.7,0.7c-0.3,0.2-0.7,0.3-1.2,0.3h-0.9V16H53v-6h2.4
				c0.5,0,0.9,0.1,1.2,0.2c0.3,0.2,0.6,0.4,0.7,0.7c0.2,0.3,0.2,0.6,0.2,1C57.6,12.3,57.6,12.6,57.4,12.9z M55.9,12.5
				c0.1-0.1,0.2-0.3,0.2-0.6c0-0.2-0.1-0.4-0.2-0.6c-0.1-0.1-0.3-0.2-0.6-0.2h-0.8v1.5h0.8C55.6,12.7,55.8,12.6,55.9,12.5z"/>
			<path id="XMLID_40_" class="st5" d="M59.9,10v6h-1.5v-6H59.9z"/>
			<path id="XMLID_42_" class="st5" d="M64.7,15h-2.2L62.1,16h-1.5l2.2-6h1.7l2.2,6h-1.6L64.7,15z M64.3,13.8l-0.7-2.2l-0.7,2.2
				H64.3z"/>
			<path id="XMLID_45_" class="st5" d="M70.1,15.9c-0.3-0.1-0.6-0.4-0.8-0.6c-0.2-0.3-0.3-0.6-0.3-1h1.6c0,0.2,0.1,0.4,0.2,0.5
				c0.1,0.1,0.3,0.2,0.5,0.2c0.2,0,0.4,0,0.5-0.1c0.1-0.1,0.2-0.2,0.2-0.4c0-0.1,0-0.3-0.2-0.4s-0.2-0.2-0.4-0.2
				c-0.1-0.1-0.4-0.1-0.6-0.2c-0.4-0.1-0.7-0.2-1-0.4c-0.2-0.1-0.5-0.3-0.6-0.5c-0.2-0.2-0.3-0.5-0.3-0.9c0-0.6,0.2-1,0.6-1.3
				c0.4-0.3,0.9-0.5,1.6-0.5c0.7,0,1.2,0.2,1.6,0.5c0.4,0.3,0.6,0.8,0.7,1.3h-1.6c0-0.2-0.1-0.3-0.2-0.5s-0.3-0.2-0.5-0.2
				c-0.2,0-0.3,0-0.4,0.1c-0.1,0.1-0.2,0.2-0.2,0.4c0,0.2,0.1,0.3,0.3,0.5c0.2,0.1,0.5,0.2,0.9,0.4c0.4,0.1,0.7,0.3,0.9,0.4
				s0.5,0.3,0.6,0.5c0.2,0.2,0.3,0.5,0.3,0.9c0,0.3-0.1,0.7-0.3,0.9c-0.2,0.3-0.4,0.5-0.8,0.7s-0.7,0.2-1.2,0.2
				C70.8,16.1,70.4,16,70.1,15.9z"/>
			<path id="XMLID_47_" class="st5" d="M78.7,10v1.2h-1.6V16h-1.5v-4.9H74V10H78.7z"/>
			<path id="XMLID_49_" class="st5" d="M80.7,15.7c-0.5-0.3-0.8-0.6-1.1-1.1c-0.3-0.5-0.4-1-0.4-1.6c0-0.6,0.1-1.1,0.4-1.6
				c0.3-0.5,0.7-0.8,1.1-1.1c0.5-0.3,1-0.4,1.6-0.4s1.1,0.1,1.6,0.4c0.5,0.3,0.8,0.6,1.1,1.1s0.4,1,0.4,1.6c0,0.6-0.1,1.1-0.4,1.6
				c-0.3,0.5-0.6,0.8-1.1,1.1c-0.5,0.3-1,0.4-1.6,0.4S81.2,16,80.7,15.7z M83.4,14.3c0.3-0.3,0.4-0.7,0.4-1.3c0-0.5-0.1-1-0.4-1.3
				c-0.3-0.3-0.7-0.5-1.2-0.5c-0.5,0-0.9,0.2-1.2,0.5c-0.3,0.3-0.4,0.7-0.4,1.3c0,0.5,0.1,1,0.4,1.3c0.3,0.3,0.7,0.5,1.2,0.5
				C82.8,14.8,83.2,14.6,83.4,14.3z"/>
			<path id="XMLID_52_" class="st5" d="M89.3,16L88,13.8h-0.4V16h-1.5v-6h2.5c0.5,0,0.9,0.1,1.2,0.2s0.6,0.4,0.8,0.7s0.2,0.6,0.2,1
				c0,0.4-0.1,0.8-0.3,1.1c-0.2,0.3-0.6,0.5-1,0.7l1.4,2.4H89.3z M87.7,12.7h0.9c0.3,0,0.5-0.1,0.6-0.2s0.2-0.3,0.2-0.6
				c0-0.2-0.1-0.4-0.2-0.5c-0.1-0.1-0.3-0.2-0.6-0.2h-0.9V12.7z"/>
			<path id="XMLID_55_" class="st5" d="M93.3,11.2v1.2h2v1.1h-2v1.3h2.2V16h-3.7v-6h3.7v1.2H93.3z"/>
		</g>
	</g>
</g>
</svg>
