<?xml version="1.0" encoding="utf-8"?>
<!-- Generator: Adobe Illustrator 19.0.0, SVG Export Plug-In . SVG Version: 6.00 Build 0)  -->
<svg version="1.1" id="Layer_1" xmlns="http://www.w3.org/2000/svg" xmlns:xlink="http://www.w3.org/1999/xlink" x="0px" y="0px"
	 viewBox="0 0 131 131" style="enable-background:new 0 0 131 131;" xml:space="preserve">
<style type="text/css">
	.st0{opacity:0;fill:#FFFFFF;}
	.st1{fill:#F4393E;}
</style>
<g id="XMLID_2_">
	<circle id="XMLID_13_" class="st0" cx="65.5" cy="65.5" r="65.5"/>
	<path id="XMLID_3_" class="st1" d="M103.1,30.6V20h-2.7H97H38.9h-2.2h-3.9v11.2h-2.2c-4.4,0-8,3.6-8,8v3.2h0v12.6c0,4.4,3.6,8,8,8
		h9.1v0h23.9c0.9,0,1.6,0.7,1.6,1.6v9.6h-4.8V111h15.1V74.3h-4.4v-9.2c0-4.4-3.6-8-8-8H45.6v0H30.1c-0.9,0-1.6-0.7-1.6-1.6v-3.6h0
		v-13c0-0.9,0.7-1.6,1.6-1.6h2.7v15h3.9h2.2H97h3.4h2.7V36.8h5.3v-6.1H103.1z M71,78.9v27.6h-6.1V78.9H71z M38.9,46.1v-20H97v20
		H38.9z"/>
</g>
</svg>
