<?xml version="1.0" encoding="utf-8"?>
<!-- Generator: Adobe Illustrator 19.0.0, SVG Export Plug-In . SVG Version: 6.00 Build 0)  -->
<svg version="1.1" id="Layer_1" xmlns="http://www.w3.org/2000/svg" xmlns:xlink="http://www.w3.org/1999/xlink" x="0px" y="0px"
	 viewBox="0 0 131 131" style="enable-background:new 0 0 131 131;" xml:space="preserve">
<style type="text/css">
	.Drop_x0020_Shadow{fill:none;}
	.Round_x0020_Corners_x0020_2_x0020_pt{fill:#FFFFFF;stroke:#000000;stroke-miterlimit:10;}
	.Live_x0020_Reflect_x0020_X{fill:none;}
	.Bevel_x0020_Soft{fill:url(#SVGID_1_);}
	.Dusk{fill:#FFFFFF;}
	.Foliage_GS{fill:#FFDD00;}
	.Pompadour_GS{fill-rule:evenodd;clip-rule:evenodd;fill:#51AEE2;}
	.st0{opacity:0;fill:#FFFFFF;}
	.st1{fill:#FECA46;}
</style>
<linearGradient id="SVGID_1_" gradientUnits="userSpaceOnUse" x1="0" y1="0" x2="0.7071" y2="0.7071">
	<stop  offset="0" style="stop-color:#E6E6EB"/>
	<stop  offset="0.1738" style="stop-color:#E2E2E6"/>
	<stop  offset="0.352" style="stop-color:#D5D4D8"/>
	<stop  offset="0.5323" style="stop-color:#C0BFC2"/>
	<stop  offset="0.7139" style="stop-color:#A4A2A4"/>
	<stop  offset="0.8949" style="stop-color:#828282"/>
	<stop  offset="1" style="stop-color:#6B6E6E"/>
</linearGradient>
<g id="XMLID_2_">
	<circle id="XMLID_22_" class="st0" cx="65.5" cy="65.5" r="65.5"/>
	<g id="XMLID_3_">
		<path id="XMLID_19_" class="st1" d="M96.4,90.6H34.7c-3.1,0-5.7-2.6-5.7-5.7v-8.2c0-3.1,2.6-5.7,5.7-5.7h61.7
			c3.1,0,5.7,2.6,5.7,5.7V85C102,88.1,99.5,90.6,96.4,90.6z"/>
		<path id="XMLID_16_" class="st1" d="M30.5,95.3l-3.9,13.5c-0.3,1.1-1.4,1.7-2.5,1.4l-0.6-0.2c-1.1-0.3-1.7-1.4-1.4-2.5l3.5-12.3
			H30.5z"/>
		<path id="XMLID_13_" class="st1" d="M100.2,95.3l3.9,13.5c0.3,1.1,1.4,1.7,2.5,1.4l0.6-0.2c1.1-0.3,1.7-1.4,1.4-2.5l-3.5-12.3
			H100.2z"/>
		<path id="XMLID_6_" class="st1" d="M98.1,20.7H33c-3.1,0-5.7,2.5-5.7,5.7v19.9h0.1c5,0,9.2,4.1,9.2,9.2v9.7c0,0.7-0.1,1.3-0.2,2
			h58.4c-0.1-0.7-0.2-1.3-0.2-2v-9.7c0-5,4.1-9.2,9.2-9.2h0V26.4C103.8,23.3,101.2,20.7,98.1,20.7z M54.9,55.3
			c-1.4,0-2.6-1.2-2.6-2.6c0-1.4,1.2-2.6,2.6-2.6c1.4,0,2.6,1.2,2.6,2.6C57.5,54.1,56.3,55.3,54.9,55.3z M54.9,38.3
			c-1.4,0-2.6-1.2-2.6-2.6c0-1.4,1.2-2.6,2.6-2.6c1.4,0,2.6,1.2,2.6,2.6C57.5,37.1,56.3,38.3,54.9,38.3z M75.9,55.3
			c-1.4,0-2.6-1.2-2.6-2.6c0-1.4,1.2-2.6,2.6-2.6c1.4,0,2.6,1.2,2.6,2.6C78.5,54.1,77.3,55.3,75.9,55.3z M75.9,38.3
			c-1.4,0-2.6-1.2-2.6-2.6c0-1.4,1.2-2.6,2.6-2.6c1.4,0,2.6,1.2,2.6,2.6C78.5,37.1,77.3,38.3,75.9,38.3z"/>
		<path id="XMLID_5_" class="st1" d="M113.5,52.7c-0.6-0.8-1.6-1.3-2.7-1.3h-4.3h-4c-0.6,0-1.3,0.2-1.8,0.5c-1,0.6-1.7,1.7-1.7,3
			v4.4v8c4,0.7,7,4.2,7,8.4v12.9c0,0.7-0.2,1.3-0.5,1.9h4.2c1.1-0.5,2-1.6,2.1-2.9l2.4-27.7v-5C114.3,54,114,53.3,113.5,52.7z"/>
		<path id="XMLID_4_" class="st1" d="M17.5,52.7c0.6-0.8,1.6-1.3,2.7-1.3h4.3h4c0.6,0,1.3,0.2,1.8,0.5c1,0.6,1.7,1.7,1.7,3v4.4v8
			c-4,0.7-7,4.2-7,8.4v12.9c0,0.7,0.2,1.3,0.5,1.9h-4.2c-1.1-0.5-2-1.6-2.1-2.9l-2.4-27.7v-5C16.7,54,17,53.3,17.5,52.7z"/>
	</g>
</g>
</svg>
