<?xml version="1.0" encoding="utf-8"?>
<!-- Generator: Adobe Illustrator 19.0.0, SVG Export Plug-In . SVG Version: 6.00 Build 0)  -->
<svg version="1.1" id="Layer_1" xmlns="http://www.w3.org/2000/svg" xmlns:xlink="http://www.w3.org/1999/xlink" x="0px" y="0px"
	 viewBox="0 0 131 131" style="enable-background:new 0 0 131 131;" xml:space="preserve">
<style type="text/css">
	.Drop_x0020_Shadow{fill:none;}
	.Round_x0020_Corners_x0020_2_x0020_pt{fill:#FFFFFF;stroke:#000000;stroke-miterlimit:10;}
	.Live_x0020_Reflect_x0020_X{fill:none;}
	.Bevel_x0020_Soft{fill:url(#SVGID_1_);}
	.Dusk{fill:#FFFFFF;}
	.Foliage_GS{fill:#FFDD00;}
	.Pompadour_GS{fill-rule:evenodd;clip-rule:evenodd;fill:#51AEE2;}
	.st0{opacity:0;fill:#FFFFFF;}
	.st1{fill:#96C453;}
</style>
<linearGradient id="SVGID_1_" gradientUnits="userSpaceOnUse" x1="0" y1="0" x2="0.7071" y2="0.7071">
	<stop  offset="0" style="stop-color:#E6E6EB"/>
	<stop  offset="0.1738" style="stop-color:#E2E2E6"/>
	<stop  offset="0.352" style="stop-color:#D5D4D8"/>
	<stop  offset="0.5323" style="stop-color:#C0BFC2"/>
	<stop  offset="0.7139" style="stop-color:#A4A2A4"/>
	<stop  offset="0.8949" style="stop-color:#828282"/>
	<stop  offset="1" style="stop-color:#6B6E6E"/>
</linearGradient>
<g id="XMLID_2_">
	<circle id="XMLID_13_" class="st0" cx="65.5" cy="65.5" r="65.5"/>
	<g id="XMLID_3_">
		<path id="XMLID_10_" class="st1" d="M114.2,37.9l-6.6,16.4l-7.7-3.1l6.6-16.4c0.8-2.1,3.2-3.1,5.3-2.2l0.2,0.1
			C114,33.4,115,35.8,114.2,37.9z"/>
		<path id="XMLID_7_" class="st1" d="M94.2,29.9l-6.6,16.3l-7.8-3.1l6.6-16.3c0.8-2.1,3.2-3.1,5.3-2.2l0.2,0.1
			C94,25.4,95,27.8,94.2,29.9z"/>
		<path id="XMLID_4_" class="st1" d="M111.8,57.8l-37.2-15c-3.2-1.3-6.9,0.3-8.2,3.5c-1.3,3.2,0.3,6.9,3.5,8.2l1.6,0.6L63.4,75
			c-1.9,4.7,0.4,10,5.1,11.9l2.6,1l-1.6,4c-0.6,1.5-0.1,3.1,1.1,4C50.3,112.6,57,70.3,30,82.8l-12.8,5.9c-1.6,0.7-2.3,2.7-1.6,4.3
			l0.1,0.2c0.7,1.6,2.7,2.3,4.3,1.6l12.8-5.9c17.1-12.2,15.3,36.7,43.5,9.6c1.7,0.6,3.7-0.3,4.4-2l1.6-4l3.3,1.3
			c4.7,1.9,10-0.4,11.9-5.1l8.1-19.9l1.6,0.6c3.2,1.3,6.9-0.3,8.2-3.5C116.5,62.7,115,59.1,111.8,57.8z"/>
	</g>
</g>
</svg>
