<?xml version="1.0" encoding="utf-8"?>
<!-- Generator: Adobe Illustrator 19.0.0, SVG Export Plug-In . SVG Version: 6.00 Build 0)  -->
<svg version="1.1" id="Layer_1" xmlns="http://www.w3.org/2000/svg" xmlns:xlink="http://www.w3.org/1999/xlink" x="0px" y="0px"
	 viewBox="0 0 191 191" style="enable-background:new 0 0 191 191;" xml:space="preserve">
<style type="text/css">
	.st0{fill:none;stroke:#000000;stroke-width:2.9356;stroke-miterlimit:10;}
	.st1{fill:#99C440;}
	.st2{fill:#FFFFFF;}
</style>
<g id="indexation">
	<circle id="XMLID_45_" class="st0" cx="95.5" cy="95.5" r="92.5"/>
	<g>
		<g>
			<rect id="XMLID_44_" x="96.5" y="70.2" width="36.5" height="2.9"/>
			<rect id="XMLID_43_" x="96.5" y="86.6" width="36.5" height="2.9"/>
			<rect id="XMLID_42_" x="96.5" y="95.6" width="36.5" height="2.9"/>
			<rect id="XMLID_41_" x="96.5" y="104.5" width="36.5" height="2.9"/>
			<rect id="XMLID_40_" x="96.5" y="113.5" width="36.5" height="2.9"/>
			<rect id="XMLID_39_" x="96.5" y="122.4" width="36.5" height="2.9"/>
		</g>
		<path id="XMLID_38_" class="st1" d="M161.5,58.4c0.3,1.2,0.5,2.4,0.5,3.7V120c-2.9-3.3-7.1-5.4-11.8-5.4c-4.5,0-8.5,1.9-11.4,4.9
			V52.8c2.2-3.4,6-5.6,10.4-5.6c0,0,0,0,0,0C155.6,47.2,160.9,52.1,161.5,58.4z"/>
		<path d="M164.8,59c-0.3-8.4-7.2-15.1-15.6-15.1c-0.3,0-0.5,0-0.8,0h0c-3.2,0.2-6.1,1.3-8.5,3.1c-0.4,0.3-0.7,0.6-1.1,0.9
			c-1.2,1-2.2,2.2-3,3.6v72.6v1.3h3v0c1.9-4.4,6.3-7.4,11.4-7.4c5.5,0,10.2,3.6,11.8,8.6v3.4c0,4.1-1.8,7.8-4.6,10.4
			c-2.5,2.3-5.9,3.7-9.5,3.7h-5.1H96.5v3.1h52c4.5,0,8.5-1.8,11.5-4.7c3.1-3,5-7.2,5-11.8v-5.4V61.3C165,60.6,164.9,59.8,164.8,59z
			 M150.2,114.6c-4.5,0-8.5,1.9-11.4,4.9V52.8c2.2-3.4,6-5.6,10.4-5.6c0,0,0,0,0,0c6.4,0,11.7,4.9,12.3,11.2
			c0.3,1.2,0.5,2.4,0.5,3.7V120C159.1,116.7,154.9,114.6,150.2,114.6z"/>
		<rect id="XMLID_35_" x="28.2" y="50" class="st1" width="62.5" height="94.7"/>
		<path d="M26,48.3v98.8h66.6V48.3H26z M89.9,144.2H28.8V51.4h61.1V144.2z"/>
		<g id="keys">
			<rect id="XMLID_32_" x="34.6" y="100" class="st2" width="50" height="38.3"/>
			<path d="M84.5,97h-6h-3h-6h-2.7h-6h-2.7h-6h-2.7h-6h-2.8h-6h-2.8v44.2h2.8h6h2.8h6h2.7h6h2.7h6h2.7h6h3h6h2.8V97H84.5z
				 M75.5,100.2v6h-6v-6H75.5z M75.5,115.1h-6v-6h6V115.1z M75.5,124.1h-6v-6h6V124.1z M43.3,118h6v6h-6V118z M43.3,109.1h6v6h-6
				V109.1z M66.8,115.1h-6v-6h6V115.1z M58.1,115.1h-6v-6h6V115.1z M52.1,118h6v6h-6V118z M60.8,118h6v6h-6V118z M66.8,100.2v6h-6
				v-6H66.8z M58.1,100.2v6h-6v-6H58.1z M49.4,100.2v6h-6v-6H49.4z M34.5,100.2h6v6h-6V100.2z M34.5,109.1h6v6h-6V109.1z M34.5,118
				h6v6h-6V118z M34.5,138.3V127h6v11.3H34.5z M43.3,138.3V127h6v11.3H43.3z M52.1,138.3V127h6v11.3H52.1z M60.8,138.3V127h6v11.3
				H60.8z M69.5,138.3V127h6v11.3H69.5z M84.5,138.3h-6V127h6V138.3z M84.5,124.1h-6v-6h6V124.1z M84.5,115.1h-6v-6h6V115.1z
				 M84.5,106.2h-6v-6h6V106.2z"/>
		</g>
		<rect id="XMLID_6_" x="33.2" y="75.6" class="st2" width="52" height="12.9"/>
		<path d="M31.6,73.2v17.6h55.5V73.2H31.6z M84.3,87.7h-50V76.3h50V87.7z"/>
		<rect id="XMLID_3_" x="33.2" y="56.2" class="st2" width="52" height="6"/>
		<path d="M31.6,54.5v9.4h55.5v-9.4H31.6z M84.3,60.7h-50v-3.1h50V60.7z"/>
	</g>
</g>
</svg>
