<?xml version="1.0" encoding="utf-8"?>
<!-- Generator: Adobe Illustrator 19.0.0, SVG Export Plug-In . SVG Version: 6.00 Build 0)  -->
<svg version="1.1" id="Layer_1" xmlns="http://www.w3.org/2000/svg" xmlns:xlink="http://www.w3.org/1999/xlink" x="0px" y="0px"
	 viewBox="0 0 34 34" style="enable-background:new 0 0 34 34;" xml:space="preserve">
<style type="text/css">
	.st0{opacity:0.5;fill:#E8423F;}
</style>
<path id="XMLID_2_" class="st0" d="M33.6,4.9L32,3.5C24.1,7.9,17.4,14,12.3,21.3c0,0,0,0,0,0c-0.2,0.2-0.3,0.4-0.4,0.5l0,0
	c0,0,0,0,0,0l-7.2-7.2l-4.4,4.5l8.3,8.3l3.4,3.4l2,2c0.2-0.7,0.5-1.3,0.8-2c4-10.2,10.8-19.1,19.3-25.8c0,0,0,0,0,0c0,0,0,0,0,0
	L33.6,4.9z"/>
</svg>
