<?xml version="1.0" encoding="utf-8"?>
<!-- Generator: Adobe Illustrator 19.0.0, SVG Export Plug-In . SVG Version: 6.00 Build 0)  -->
<svg version="1.1" id="Layer_1" xmlns="http://www.w3.org/2000/svg" xmlns:xlink="http://www.w3.org/1999/xlink" x="0px" y="0px"
	 viewBox="0 0 153.6 443.4" style="enable-background:new 0 0 153.6 443.4;" xml:space="preserve">
<style type="text/css">
	.Drop_x0020_Shadow{fill:none;}
	.Outer_x0020_Glow_x0020_5_x0020_pt{fill:none;}
	.Blue_x0020_Neon{fill:none;stroke:#8AACDA;stroke-width:7;stroke-linecap:round;stroke-linejoin:round;}
	.Chrome_x0020_Highlight{fill:url(#SVGID_1_);stroke:#FFFFFF;stroke-width:0.3629;stroke-miterlimit:1;}
	.Jive_GS{fill:#FFDD00;}
	.Alyssa_GS{fill:#A6D0E4;}
	.st0{fill:#B36843;}
	.st1{fill:#9E3E2B;}
	.st2{fill:#939784;}
	.st3{fill:#182423;stroke:#182423;stroke-miterlimit:10;}
	.st4{fill:#283C45;}
	.st5{fill:#283C45;stroke:#283C45;stroke-miterlimit:10;}
	.st6{fill:#181E13;}
	.st7{fill:#3C3129;}
	.st8{fill:none;stroke:#181E13;stroke-miterlimit:10;}
	.st9{fill:#ABB09B;}
	.st10{fill:#3D3E28;}
	.st11{fill:#B5C2B4;}
	.st12{fill:#3A4039;}
	.st13{opacity:0.5;}
	.st14{fill:#968F6F;}
	.st15{fill:#504C46;}
	.st16{fill:#FFFFFF;}
	.st17{fill:#181E13;stroke:#181E13;stroke-miterlimit:10;}
	.st18{fill:none;stroke:#000000;stroke-miterlimit:10;}
</style>
<linearGradient id="SVGID_1_" gradientUnits="userSpaceOnUse" x1="0" y1="0" x2="4.489659e-011" y2="-1">
	<stop  offset="0" style="stop-color:#656565"/>
	<stop  offset="0.618" style="stop-color:#1B1B1B"/>
	<stop  offset="0.6292" style="stop-color:#545454"/>
	<stop  offset="0.9831" style="stop-color:#3E3E3E"/>
</linearGradient>
<g id="owner">
	<path id="XMLID_35_" class="st0" d="M44.6,243.1c-24.4,8.5-43.4,17-40.9,32.5C7.7,283.1,24,295.5,44.6,243.1z"/>
	<g id="body">
		<path id="XMLID_1_" class="st1" d="M62.5,424.7c21.3,17.4-19.6,24-11.4,0.6L62.5,424.7z"/>
		<path id="XMLID_2_" class="st1" d="M97.6,425.9c4.6,8.2,17.2,9.6,17.2,9.6c1.9,0.8-0.4,2.6-0.4,2.6c-3.7,1.1-19.2-0.2-22.8-2.3
			c-1.7-0.3-5.1-0.8-5.1-0.8s-1.6-1.3-0.1-4.4c0.5-3.1,0.1-2.8,0.1-2.8v-1.5L97.6,425.9z"/>
		<path id="XMLID_40_" class="st2" d="M106,322.8l-11.3,4.4l-0.5-8.9h-9.1V331l-6.6,2.6l-25.4-8.6c0,0-2.2,93.3-2.2,100.6h11.8
			c0,0,9.2-79.6,7.6-89.8l17.5,1.6l-1.6,89.8h11.6C97.9,427.1,107.3,351.3,106,322.8z"/>
		<path id="XMLID_3_" class="st3" d="M149.5,250.1c0,0-19.3-46.3-29.1-59c0,0-6.9-5.7-22.7-13.1c-12.3-24.4-42.3-15.5-47.7,3.6
			c0,0-30.6,12.2-32.5,17.9l-6.4,60.6c0,0-4.1,15.3,13.1,12.2l21.4-6.3c0.5,19.4,1.3,55.1,1.3,73.2c4.2,5.1,12.5,8.7,22,10.4v0
			l4.9,0v-1.3l9.4-0.1L83.1,331c7.2,2.1,6.1-7.3,6.1-7.3c0.6-3,2.5,1.4,2.1,6.3l6.6,0.1v17.5c6.4-2.3,11.4-6.1,13.7-11.6l-3.6-76.4
			l29.1,1.4C137.1,261.1,153.4,263.7,149.5,250.1z M32.7,250.4c0,0-0.8-9.4,2.3-16.7h0.6c4.4,6.2,4.9,14.6,4.9,14.6L32.7,250.4z
			 M116.5,242.5c-0.1-8-5-9.9-5-9.9l1.7-8.3c4.8,3.8,9.4,15.9,9.4,18.8C114.2,243.1,116.5,242.5,116.5,242.5z"/>
		<path id="XMLID_31_" class="st4" d="M94.8,235.4c-16.6,2.5-18,3.7-18,3.7c-0.8-15.5-22.3-52.4-14.9-64.2
			C69.2,163.1,108.7,157,94.8,235.4z"/>
		<path id="XMLID_30_" class="st5" d="M91.3,330.1c0.4-4.9-1.6-9.3-2.1-6.3c0,0,1.1,9.4-6.1,7.3l0,6.4L79,259l15.6,1.3l3,69.9
			L91.3,330.1z"/>
	</g>
	<path id="XMLID_29_" class="st0" d="M112.8,235.4c7.2-1.1,7.9-5.1,8.1-9.1c0.2-3.9,4.5-7.5,13.4-6.9c6.1-0.1,6,1,5.5,3
		c9.3-1.4,8.1,2.6,7.8,6c2.9,0.8,1.8,4.5,0.8,5.6c3.2,2.7,1,6.6,1,6.6c-1.9,1.2-20.7,16.1-28.2,0l-6.8,1.3L112.8,235.4z"/>
	<g id="head">
		<path id="XMLID_28_" class="st6" d="M34.9,91l10.8,12.3l6.2-1.3l59.5-67.7c2.5-6.6-0.9-12-1.8-13.8s-1.3-5.9-5-5.9
			c0.4-6.7-6.7-5.1-6.7-5.1s-1-3.7-7.3-3.2c-0.7-3-8.5-1.7-8.5-1.7s-5.6-2.7-12.4,0.9c-3.9-1.5-7.1,2.1-7.1,2.1
			C58.7,5.7,54,9.1,54,9.1s-4.6-1-6.5,4c-6.2,0.2-6.7,3.9-6.7,3.9s-4.1-1.2-5,4c-5.3,0.2-7,5.7-7,5.7s-4-1-4.1,4
			c-5.5,2.1-3.2,5.9-3.2,5.9c-1.9,0.9-3.1,4.6-0.5,7.6c0.1,5.7,0.6,6.8,1,6.8c0.4,0.1,0,6.1,1.5,7.2C24.2,67.5,34.9,91,34.9,91z"/>
		<path id="XMLID_27_" class="st7" d="M111.7,33.3c-0.1,0.3-0.2,0.7-0.3,1L51.9,102l-6.2,1.3L34.9,91c0,0-9.7-21.2-11.2-31.3l0,0
			c8.2-4.9,24.2-17.1,24.2-17.1l22.9-6.1l17.8,4.9L111.7,33.3z"/>
		<path id="face" class="st0" d="M33.1,87.1c-18.7,1.1-3.8,29.6,7.6,26.3c3.5-3.1,5.3,0.6,5.4,2.4c0.1,1.8,8.1,20.8,13.7,25.7
			c5.6,4.9,4.5,18.9,4.1,25.5c-0.5,6.7-0.4,11.3-0.4,11.3c8.8,9.9,22.2,12.5,23.4,5.4v-22.8l36.6-7c0,0-1.9-15.5,0-22.6
			c1.9-7.1,1.4-50.8-3.1-58.7c1.9-19.3-5.7-47.1-25.9-47.1C85.1,25,64.9,24.3,50,33.3c-8.1,4.9-1.2,19,2,25.1
			c3.2,6.1,1.3,6.9,0.5,9.8c-4.2,16.4-3,27.9-3,29.8c0,1.9-0.4,1.3-0.4,1.3h-5.3C43.9,87,33.1,87.1,33.1,87.1z"/>
		<g id="forehead">
			<path id="XMLID_26_" class="st8" d="M110.3,53.6c0,0-4.1-0.5-5.7,2.9c-5.8,2.4-9.1-2.7-19.6,0"/>
			<path id="XMLID_25_" class="st8" d="M109.6,58.2c0,0-3.3-0.2-4.5,1.5c-4.5,1.2-7.2-1.4-15.5,0"/>
		</g>
		<g id="eyebrow">
			<path id="XMLID_24_" class="st6" d="M98.7,70.6c2-4.7-20.1-6.1-27.6,2.1C70.7,57,100.3,55.5,98.7,70.6z"/>
			<path id="XMLID_23_" class="st6" d="M121.3,66.4c-1.6-4.3-10.1-4.1-12.7,2.5C106.3,55.1,121.3,55.2,121.3,66.4z"/>
		</g>
		<g id="eyes">
			<g id="left_x5F_eye">
				<path id="XMLID_22_" class="st9" d="M96.4,87.8c0.7,9-18.6,14.4-22.6,2.6C73.9,80,94.6,79.3,96.4,87.8z"/>
				<circle id="XMLID_21_" class="st10" cx="83.3" cy="89.7" r="5.7"/>
				<circle id="XMLID_20_" class="st11" cx="80.1" cy="87.8" r="1.9"/>
				<circle id="XMLID_19_" class="st12" cx="83.3" cy="90.1" r="2.3"/>
			</g>
			<g id="right_x5F_eye">
				<path id="XMLID_18_" class="st9" d="M122.9,85.5c0.4,6.3-10.8,10-13.1,1.8C109.8,80.1,121.8,79.6,122.9,85.5z"/>
				<circle id="XMLID_17_" class="st10" cx="115.8" cy="86.8" r="5.7"/>
				<circle id="XMLID_16_" class="st11" cx="112.5" cy="84.9" r="1.9"/>
				<circle id="XMLID_15_" class="st12" cx="115.8" cy="87.2" r="2.3"/>
			</g>
		</g>
		<path id="nose" class="st8" d="M107.1,81.4c-2.5,18.1,7.7,19.9,7.7,19.9c6.5,1-1.3,11-10.2,10.3"/>
		<g id="glasses" class="st13">
			<path id="XMLID_14_" class="st14" d="M76.4,76.9c-28.6,6.1-4.7,53.8,19.7,19.6C104.1,82,98.3,72.8,76.4,76.9z"/>
			<path id="XMLID_13_" class="st14" d="M127.6,74c22.8,5.7,3.7,50.5-15.7,18.4C105.5,78.7,110.1,70.1,127.6,74z"/>
			<path id="XMLID_6_" class="st15" d="M127.7,73.6L127.7,73.6c-3.2-0.7-6.1-1-8.6-0.9l0,0c-27.5,1.4-35.8,2.7-37.9,3.1
				c-1.5,0.2-3.2,0.4-4.9,0.7l0,0c-5.7,1.2-9.8,4.2-11.9,8.5c-6.2-0.2-26,3.7-26.9,3.8l0.4,1.9c0.2,0,19-3.7,25.7-3.8
				c-0.4,1.2-0.6,2.5-0.7,3.8c-0.5,7.7,4.2,15.5,10.8,17.9c1.2,0.4,2.7,0.8,4.4,0.8c4.7,0,11.2-2.5,18.4-12.5
				c3-5.5,4.1-10.2,3.2-13.8l0.7,0.1c0.3-2.9,1.6-4.7,3.6-4.9c2.1-0.2,4.2,1.3,4.9,3.4l0,0c-0.1,3.1,0.8,6.9,2.8,11.1
				c5.8,9.5,11.1,11.7,14.7,11.7c0.9,0,1.8-0.1,2.5-0.3c5.6-1.6,9.8-8.8,9.7-16.4C138.3,80.5,134.3,75.3,127.7,73.6z M95.7,96.3
				c-9.4,13.2-17.6,12.8-21.6,11.3c-6.2-2.2-10.7-9.6-10.2-16.9c0.5-6.8,5.1-11.7,12.6-13.3c10.8-2,18.1-1,21.1,3.2
				C100.1,84,99.4,89.5,95.7,96.3z M103.8,77.3c-1.1,0.1-3.7,0.9-4.3,5.3c-0.3-0.9-0.7-1.8-1.3-2.6c-1.8-2.5-5-4-9.5-4.4
				c5-0.5,12.8-1.1,25.1-1.8c-1.3,0.6-2.4,1.4-3.2,2.4c-0.9,1.1-1.4,2.4-1.7,3.9C107.9,78.3,105.8,77.1,103.8,77.3z M128.5,103.2
				c-5.3,1.5-11-2.4-16.2-10.9c-3.2-6.9-3.6-12.4-1-15.6c1.7-2.1,4.7-3.2,8.7-3.2c2.2,0,4.7,0.3,7.5,0.9c8.9,2.2,10,10,10.1,13.2
				C137.7,94.8,133.7,101.7,128.5,103.2z"/>
		</g>
		<g id="mouth">
			<path id="XMLID_8_" class="st8" d="M110.9,134.6c0,4.1-9.7,4.6-11.4,1.8"/>
			<g id="mouth_x5F_lines">
				<path id="XMLID_36_" class="st8" d="M97.3,111.7c-8,2.1-12.9,15.6-12.9,15.6"/>
				<path id="XMLID_37_" class="st8" d="M118,110.8c6.9,3.9,4.3,22.8,4.3,22.8"/>
			</g>
			<path id="XMLID_7_" class="st6" d="M114.5,125c0.4,9.1-15.4,12.3-23.2,2.3C100.9,125,114.5,125,114.5,125z"/>
			<path id="XMLID_38_" class="st16" d="M108.2,127.3c0.2,4.2-7.1,5.7-10.7,1C101.9,127.3,108.2,127.3,108.2,127.3z"/>
			<path id="XMLID_39_" class="st17" d="M122.9,126.5c-1.4-13.1-39.6-10-39.6,1.8v18.3c0,0,0,0.6,3.8,12.3c3.8,11.7,34.5,9.9,36.4-5
				C123.5,153.8,123.4,142.8,122.9,126.5z M112.1,143.9h-6.3v6.1c-11.1,3.6-18.7-1.2-17.3-23.7c3.2-6.1,28.8-5.9,30.3-1.1
				C122.2,135.7,114,160.3,112.1,143.9z"/>
		</g>
		<path id="XMLID_5_" class="st18" d="M27.6,95.4c4.3-4.5,10,1.1,10,1.1c-3.6,2.8,0,8.7,0,8.7"/>
	</g>
</g>
</svg>
