<?xml version="1.0" encoding="utf-8"?>
<!-- Generator: Adobe Illustrator 19.0.0, SVG Export Plug-In . SVG Version: 6.00 Build 0)  -->
<svg version="1.1" id="Layer_1" xmlns="http://www.w3.org/2000/svg" xmlns:xlink="http://www.w3.org/1999/xlink" x="0px" y="0px"
	 viewBox="0 0 131 131" style="enable-background:new 0 0 131 131;" xml:space="preserve">
<style type="text/css">
	.Drop_x0020_Shadow{fill:none;}
	.Round_x0020_Corners_x0020_2_x0020_pt{fill:#FFFFFF;stroke:#000000;stroke-miterlimit:10;}
	.Live_x0020_Reflect_x0020_X{fill:none;}
	.Bevel_x0020_Soft{fill:url(#SVGID_1_);}
	.Dusk{fill:#FFFFFF;}
	.Foliage_GS{fill:#FFDD00;}
	.Pompadour_GS{fill-rule:evenodd;clip-rule:evenodd;fill:#51AEE2;}
	.st0{fill:#0C94A5;}
	.st1{fill:#FFFFFF;}
</style>
<linearGradient id="SVGID_1_" gradientUnits="userSpaceOnUse" x1="0" y1="0" x2="0.7071" y2="0.7071">
	<stop  offset="0" style="stop-color:#E6E6EB"/>
	<stop  offset="0.1738" style="stop-color:#E2E2E6"/>
	<stop  offset="0.352" style="stop-color:#D5D4D8"/>
	<stop  offset="0.5323" style="stop-color:#C0BFC2"/>
	<stop  offset="0.7139" style="stop-color:#A4A2A4"/>
	<stop  offset="0.8949" style="stop-color:#828282"/>
	<stop  offset="1" style="stop-color:#6B6E6E"/>
</linearGradient>
<g id="XMLID_2_">
	<circle id="XMLID_11_" class="st0" cx="65.5" cy="65.5" r="65.5"/>
	<path id="XMLID_3_" class="st1" d="M105.8,95.7l-47.3-49c0.8-2.2,1.3-4.6,1.3-7.1c0-11.1-9-20.2-20.2-20.2c-1.1,0-2.1,0.1-3.1,0.3
		c0,0,0,0-0.1,0c-0.1,0-0.2,0-0.3,0c0,0,0,0,0,0c-0.5,0.2-0.9,0.6-0.9,1.2c0,0.3,0.1,0.6,0.3,0.8c0,0,0,0,0,0l7.2,7.5
		c2.4,2.5,2.3,6.5-0.2,8.9l-5.1,4.9c-2.5,2.4-6.5,2.3-8.9-0.2L22,35.9l-0.1-0.2c0,0,0,0,0,0c-0.2-0.2-0.5-0.3-0.8-0.3
		c-0.6,0-1,0.4-1.2,0.9c0,0,0,0.1,0,0.1c-0.2,1-0.3,2.1-0.3,3.2c0,11.1,9,20.2,20.2,20.2c2.1,0,4.2-0.3,6.1-1l47.4,49.1
		c3.4,3.5,8.9,3.6,12.4,0.2C109.1,104.7,109.2,99.2,105.8,95.7z M100.2,102.6c-1,0.9-2.5,0.9-3.4-0.1l-45-46.6
		c-0.4-0.5-0.7-1.1-0.7-1.7c0-0.6,0.2-1.3,0.7-1.7c1-0.9,2.5-0.9,3.4,0.1l45,46.6C101.2,100.1,101.2,101.6,100.2,102.6z"/>
</g>
</svg>
