<?xml version="1.0" encoding="utf-8"?>
<!-- Generator: Adobe Illustrator 19.0.0, SVG Export Plug-In . SVG Version: 6.00 Build 0)  -->
<svg version="1.1" id="Layer_2" xmlns="http://www.w3.org/2000/svg" xmlns:xlink="http://www.w3.org/1999/xlink" x="0px" y="0px"
	 viewBox="-59 -14.8 80 80" style="enable-background:new -59 -14.8 80 80;" xml:space="preserve">
<style type="text/css">
	.st0{fill:#1995AA;}
</style>
<path id="XMLID_3_" class="st0" d="M17.5,51.9L-23.8,9.3c0.7-1.9,1.2-4,1.2-6.2c0-9.6-7.8-17.6-17.6-17.6c-1,0-1.8,0.1-2.7,0.2
	c0,0,0,0-0.1,0s-0.2,0-0.2,0l0,0c-0.4,0.2-0.8,0.5-0.8,1c0,0.2,0.1,0.5,0.2,0.7l0,0l6.3,6.5c2.1,2.2,2,5.7-0.2,7.8L-42.1,6
	c-2.2,2.1-5.7,2-7.8-0.2l-5.7-6l-0.1-0.2l0,0c-0.2-0.2-0.4-0.2-0.7-0.2c-0.5,0-0.9,0.4-1,0.8v0.1c-0.2,0.9-0.2,1.8-0.2,2.8
	c-0.1,9.6,7.8,17.6,17.5,17.6c1.8,0,3.7-0.2,5.3-0.9L6.6,62.6c2.9,3.1,7.8,3.1,10.8,0.2C20.3,59.8,20.4,55,17.5,51.9z M12.6,57.9
	c-0.9,0.8-2.2,0.8-2.9-0.1l-39.2-40.6c-0.4-0.4-0.6-1-0.6-1.5c0-0.5,0.2-1.2,0.6-1.5c0.9-0.8,2.2-0.8,2.9,0.1l39.2,40.5
	C13.4,55.8,13.4,57.1,12.6,57.9z"/>
</svg>
