<?xml version="1.0" encoding="utf-8"?>
<!-- Generator: Adobe Illustrator 19.0.0, SVG Export Plug-In . SVG Version: 6.00 Build 0)  -->
<svg version="1.1" id="Layer_1" xmlns="http://www.w3.org/2000/svg" xmlns:xlink="http://www.w3.org/1999/xlink" x="0px" y="0px"
	 viewBox="-34 -40.8 131 131" style="enable-background:new -34 -40.8 131 131;" xml:space="preserve">
<style type="text/css">
	.st0{fill:#F0413D;}
</style>
<path id="XMLID_3_" class="st0" d="M85.9-25.5v-15.3H82h-4.9H-6.5h-3.2h-5.6v16.1h-3.2c-6.3,0-11.5,5.2-11.5,11.5v4.6l0,0V9.5
	c0,6.3,5.2,11.5,11.5,11.5h13.2l0,0h34.4c1.3,0,2.3,1,2.3,2.3v13.9h-6.9v53h21.7V37.4h-6.3V24.2c0-6.3-5.2-11.5-11.5-11.5H3.2l0,0
	h-22.3c-1.3,0-2.3-1-2.3-2.3V5.2l0,0v-18.8c0-1.3,1-2.3,2.3-2.3h3.9V5.7h5.5h3.2h83.6H82h3.9v-22.3h7.6v-8.8L85.9-25.5L85.9-25.5z
	 M39.7,44v39.7h-8.8V44H39.7z M-6.5-3.2V-32h83.6v28.8H-6.5z"/>
</svg>
