<svg version="1.1" id="Layer_4" xmlns="http://www.w3.org/2000/svg" xmlns:xlink="http://www.w3.org/1999/xlink" width="80px" height="80px"
viewBox="-414 215 131 131">
<style type="text/css">
    .st3{fill:#FFFFFF;}
</style>
<g id="XMLID_3_">
    <path id="XMLID_10_" class="st3" d="M-285.5,244.8L-294,266l-10-4l8.5-21.2c1-2.7,4.1-4,6.9-2.8l0.3,0.1
        C-285.7,238.9-284.4,242-285.5,244.8z"/>
    <path id="XMLID_7_" class="st3" d="M-311.4,234.4l-8.5,21.1l-10.1-4l8.5-21.1c1-2.7,4.1-4,6.9-2.8l0.3,0.1
        C-311.6,228.6-310.3,231.7-311.4,234.4z"/>
    <path id="XMLID_4_" class="st3" d="M-288.6,270.5l-48.2-19.4c-4.1-1.7-8.9,0.4-10.6,4.5c-1.7,4.1,0.4,8.9,4.5,10.6l2.1,0.8
        l-10.5,25.8c-2.5,6.1,0.5,12.9,6.6,15.4l3.4,1.3l-2.1,5.2c-0.8,1.9-0.1,4,1.4,5.2c-26.3,21.6-17.6-33.1-52.6-17l-16.6,7.6
        c-2.1,0.9-3,3.5-2.1,5.6l0.1,0.3c0.9,2.1,3.5,3,5.6,2.1l16.6-7.6c22.1-15.8,19.8,47.5,56.3,12.4c2.2,0.8,4.8-0.4,5.7-2.6l2.1-5.2
        l4.3,1.7c6.1,2.5,12.9-0.5,15.4-6.6l10.5-25.8l2.1,0.8c4.1,1.7,8.9-0.4,10.6-4.5C-282.5,276.9-284.4,272.2-288.6,270.5z"/>
</g>
</svg>