<?xml version="1.0" encoding="utf-8"?>
<!-- Generator: Adobe Illustrator 19.0.0, SVG Export Plug-In . SVG Version: 6.00 Build 0)  -->
<svg version="1.1" id="Layer_1" xmlns="http://www.w3.org/2000/svg" xmlns:xlink="http://www.w3.org/1999/xlink" x="0px" y="0px"
	 viewBox="-27 45 131 131" style="enable-background:new -27 45 131 131;" xml:space="preserve">
<style type="text/css">
	.st0{fill:#FFFFFF;}
</style>
<path id="XMLID_3_" class="st0" d="M78.9,176l9.6-4.1L71,130.8h10v-10.4H66.7l-13-30.3c3.8-3.8,6.2-9,6.2-14.8
	c0-9.4-6.2-17.3-14.8-20V45H33.7v10c-9,2.4-15.6,10.4-15.6,20.1c0,5.4,2.1,10.3,5.5,14.1l-13.2,31.1h-13v10.4H6l-17.5,41.1l9.6,4.1
	l19.2-45.2h16.5v5.4h11.4v-5.4h14.5L78.9,176z M39.1,64.7c5.8,0,10.6,4.6,10.6,10.6c0,5.8-4.6,10.6-10.6,10.6
	c-5.8,0-10.4-4.6-10.4-10.6C28.5,69.4,33.3,64.7,39.1,64.7z M45.1,120.4v-5.9H33.7v5.9h-12L32.4,95c2.1,0.7,4.2,1.1,6.6,1.1
	c2,0,3.8-0.3,5.6-0.8l10.6,25.1H45.1z"/>
</svg>
