<svg version="1.1" id="Layer_2" xmlns="http://www.w3.org/2000/svg" xmlns:xlink="http://www.w3.org/1999/xlink" width="80px" height="80px" viewBox="0 0 131 131">
    <style type="text/css">
        .st1{opacity:1;fill:#FFFFFF;}
    </style>
    <path id="XMLID_3_" class="st1" d="M125.2,109.2L57.7,39.3c1.1-3.1,1.9-6.6,1.9-10.1c0-15.8-12.8-28.8-28.8-28.8
        c-1.6,0-3,0.1-4.4,0.4c0,0,0,0-0.1,0s-0.3,0-0.4,0l0,0c-0.7,0.3-1.3,0.9-1.3,1.7c0,0.4,0.1,0.9,0.4,1.1l0,0l10.3,10.7
        c3.4,3.6,3.3,9.3-0.3,12.7l-7.3,7c-3.6,3.4-9.3,3.3-12.7-0.3l-9.3-9.8l-0.1-0.3l0,0c-0.3-0.3-0.7-0.4-1.1-0.4
        c-0.9,0-1.4,0.6-1.7,1.3v0.1c-0.3,1.4-0.4,3-0.4,4.6C2.3,45,15.1,58,31.1,58c3,0,6-0.4,8.7-1.4l67.6,70c4.8,5,12.7,5.1,17.7,0.3
        C129.9,122,130,114.2,125.2,109.2z M117.2,119c-1.4,1.3-3.6,1.3-4.8-0.1L48.2,52.4c-0.6-0.7-1-1.6-1-2.4c0-0.9,0.3-1.9,1-2.4
        c1.4-1.3,3.6-1.3,4.8,0.1l64.2,66.4C118.6,115.5,118.6,117.6,117.2,119z"/>
    </svg>