<?xml version="1.0" encoding="utf-8"?>
<!-- Generator: Adobe Illustrator 19.0.0, SVG Export Plug-In . SVG Version: 6.00 Build 0)  -->
<svg version="1.1" id="Layer_4" xmlns="http://www.w3.org/2000/svg" xmlns:xlink="http://www.w3.org/1999/xlink" x="0px" y="0px"
	 viewBox="-59 -14.8 80 80" style="enable-background:new -59 -14.8 80 80;" xml:space="preserve">
<style type="text/css">
	.st0{fill:#99CA3C;}
</style>
<g id="XMLID_3_">
	<path id="XMLID_10_" class="st0" d="M19.3,3.4l-5.2,12.9l-6.1-2.4L13.2,1c0.6-1.6,2.5-2.4,4.2-1.7l0.2,0.1
		C19.2-0.2,20,1.7,19.3,3.4z"/>
	<path id="XMLID_7_" class="st0" d="M3.5-2.9L-1.7,10l-6.2-2.4l5.2-12.9C-2-7-0.1-7.8,1.6-7.1L1.8-7C3.4-6.5,4.2-4.6,3.5-2.9z"/>
	<path id="XMLID_4_" class="st0" d="M17.5,19.1L-12,7.3c-2.5-1-5.4,0.2-6.5,2.7s0.2,5.4,2.7,6.5l1.3,0.5l-6.4,15.8
		c-1.5,3.7,0.3,7.9,4,9.4l2.1,0.8l-1.3,3.2c-0.5,1.2-0.1,2.4,0.9,3.2c-16.1,13.2-10.7-20.2-32.1-10.4l-10.1,4.6
		c-1.3,0.5-1.8,2.1-1.3,3.4l0.1,0.2c0.5,1.3,2.1,1.8,3.4,1.3l10.1-4.6c13.5-9.6,12.1,29,34.4,7.6c1.3,0.5,2.9-0.2,3.5-1.6l1.3-3.2
		l2.6,1c3.7,1.5,7.9-0.3,9.4-4l6.4-15.8l1.3,0.5c2.5,1,5.4-0.2,6.5-2.7C21.2,23,20,20.2,17.5,19.1z"/>
</g>
</svg>
