<?xml version="1.0" encoding="utf-8"?>
<!-- Generator: Adobe Illustrator 19.0.0, SVG Export Plug-In . SVG Version: 6.00 Build 0)  -->
<svg version="1.1" id="Layer_1" xmlns="http://www.w3.org/2000/svg" xmlns:xlink="http://www.w3.org/1999/xlink" x="0px" y="0px"
	 viewBox="-27 45 131 131" style="enable-background:new -27 45 131 131;" xml:space="preserve">
<style type="text/css">
	.st0{fill:#FFFFFF;}
</style>
<g id="XMLID_3_">
	<path id="XMLID_19_" class="st0" d="M79.7,144.3H-2.6c-4.1,0-7.6-3.5-7.6-7.6v-10.9c0-4.1,3.5-7.6,7.6-7.6h82.3
		c4.1,0,7.6,3.5,7.6,7.6v11.1C87.2,140.9,83.9,144.3,79.7,144.3z"/>
	<path id="XMLID_16_" class="st0" d="M-8.2,150.5l-5.2,18c-0.4,1.5-1.9,2.3-3.3,1.9l-0.8-0.3c-1.5-0.4-2.3-1.9-1.9-3.3l4.7-16.4h6.5
		V150.5z"/>
	<path id="XMLID_13_" class="st0" d="M84.8,150.5l5.2,18c0.4,1.5,1.9,2.3,3.3,1.9l0.8-0.3c1.5-0.4,2.3-1.9,1.9-3.3l-4.7-16.4h-6.5
		V150.5z"/>
	<path id="XMLID_6_" class="st0" d="M82,51H-4.9c-4.1,0-7.6,3.3-7.6,7.6v26.6h0.1c6.7,0,12.3,5.5,12.3,12.3v12.9
		c0,0.9-0.1,1.7-0.3,2.7h77.9c-0.1-0.9-0.3-1.7-0.3-2.7V97.4c0-6.7,5.5-12.3,12.3-12.3l0,0V58.6C89.6,54.5,86.1,51,82,51z
		 M24.4,97.2c-1.9,0-3.5-1.6-3.5-3.5c0-1.9,1.6-3.5,3.5-3.5c1.9,0,3.5,1.6,3.5,3.5C27.8,95.6,26.2,97.2,24.4,97.2z M24.4,74.5
		c-1.9,0-3.5-1.6-3.5-3.5c0-1.9,1.6-3.5,3.5-3.5c1.9,0,3.5,1.6,3.5,3.5C27.8,72.9,26.2,74.5,24.4,74.5z M52.4,97.2
		c-1.9,0-3.5-1.6-3.5-3.5c0-1.9,1.6-3.5,3.5-3.5s3.5,1.6,3.5,3.5C55.8,95.6,54.2,97.2,52.4,97.2z M52.4,74.5c-1.9,0-3.5-1.6-3.5-3.5
		c0-1.9,1.6-3.5,3.5-3.5s3.5,1.6,3.5,3.5C55.8,72.9,54.2,74.5,52.4,74.5z"/>
	<path id="XMLID_5_" class="st0" d="M102.5,93.7c-0.8-1.1-2.1-1.7-3.6-1.7h-5.7h-5.3c-0.8,0-1.7,0.3-2.4,0.7c-1.3,0.8-2.3,2.3-2.3,4
		v5.9v10.7c5.3,0.9,9.3,5.6,9.3,11.2v17.2c0,0.9-0.3,1.7-0.7,2.5h5.6c1.5-0.7,2.7-2.1,2.8-3.9l3.2-37v-6.7
		C103.6,95.4,103.2,94.5,102.5,93.7z"/>
	<path id="XMLID_4_" class="st0" d="M-25.5,93.7c0.8-1.1,2.1-1.7,3.6-1.7h5.7h5.3c0.8,0,1.7,0.3,2.4,0.7c1.3,0.8,2.3,2.3,2.3,4v5.9
		v10.7c-5.3,0.9-9.3,5.6-9.3,11.2v17.2c0,0.9,0.3,1.7,0.7,2.5h-5.6c-1.5-0.7-2.7-2.1-2.8-3.9l-3.2-37v-6.7
		C-26.6,95.4-26.2,94.5-25.5,93.7z"/>
</g>
</svg>
