<?xml version="1.0" encoding="utf-8"?>
<!-- Generator: Adobe Illustrator 19.0.0, SVG Export Plug-In . SVG Version: 6.00 Build 0)  -->
<svg version="1.1" id="Layer_1" xmlns="http://www.w3.org/2000/svg" xmlns:xlink="http://www.w3.org/1999/xlink" x="0px" y="0px"
	 viewBox="-34 -40.8 131 131" style="enable-background:new -34 -40.8 131 131;" xml:space="preserve">
<style type="text/css">
	.st0{fill:#F9CB10;}
</style>
<g id="XMLID_3_">
	<path id="XMLID_19_" class="st0" d="M72.7,57.5H-9.6c-4.1,0-7.6-3.5-7.6-7.6V39c0-4.1,3.5-7.6,7.6-7.6h82.3c4.1,0,7.6,3.5,7.6,7.6
		v11.1C80.2,54.1,76.9,57.5,72.7,57.5z"/>
	<path id="XMLID_16_" class="st0" d="M-15.2,63.7l-5.2,18c-0.4,1.5-1.9,2.3-3.3,1.9l-0.8-0.3c-1.5-0.4-2.3-1.9-1.9-3.3l4.7-16.4h6.5
		C-15.2,63.6-15.2,63.7-15.2,63.7z"/>
	<path id="XMLID_13_" class="st0" d="M77.8,63.7l5.2,18c0.4,1.5,1.9,2.3,3.3,1.9l0.8-0.3c1.5-0.4,2.3-1.9,1.9-3.3l-4.7-16.4h-6.5
		C77.8,63.6,77.8,63.7,77.8,63.7z"/>
	<path id="XMLID_6_" class="st0" d="M75-35.8h-86.9c-4.1,0-7.6,3.3-7.6,7.6v26.6h0.1c6.7,0,12.3,5.5,12.3,12.3v12.9
		c0,0.9-0.1,1.7-0.3,2.7h77.9c-0.1-0.9-0.3-1.7-0.3-2.7v-13c0-6.7,5.5-12.3,12.3-12.3l0,0v-26.5C82.6-32.3,79.1-35.8,75-35.8z
		 M17.4,10.4c-1.9,0-3.5-1.6-3.5-3.5s1.6-3.5,3.5-3.5s3.5,1.6,3.5,3.5C20.8,8.8,19.2,10.4,17.4,10.4z M17.4-12.3
		c-1.9,0-3.5-1.6-3.5-3.5s1.6-3.5,3.5-3.5s3.5,1.6,3.5,3.5C20.8-13.9,19.2-12.3,17.4-12.3z M45.4,10.4c-1.9,0-3.5-1.6-3.5-3.5
		s1.6-3.5,3.5-3.5s3.5,1.6,3.5,3.5C48.8,8.8,47.2,10.4,45.4,10.4z M45.4-12.3c-1.9,0-3.5-1.6-3.5-3.5s1.6-3.5,3.5-3.5
		s3.5,1.6,3.5,3.5C48.8-13.9,47.2-12.3,45.4-12.3z"/>
	<path id="XMLID_5_" class="st0" d="M95.5,6.9c-0.8-1.1-2.1-1.7-3.6-1.7h-5.7h-5.3c-0.8,0-1.7,0.3-2.4,0.7c-1.3,0.8-2.3,2.3-2.3,4
		v5.9v10.7c5.3,0.9,9.3,5.6,9.3,11.2v17.2c0,0.9-0.3,1.7-0.7,2.5h5.6c1.5-0.7,2.7-2.1,2.8-3.9l3.2-37V9.8
		C96.6,8.6,96.2,7.7,95.5,6.9z"/>
	<path id="XMLID_4_" class="st0" d="M-32.5,6.9c0.8-1.1,2.1-1.7,3.6-1.7h5.7h5.3c0.8,0,1.7,0.3,2.4,0.7c1.3,0.8,2.3,2.3,2.3,4v5.9
		v10.7c-5.3,0.9-9.3,5.6-9.3,11.2v17.2c0,0.9,0.3,1.7,0.7,2.5h-5.6c-1.5-0.7-2.7-2.1-2.8-3.9l-3.2-37V9.8
		C-33.6,8.6-33.2,7.7-32.5,6.9z"/>
</g>
</svg>
