<?xml version="1.0" encoding="utf-8"?>
<!-- Generator: Adobe Illustrator 19.0.0, SVG Export Plug-In . SVG Version: 6.00 Build 0)  -->
<svg version="1.1" id="Layer_1" xmlns="http://www.w3.org/2000/svg" xmlns:xlink="http://www.w3.org/1999/xlink" x="0px" y="0px"
	 viewBox="-34 -40.8 131 131" style="enable-background:new -34 -40.8 131 131;" xml:space="preserve">
<style type="text/css">
	.st0{fill:#A81D6B;}
</style>
<path id="XMLID_3_" class="st0" d="M71.4,90.2l9.6-4.1L63.5,45h10V34.6H59.2l-13-30.3c3.8-3.8,6.2-9,6.2-14.8
	c0-9.4-6.2-17.3-14.8-20v-10.3H26.2v10c-9,2.4-15.6,10.4-15.6,20.1c0,5.4,2.1,10.3,5.5,14.1L2.9,34.5h-13v10.4h8.6L-19,86l9.6,4.1
	L9.8,44.9h16.5v5.4h11.4v-5.4h14.5L71.4,90.2z M31.6-21.1c5.8,0,10.6,4.6,10.6,10.6c0,5.8-4.6,10.6-10.6,10.6
	c-5.8,0-10.4-4.6-10.4-10.6C21-16.4,25.8-21.1,31.6-21.1z M37.6,34.6v-5.9H26.2v5.9h-12L24.9,9.2c2.1,0.7,4.2,1.1,6.6,1.1
	c2,0,3.8-0.3,5.6-0.8l10.6,25.1C47.7,34.6,37.6,34.6,37.6,34.6z"/>
</svg>
