<?xml version="1.0" encoding="utf-8"?>
<!-- Generator: Adobe Illustrator 19.0.0, SVG Export Plug-In . SVG Version: 6.00 Build 0)  -->
<svg version="1.1" id="Layer_1" xmlns="http://www.w3.org/2000/svg" xmlns:xlink="http://www.w3.org/1999/xlink" x="0px" y="0px"
	 viewBox="0 0 131 131" style="enable-background:new 0 0 131 131;" xml:space="preserve">
<style type="text/css">
	.Drop_x0020_Shadow{fill:none;}
	.Round_x0020_Corners_x0020_2_x0020_pt{fill:#FFFFFF;stroke:#000000;stroke-miterlimit:10;}
	.Live_x0020_Reflect_x0020_X{fill:none;}
	.Bevel_x0020_Soft{fill:url(#SVGID_1_);}
	.Dusk{fill:#FFFFFF;}
	.Foliage_GS{fill:#FFDD00;}
	.Pompadour_GS{fill-rule:evenodd;clip-rule:evenodd;fill:#51AEE2;}
	.st0{fill:#FFFFFF;}
	.st1{opacity:0.5;fill:#F07E1E;}
	.st2{fill:#5E5F5D;}
</style>
<linearGradient id="SVGID_1_" gradientUnits="userSpaceOnUse" x1="0" y1="0" x2="0.7071" y2="0.7071">
	<stop  offset="0" style="stop-color:#E6E6EB"/>
	<stop  offset="0.1738" style="stop-color:#E2E2E6"/>
	<stop  offset="0.352" style="stop-color:#D5D4D8"/>
	<stop  offset="0.5323" style="stop-color:#C0BFC2"/>
	<stop  offset="0.7139" style="stop-color:#A4A2A4"/>
	<stop  offset="0.8949" style="stop-color:#828282"/>
	<stop  offset="1" style="stop-color:#6B6E6E"/>
</linearGradient>
<g id="Offer_x5F_card">
	<g id="Person_x5F_card">
		<path id="Card_x5F_bg" class="st0" d="M32.9,2.8L0,36.5h0v0v88.3c0,1.9,1.5,3.4,3.4,3.4H93c1.9,0,3.4-1.5,3.4-3.4V6.2
			c0-1.9-1.5-3.5-3.4-3.5L32.9,2.8L32.9,2.8z"/>
		<path id="Card_x5F_tip" class="st1" d="M32.9,2.8v30.2c0,1.9-1.5,3.4-3.4,3.4H0L32.9,2.8L32.9,2.8z"/>
		<path id="Person_x5F_bg_1_" class="st1" d="M60,49.5h11.9c4.8,0,8.6-3.9,8.6-8.6V25.3c0-4.8-3.9-8.6-8.6-8.6H60
			c-4.8,0-8.6,3.9-8.6,8.6v15.7C51.4,45.7,55.3,49.5,60,49.5z"/>
		<rect id="Writing_x5F_line" x="16.9" y="108.3" class="st1" width="39.6" height="3.9"/>
		<rect id="Writing_x5F_line_1_" x="16.9" y="91.8" class="st1" width="47.2" height="3.9"/>
		<rect id="Writing_x5F_line_2_" x="16.9" y="75.8" class="st1" width="62.8" height="3.9"/>
		<rect id="Writing_x5F_line_3_" x="16.9" y="59.7" class="st1" width="62.8" height="3.9"/>
		<circle id="Person_x5F_face" class="st0" cx="66.1" cy="25.9" r="5.1"/>
		<path id="Person_x5F_body" class="st0" d="M71,30.4h-9.8c-1.9,0-3.4,1.5-3.4,3.4l1.6,8.9v0.1c0,0,0,0.1,0,0.1
			c0,0.3,0.1,0.6,0.2,0.9v0c0.4,0.9,1.3,1.6,2.4,1.6h8.3c1.3,0,2.3-0.9,2.6-2.1l0-0.2c0-0.1,0-0.2,0-0.2h0l1.6-9.2
			C74.4,31.8,72.9,30.4,71,30.4z M67.8,32.6l-1.7,2.3l-1.7-2.3l-1.7-2.3h6.9L67.8,32.6z"/>
	</g>
	<g id="Pen">
		<path id="XMLID_2_" class="st2" d="M131,60.2c0,2.2-1,4.1-2.6,5.4c-1.4,1.7-4.6,4.6-8.8,8.2c-4.9,4.1-11.1,9-17.6,13.8
			c-13.9,10.3-28.9,20-33.8,20.3h0c-0.4,0.2-0.8,0.4-1.3,0.4c-1.5,0-2.7-1.2-2.7-2.7c0-0.5,0.1-1,0.4-1.3c0-3.8,26.1-28.1,42.5-41.2
			c0.9-0.7,1.7-1.4,2.6-2c5-3.9,8.8-6.3,10.1-6.3c0,0,0,0,0,0c1.2-0.9,2.6-1.4,4.2-1.4C127.9,53.2,131,56.3,131,60.2z"/>
		<path id="XMLID_1_" class="st0" d="M128.1,73.2L105,91.3c-0.5,0.4-1.3,0.3-1.7-0.2l-1.4-1.8c-0.4-0.5-0.3-1.2,0.2-1.7c0,0,0,0,0,0
			l15.1-11.8l-10-12.9c0.9-0.7,1.7-1.4,2.6-2l10,12.8l0,0l5.5-4.3c0.5-0.4,1.3-0.3,1.7,0.2l1.4,1.8
			C128.7,72.1,128.6,72.8,128.1,73.2z"/>
	</g>
</g>
</svg>
